<svg
            width="557"
            height="445"
            viewBox="0 0 557 445"
            fill="none"
            xmlns="http://www.w3.org/2000/svg"
          >
            <path
              d="M99.3147 437.059C65.1198 396.195 62.7626 329.506 96.9575 265.015C131.152 200.526 32.7174 117.299 128.041 35.592C182.951 -11.4721 332.369 -28.4883 444.978 99.7809C540.201 208.247 504.156 386.499 437.176 437.059C220.226 437.059 99.3147 437.059 99.3147 437.059Z"
              fill="#EDF7FF"
            />
            <path
              d="M425.965 440.832C418.846 434.816 414.521 425.313 415.655 416.061C416.79 406.81 423.814 398.305 432.925 396.34C442.036 394.375 452.423 399.814 455.19 408.714C456.713 391.554 458.468 373.676 467.592 359.063C475.852 345.831 490.16 336.363 505.667 334.669C521.174 332.975 537.5 339.372 547.171 351.612C556.842 363.851 559.21 381.644 552.437 395.696C547.447 406.047 538.254 413.75 528.623 420.018C497.5 440.099 460.172 448.265 423.506 443.014L425.965 440.832Z"
              fill="#82B378"
            />
            <path
              opacity="0.5"
              d="M531.837 339.728C519.042 350.149 507.304 361.805 496.793 374.526C480.343 394.367 467.031 416.612 457.322 440.486C456.611 442.228 459.439 442.986 460.142 441.264C476.028 402.463 501.389 368.264 533.905 341.796C535.365 340.607 533.285 338.548 531.837 339.728Z"
              fill="#DEF2D9"
            />
            <path
              d="M210.903 84.6627C215.182 72.1383 211.788 63.2188 201.335 63.2188C194.782 63.2188 186.655 66.731 178.737 72.4415C177.844 69.182 175.326 67.2279 171.275 67.2279C164.141 67.2279 154.312 73.2585 146.605 81.7738C144.735 79.8787 142.04 78.7164 138.57 78.5311C131.747 78.1436 123.476 81.6138 116.292 87.2485C115.669 86.3052 114.599 85.7156 113.125 85.6229C109.192 85.4039 103.869 88.8993 101.224 93.4307C101.055 93.7171 100.912 93.9866 100.769 94.2645H108.939H115.441H138.014H149.123H157.765H171.073H173.49H206.473H212.975C213.312 90.3228 212.613 87.0211 210.903 84.6627Z"
              fill="white"
            />
            <path
              d="M514.406 137.573C513.977 137.514 513.547 137.481 513.109 137.481C513.514 131.366 511.18 127.466 506.186 127.466C502.589 127.466 498.168 129.504 493.661 132.949C494.95 121.09 490.823 113.375 481.482 113.375C473.944 113.375 464.401 118.386 454.976 126.573C454.151 121.916 451.371 119.128 446.705 119.128C438.51 119.128 426.862 127.744 417.521 139.906C417.521 139.906 417.521 139.923 417.512 139.906C415.491 137.194 412.467 135.518 408.475 135.249C400.667 134.701 390.981 139.654 382.39 147.722C381.733 146.358 380.546 145.516 378.844 145.406C374.574 145.111 368.695 149.559 365.275 155.513H375.231H381.977H407.936H420.09H430.913H446.284H475.334H486.654H490.68H506.792H521.254C524.935 146.493 522.02 138.592 514.406 137.573Z"
              fill="white"
            />
            <path
              d="M244.352 431.406C254.13 423.143 260.07 410.091 258.512 397.384C256.955 384.677 247.307 372.995 234.792 370.297C222.278 367.598 208.012 375.068 204.211 387.293C202.119 363.724 199.709 339.167 187.178 319.096C175.832 300.922 156.18 287.918 134.881 285.592C113.583 283.265 91.1587 292.052 77.8757 308.862C64.5927 325.673 61.3404 350.112 70.6435 369.412C77.4967 383.629 90.1228 394.21 103.352 402.818C145.557 430.281 197.912 441.734 247.729 434.403"
              fill="#BDE5B3"
            />
            <path
              d="M179.224 439.197C189.002 430.935 194.942 417.882 193.384 405.175C191.827 392.468 182.179 380.786 169.665 378.088C157.15 375.389 142.884 382.859 139.083 395.084C136.991 371.515 134.581 346.958 122.05 326.887C110.704 308.713 91.0518 295.709 69.7535 293.383C48.4551 291.056 26.0307 299.843 12.7478 316.653C-0.535239 333.464 -3.78752 357.903 5.51554 377.203C12.3688 391.42 24.9949 402.001 38.2238 410.609C80.4289 438.072 132.784 449.525 182.601 442.194"
              fill="#A8D29F"
            />
            <path
              opacity="0.5"
              d="M33.8091 300.33C51.3829 314.644 67.5049 330.653 81.9421 348.126C96.3816 365.581 109.094 384.395 119.901 404.304C125.941 415.473 131.368 426.962 136.155 438.722C137.132 441.114 133.247 442.156 132.282 439.79C123.801 419.057 113.309 399.206 100.956 380.52C88.6629 361.902 74.5928 344.521 58.9433 328.62C50.0919 319.63 40.7529 311.134 30.9686 303.171C28.9631 301.537 31.8202 298.71 33.8091 300.33Z"
              fill="#DEF2D9"
            />
            <path
              d="M399.38 443.864H166.078V204.489C166.078 153.56 207.511 112.127 258.44 112.127H307.018C357.946 112.127 399.38 153.56 399.38 204.489V443.864Z"
              fill="#AFCDFB"
            />
            <path
              d="M350.802 443.863H166.078V204.489C166.027 184.974 172.206 165.952 183.717 150.193C184.141 149.615 184.564 149.044 185.001 148.48C190.568 141.178 197.194 134.747 204.658 129.4C205.08 129.093 205.503 128.791 205.933 128.49C212.179 124.167 218.936 120.634 226.049 117.97C226.472 117.809 226.902 117.649 227.332 117.495C233.765 115.199 240.435 113.627 247.216 112.806C247.636 112.749 248.068 112.704 248.5 112.659C255.108 111.952 261.773 111.952 268.382 112.659C268.812 112.704 269.244 112.749 269.669 112.807C276.449 113.627 283.116 115.2 289.548 117.495C289.978 117.649 290.408 117.809 290.832 117.97C297.858 120.601 304.535 124.081 310.715 128.335C311.144 128.63 311.574 128.931 311.997 129.233C316.181 132.219 320.112 135.547 323.748 139.181C326.664 142.096 329.381 145.203 331.881 148.482C332.316 149.044 332.739 149.615 333.163 150.193C344.673 165.952 350.853 184.973 350.802 204.489V443.863Z"
              fill="#CDE0FB"
            />
            <path
              d="M335.781 331.931C338.74 331.931 341.138 329.533 341.138 326.574C341.138 323.615 338.74 321.217 335.781 321.217C332.822 321.217 330.424 323.615 330.424 326.574C330.424 329.533 332.822 331.931 335.781 331.931Z"
              fill="#77A4E5"
            />
            <path
              d="M379.944 435.727H371.067L366.843 401.486L379.946 401.487L379.944 435.727Z"
              fill="#B78876"
            />
            <path
              d="M364.726 433.191H381.846V443.971H353.947C353.947 442.555 354.226 441.154 354.767 439.846C355.309 438.538 356.103 437.35 357.104 436.349C358.105 435.348 359.293 434.554 360.601 434.012C361.909 433.47 363.311 433.191 364.726 433.191Z"
              fill="#355389"
            />
            <path
              d="M424.114 435.727H415.236L411.013 401.486L424.115 401.487L424.114 435.727Z"
              fill="#B78876"
            />
            <path
              d="M387.574 197.179L401.173 195.748L402.885 217.606H384.45L387.574 197.179Z"
              fill="#B78876"
            />
            <path
              d="M408.896 433.191H426.016V443.971H398.116C398.116 442.555 398.395 441.154 398.937 439.846C399.478 438.538 400.272 437.35 401.273 436.349C402.274 435.348 403.463 434.554 404.771 434.012C406.078 433.47 407.48 433.191 408.896 433.191Z"
              fill="#355389"
            />
            <path
              d="M400.059 200.007C397.456 204.117 388.653 208.191 385.827 208.563L386.896 201.57L388.499 194.548C392.781 194.406 402.662 195.896 400.059 200.007Z"
              fill="#AF6F57"
            />
            <path
              d="M372.283 188.393C373.326 188.021 374.589 185.242 375.081 183.061C376.72 184.253 375.92 187.938 375.485 188.9C375.485 189.583 375.336 190.931 374.74 190.856C373.995 190.763 370.979 188.859 372.283 188.393Z"
              fill="#AF6F57"
            />
            <path
              d="M419.579 328.904C418.593 328.338 417.742 327.563 417.087 326.633C416.433 325.703 415.99 324.641 415.79 323.522C415.591 322.402 415.639 321.252 415.931 320.153C416.224 319.055 416.754 318.033 417.484 317.161L408.136 229.178L425.034 229.95L428.92 316.493C430.303 317.817 431.153 319.602 431.308 321.51C431.463 323.419 430.913 325.317 429.762 326.847C428.61 328.377 426.938 329.431 425.061 329.81C423.184 330.189 421.234 329.867 419.579 328.904Z"
              fill="#B78876"
            />
            <path
              d="M407.063 264.136L405.611 230.87C404.511 224.617 408.091 218.706 413.596 217.739C419.103 216.777 424.48 221.114 425.586 227.413L431.04 258.496L407.063 264.136Z"
              fill="#DEAF5B"
            />
            <path
              d="M335.412 313.274C334.774 312.333 334.349 311.264 334.169 310.141C333.988 309.018 334.056 307.87 334.367 306.776C334.678 305.682 335.226 304.67 335.971 303.811C336.716 302.952 337.64 302.266 338.678 301.803L368.855 218.629L383.704 226.732L349.249 306.216C349.912 308.012 349.893 309.989 349.195 311.772C348.498 313.556 347.171 315.021 345.466 315.891C343.76 316.761 341.795 316.975 339.942 316.493C338.089 316.011 336.477 314.866 335.412 313.274Z"
              fill="#B78876"
            />
            <path
              d="M417.682 304.91C426.309 337.767 427.25 379.542 424.923 425.109L413.337 423.661L392.339 336.77L380.753 425.109L367.72 424.385C363.826 376.573 360.035 335.528 366.272 308.531L417.682 304.91Z"
              fill="#263238"
            />
            <path
              d="M385.717 204.342C395.539 204.342 410.405 195.261 410.405 185.439C410.405 175.617 402.443 167.654 392.621 167.654C382.799 167.654 374.836 175.617 374.836 185.439C374.836 195.261 375.895 204.342 385.717 204.342Z"
              fill="#B78876"
            />
            <path
              d="M419.466 308.892H365.849L365.914 308.475C366.01 307.852 375.469 245.886 368.493 225.613C367.793 223.621 367.854 221.44 368.666 219.491C369.477 217.541 370.981 215.961 372.887 215.054H372.888C382.86 210.358 402.001 204.575 418.158 218.608C420.535 220.707 422.392 223.331 423.58 226.271C424.769 229.211 425.258 232.388 425.007 235.549L419.466 308.892Z"
              fill="#F7CC7F"
            />
            <path
              d="M368.262 262.267L357.056 250.8L358.569 248.422L374.133 251.881L368.262 262.267Z"
              fill="#AF6F57"
            />
            <path
              d="M376.985 255.044L352.846 250.147L364.161 223.334C364.838 220.737 366.518 218.515 368.831 217.154C371.145 215.794 373.903 215.407 376.502 216.078C379.1 216.748 381.327 218.423 382.693 220.733C384.059 223.043 384.452 225.801 383.788 228.401L376.985 255.044Z"
              fill="#DEAF5B"
            />
            <path
              d="M404.339 199.183C401.021 202.718 394.86 200.82 394.427 195.992C394.393 195.617 394.396 195.24 394.435 194.866C394.658 192.727 395.893 190.785 395.597 188.527C395.53 187.965 395.321 187.43 394.989 186.971C392.345 183.431 386.139 188.555 383.644 185.35C382.114 183.385 383.912 180.291 382.738 178.094C381.189 175.195 377.393 176.618 373.462 172.066C369.53 166.273 369.078 159.537 371.186 156.548C373.756 152.904 374.693 160.107 384.348 159.499C388.799 159.219 393.22 160.422 397.376 162.042C402.098 163.882 406.78 166.425 409.686 170.577C413.219 175.626 413.56 182.414 411.792 188.318C410.717 191.91 407.048 196.297 404.339 199.183Z"
              fill="#2F2E41"
            />
            <path
              d="M537.112 444.276H65.2066C65.0051 444.275 64.8121 444.195 64.6699 444.052C64.5276 443.91 64.4478 443.716 64.4478 443.515C64.4478 443.313 64.5276 443.12 64.6699 442.978C64.8121 442.835 65.0051 442.754 65.2066 442.754H537.112C537.314 442.754 537.507 442.835 537.649 442.978C537.791 443.12 537.871 443.313 537.871 443.515C537.871 443.716 537.791 443.91 537.649 444.052C537.507 444.195 537.314 444.275 537.112 444.276Z"
              fill="#3F3D56"
            />
            <path
              d="M299.987 374.513H216.893C215.799 374.519 214.747 374.09 213.968 373.321C213.189 372.553 212.747 371.507 212.738 370.412V184.94C212.747 183.846 213.189 182.8 213.968 182.031C214.747 181.262 215.799 180.834 216.893 180.84H299.987C301.081 180.834 302.133 181.262 302.912 182.031C303.691 182.8 304.133 183.846 304.142 184.94V370.412C304.133 371.507 303.691 372.553 302.912 373.321C302.133 374.09 301.081 374.519 299.987 374.513Z"
              fill="#B2CFFB"
            />
            <path
              d="M304.142 240.852H212.738V242.13H304.142V240.852Z"
              fill="white"
            />
            <path
              d="M304.461 313.789H213.058V315.067H304.461V313.789Z"
              fill="white"
            />
            <path
              d="M242.78 180.84H241.501V375.152H242.78V180.84Z"
              fill="white"
            />
            <path
              d="M274.739 180.84H273.461V375.152H274.739V180.84Z"
              fill="white"
            />
            <ellipse
              cx="375.757"
              cy="182.687"
              rx="0.920578"
              ry="1.38474"
              fill="#2F2E41"
            />
            <path
              d="M378.703 181.268C377.743 180.349 377.701 180.516 376.406 179.431C375.112 178.345 376.991 177.802 378.912 179.973C380.833 182.145 379.664 182.187 378.703 181.268Z"
              fill="#2F2E41"
            />
          </svg>