 <svg width="232" height="68" viewBox="0 0 232 68" fill="none" xmlns="http://www.w3.org/2000/svg">
                            <rect x="1.64844" y="2.04883" width="228.215" height="57.6318" stroke="#02917D" strokeWidth="3" />
                            <rect x="44.8086" y="51.7129" width="141.899" height="15.4017" fill="white" />
                            <path d="M58.5321 56.0917C57.7801 56.0997 57.2201 56.3797 56.9241 57.0117V54.2917H56.1721V60.3477H56.9241V58.2677C56.9241 57.4197 57.4201 56.8117 58.2521 56.7957C58.9561 56.7957 59.3801 57.2197 59.3801 57.9317V60.3477H60.1321V57.7317C60.1321 56.7157 59.5321 56.0917 58.5321 56.0917ZM67.14 56.1157V58.4757C67.052 59.1717 66.628 59.6517 65.988 59.6757C65.364 59.6757 65.068 59.2517 65.068 58.5317V56.1157H64.324V58.2037C64.324 59.0437 63.892 59.6517 63.164 59.6757C62.548 59.6757 62.244 59.2517 62.244 58.5317V56.1157H61.5V58.7317C61.5 59.7557 62.02 60.3717 62.908 60.3717C63.62 60.3637 64.148 60.0357 64.388 59.2997C64.548 59.9797 65.02 60.3717 65.732 60.3717C66.38 60.3637 66.876 60.0997 67.14 59.4917V60.3477H67.884V56.1157H67.14ZM72.6307 56.1157V58.1957C72.6307 59.0357 72.1507 59.6517 71.3427 59.6677C70.6627 59.6677 70.2467 59.2437 70.2467 58.5317V54.2917H68.2947V54.8677H69.4947V58.7317C69.4947 59.7557 70.0867 60.3717 71.0707 60.3717C71.7987 60.3637 72.3427 60.0837 72.6307 59.4517V60.3477H73.3827V56.1157H72.6307ZM80.1435 59.7717H78.9435V56.1157H78.1915V56.9477C77.8795 56.3957 77.3275 56.0837 76.5995 56.0837C75.4075 56.0837 74.5755 56.9557 74.5755 58.2197C74.5755 59.4997 75.3995 60.3877 76.6155 60.3877C77.3355 60.3877 77.8795 60.0757 78.1915 59.5237V62.0357H78.9435V60.3477H80.1435V59.7717ZM76.7595 59.7477C75.9195 59.7477 75.3355 59.1237 75.3275 58.2437C75.3355 57.3637 75.9275 56.7317 76.7595 56.7317C77.5995 56.7317 78.1915 57.3557 78.1915 58.2437C78.1915 59.1237 77.5995 59.7477 76.7595 59.7477ZM83.8993 56.1157V58.1957C83.8993 59.0357 83.4193 59.6517 82.6113 59.6677C81.9313 59.6677 81.5153 59.2437 81.5153 58.5317V56.1157H80.7713V58.7317C80.7713 59.7557 81.3553 60.3717 82.3393 60.3717C83.0673 60.3637 83.6113 60.0837 83.8993 59.4517V60.3477H84.6513V56.1157H83.8993ZM91.0369 56.0917C90.4129 56.0997 89.9329 56.3397 89.6609 56.8837V56.1157H88.9169V58.5317C88.8209 59.1957 88.4129 59.6517 87.7809 59.6757C87.1649 59.6757 86.8609 59.2517 86.8609 58.5317V56.1157H86.1169V58.7317C86.1169 59.7557 86.6369 60.3717 87.5249 60.3717C88.1649 60.3637 88.6529 60.0997 88.9169 59.5157V60.3477H89.6609V57.7717C89.8049 57.1957 90.2049 56.8037 90.7729 56.7877C91.3969 56.7877 91.6929 57.2117 91.6929 57.9317V60.3477H92.4369V57.7317C92.4369 56.7157 91.9169 56.0917 91.0369 56.0917ZM96.2541 56.0917C95.5101 56.0997 94.9501 56.3717 94.6541 56.9957V54.2917H93.9021V62.0357H94.6541V58.0837C94.7181 57.3317 95.2061 56.8117 95.9741 56.7957C96.6781 56.7957 97.1021 57.2197 97.1021 57.9317V60.3477H97.8541V57.7317C97.8541 56.7157 97.2541 56.0917 96.2541 56.0917ZM106.469 60.8437H102.701V59.5157C103.013 60.0597 103.565 60.3717 104.285 60.3717C105.485 60.3717 106.293 59.4997 106.293 58.2437C106.293 56.9717 105.469 56.0917 104.269 56.0917C103.565 56.0917 103.013 56.4037 102.701 56.9557V56.1157H101.949V60.8437H101.325V61.4117H101.949V62.0357H102.701V61.4117H106.469V60.8437ZM104.117 56.7237C104.949 56.7237 105.541 57.3557 105.541 58.2197C105.541 59.0997 104.949 59.7237 104.117 59.7237C103.293 59.7237 102.701 59.1077 102.701 58.2197C102.701 57.3557 103.293 56.7237 104.117 56.7237ZM109.986 56.0917C109.242 56.0997 108.682 56.3717 108.386 56.9957V56.1157H107.634V60.3477H108.386V58.0837C108.45 57.3317 108.938 56.8117 109.706 56.7957C110.41 56.7957 110.834 57.2197 110.834 57.9317V60.3477H111.586V57.7317C111.586 56.7157 110.986 56.0917 109.986 56.0917ZM118.561 56.1157V58.1957C118.561 59.0357 118.081 59.6517 117.273 59.6677C116.593 59.6677 116.177 59.2437 116.177 58.5317V54.2917H115.433V58.7317C115.433 59.7557 116.017 60.3717 117.001 60.3717C117.729 60.3637 118.273 60.0837 118.561 59.4517V62.0357H119.313V56.1157H118.561ZM123.218 56.0917C122.474 56.0997 121.914 56.3717 121.618 56.9957V56.1157H120.866V60.3477H121.618V58.0837C121.682 57.3317 122.17 56.8117 122.938 56.7957C123.642 56.7957 124.066 57.2197 124.066 57.9317V60.3477H124.818V57.7317C124.818 56.7157 124.218 56.0917 123.218 56.0917ZM130.227 61.4597V57.7317C130.227 56.7157 129.627 56.0917 128.627 56.0917C127.883 56.0997 127.323 56.3717 127.027 56.9957V56.1157H126.275V60.3477H127.027V58.0837C127.091 57.3317 127.579 56.8117 128.347 56.7957C129.051 56.7957 129.475 57.2197 129.475 57.9317V62.0357H131.427V61.4597H130.227ZM140.307 56.0997V58.1717C140.307 59.0117 139.827 59.6277 139.011 59.6437C138.331 59.6677 137.923 59.2197 137.923 58.5157V54.4757C137.315 54.6277 136.323 54.5317 135.811 54.3477C134.155 53.7637 133.195 54.8837 133.947 55.7477C134.579 56.3717 135.027 56.8277 135.027 57.6757V58.1717C135.027 59.0117 134.547 59.6277 133.739 59.6437C133.059 59.6677 132.643 59.2197 132.643 58.5157V56.0997H131.899V58.7157C131.899 59.7317 132.483 60.3557 133.467 60.3557C134.195 60.3557 134.739 60.0677 135.027 59.4357V60.3237H135.779V57.6837C135.779 56.8437 135.611 56.3317 134.955 55.8357C134.067 55.1157 134.419 54.4997 135.691 54.9237C136.011 55.0357 136.643 55.1877 137.171 55.1397V58.7157C137.171 59.7317 137.755 60.3557 138.739 60.3557C139.475 60.3557 140.027 60.0597 140.307 59.4117V60.3237H141.051V56.0997H140.307ZM148.158 56.1157V58.4757C148.07 59.1717 147.646 59.6517 147.006 59.6757C146.382 59.6757 146.086 59.2517 146.086 58.5317V56.1157H145.342V58.2037C145.342 59.0437 144.91 59.6517 144.182 59.6757C143.566 59.6757 143.262 59.2517 143.262 58.5317V56.1157H142.518V58.7317C142.518 59.7557 143.038 60.3717 143.926 60.3717C144.638 60.3637 145.166 60.0357 145.406 59.2997C145.566 59.9797 146.038 60.3717 146.75 60.3717C147.398 60.3637 147.894 60.0997 148.158 59.4917V60.3477H148.902V56.1157H148.158ZM153.508 56.1157V56.9077C153.212 56.3877 152.684 56.0837 151.988 56.0917C150.868 56.0997 150.092 56.9237 150.092 58.1077C150.092 59.3157 150.876 60.1557 152.012 60.1557C152.692 60.1557 153.212 59.8597 153.508 59.3397V60.1077C153.508 60.9397 152.94 61.4597 152.068 61.4597C151.524 61.4597 151.092 61.2837 150.684 60.9557L150.356 61.4997C150.86 61.8757 151.436 62.0917 152.1 62.0917C153.404 62.0917 154.252 61.3157 154.252 60.0837V56.1157H153.508ZM152.156 59.5557C151.356 59.5557 150.804 58.9637 150.796 58.1317C150.804 57.2997 151.364 56.6997 152.156 56.6997C152.948 56.6997 153.508 57.2917 153.508 58.1317C153.508 58.9637 152.948 59.5557 152.156 59.5557ZM158.126 56.0917C157.382 56.0997 156.822 56.3717 156.526 56.9957V56.1157H155.774V60.3477H156.526V58.0837C156.59 57.3317 157.078 56.8117 157.846 56.7957C158.55 56.7957 158.974 57.2197 158.974 57.9317V60.3477H159.726V57.7317C159.726 56.7157 159.126 56.0917 158.126 56.0917ZM161.414 59.7717V56.1157H160.662V60.3477H162.614V59.7717H161.414ZM163.553 61.5477C164.825 61.0357 163.761 59.7237 163.761 58.3477V56.1157H164.513V58.4357C164.545 59.7157 165.897 61.6677 163.553 62.0917V61.5477ZM169.297 56.1157V56.9077C169.001 56.3877 168.473 56.0837 167.777 56.0917C166.657 56.0997 165.881 56.9237 165.881 58.1077C165.881 59.3157 166.665 60.1557 167.801 60.1557C168.481 60.1557 169.001 59.8597 169.297 59.3397V60.1077C169.297 60.9397 168.729 61.4597 167.857 61.4597C167.313 61.4597 166.881 61.2837 166.473 60.9557L166.145 61.4997C166.649 61.8757 167.225 62.0917 167.889 62.0917C169.193 62.0917 170.041 61.3157 170.041 60.0837V56.1157H169.297ZM167.945 59.5557C167.145 59.5557 166.593 58.9637 166.585 58.1317C166.593 57.2997 167.153 56.6997 167.945 56.6997C168.737 56.6997 169.297 57.2917 169.297 58.1317C169.297 58.9637 168.737 59.5557 167.945 59.5557ZM172.315 61.4757V58.0837C172.379 57.3317 172.867 56.8117 173.635 56.7957C174.339 56.7957 174.763 57.2197 174.763 57.9317V60.3477H175.515V57.7317C175.515 56.7157 174.915 56.0917 173.915 56.0917C173.171 56.0997 172.611 56.3717 172.315 56.9957V56.1157H171.563V62.0517H175.715V61.4757H172.315Z" fill="#02917D" />
                            <path d="M22.0935 37.4473L20.0535 33.5673H19.9735H17.3335V37.4473H13.6735V23.4273H19.9735C21.8268 23.4273 23.2602 23.8606 24.2735 24.7273C25.3002 25.5806 25.8135 26.7873 25.8135 28.3473C25.8135 29.4006 25.6002 30.3139 25.1735 31.0873C24.7468 31.8473 24.1268 32.4406 23.3135 32.8673L26.2335 37.4473H22.0935ZM17.3335 30.6473H19.9935C20.7402 30.6473 21.3135 30.4606 21.7135 30.0873C22.1268 29.7139 22.3335 29.1739 22.3335 28.4673C22.3335 27.7873 22.1268 27.2673 21.7135 26.9073C21.3135 26.5339 20.7402 26.3473 19.9935 26.3473H17.3335V30.6473ZM27.5462 23.4273H38.6062V26.3473H31.2062V28.9673H37.8862V31.8673L31.2062 31.8873V34.5273H38.8062V37.4473H27.5462V23.4273ZM50.1023 27.6473C49.3556 27.2073 48.5556 26.8473 47.7023 26.5673C46.8623 26.2873 46.1556 26.1473 45.5823 26.1473C45.1289 26.1473 44.7689 26.2339 44.5023 26.4073C44.2489 26.5673 44.1223 26.8073 44.1223 27.1273C44.1223 27.4339 44.2356 27.6939 44.4623 27.9073C44.6889 28.1073 44.9689 28.2739 45.3023 28.4073C45.6356 28.5273 46.1289 28.6873 46.7823 28.8873C47.7556 29.1673 48.5556 29.4473 49.1823 29.7273C49.8223 30.0073 50.3689 30.4406 50.8223 31.0273C51.2756 31.6006 51.5023 32.3539 51.5023 33.2873C51.5023 34.2206 51.2556 35.0206 50.7623 35.6873C50.2689 36.3406 49.5889 36.8339 48.7223 37.1673C47.8689 37.5006 46.9156 37.6673 45.8623 37.6673C44.7023 37.6673 43.5423 37.4673 42.3823 37.0673C41.2356 36.6539 40.2423 36.0939 39.4023 35.3873L40.8223 32.5273C41.5289 33.1539 42.3623 33.6673 43.3223 34.0673C44.2956 34.4673 45.1556 34.6673 45.9023 34.6673C46.4489 34.6673 46.8756 34.5673 47.1823 34.3673C47.5023 34.1673 47.6623 33.8739 47.6623 33.4873C47.6623 33.1673 47.5423 32.9006 47.3023 32.6873C47.0756 32.4739 46.7823 32.3073 46.4223 32.1873C46.0756 32.0539 45.5823 31.9006 44.9423 31.7273C43.9823 31.4606 43.1889 31.1939 42.5623 30.9273C41.9356 30.6473 41.3956 30.2339 40.9423 29.6873C40.5023 29.1273 40.2823 28.3873 40.2823 27.4673C40.2823 26.6006 40.5089 25.8406 40.9623 25.1873C41.4289 24.5339 42.0823 24.0339 42.9223 23.6873C43.7756 23.3273 44.7623 23.1473 45.8823 23.1473C46.8956 23.1473 47.8956 23.2939 48.8823 23.5873C49.8689 23.8673 50.7356 24.2473 51.4823 24.7273L50.1023 27.6473ZM51.5519 23.4273H63.5719V26.4473H59.3719V37.4473H55.7119V26.4473H51.5519V23.4273ZM78.4307 28.1873C77.9774 27.6139 77.4374 27.1606 76.8107 26.8273C76.184 26.4806 75.564 26.3073 74.9507 26.3073C74.244 26.3073 73.5974 26.4873 73.0107 26.8473C72.4374 27.1939 71.984 27.6806 71.6507 28.3073C71.3174 28.9206 71.1507 29.6073 71.1507 30.3673C71.1507 31.1273 71.3174 31.8206 71.6507 32.4473C71.984 33.0606 72.4374 33.5473 73.0107 33.9073C73.5974 34.2539 74.244 34.4273 74.9507 34.4273C75.524 34.4273 76.124 34.2806 76.7507 33.9873C77.3774 33.6939 77.9374 33.2939 78.4307 32.7873L80.5707 35.0873C79.8107 35.8873 78.904 36.5273 77.8507 37.0073C76.8107 37.4739 75.7774 37.7073 74.7507 37.7073C73.364 37.7073 72.1107 37.3873 70.9907 36.7473C69.8707 36.1073 68.9907 35.2339 68.3507 34.1273C67.7107 33.0206 67.3907 31.7806 67.3907 30.4073C67.3907 29.0473 67.7174 27.8206 68.3707 26.7273C69.024 25.6339 69.9174 24.7739 71.0507 24.1473C72.1974 23.5206 73.4774 23.2073 74.8907 23.2073C75.9307 23.2073 76.9574 23.4273 77.9707 23.8673C78.984 24.2939 79.844 24.8806 80.5507 25.6273L78.4307 28.1873ZM100.706 23.4273H104.686L108.746 31.6273L112.786 23.4273H116.766V37.4473H113.526L113.506 28.5673L109.926 36.0473H107.566L103.966 28.5673V37.4473H100.706V23.4273ZM125.055 23.4273C126.842 23.4273 128.229 23.8606 129.215 24.7273C130.202 25.5806 130.695 26.7873 130.695 28.3473C130.695 30.0006 130.202 31.2873 129.215 32.2073C128.229 33.1139 126.842 33.5673 125.055 33.5673H122.555V37.4473H118.895V23.4273H125.055ZM124.875 30.6473C125.622 30.6473 126.195 30.4606 126.595 30.0873C127.009 29.7139 127.215 29.1739 127.215 28.4673C127.215 27.7873 127.009 27.2673 126.595 26.9073C126.195 26.5339 125.622 26.3473 124.875 26.3473H122.555V30.6473H124.875ZM141.134 37.4473L140.174 34.9673H134.114L133.134 37.4473H129.374L135.394 23.4273H139.154L145.034 37.4473H141.134ZM135.214 32.1673H139.094L137.174 27.1673L135.214 32.1673ZM155.305 27.6473C154.558 27.2073 153.758 26.8473 152.905 26.5673C152.065 26.2873 151.358 26.1473 150.785 26.1473C150.331 26.1473 149.971 26.2339 149.705 26.4073C149.451 26.5673 149.325 26.8073 149.325 27.1273C149.325 27.4339 149.438 27.6939 149.665 27.9073C149.891 28.1073 150.171 28.2739 150.505 28.4073C150.838 28.5273 151.331 28.6873 151.985 28.8873C152.958 29.1673 153.758 29.4473 154.385 29.7273C155.025 30.0073 155.571 30.4406 156.025 31.0273C156.478 31.6006 156.705 32.3539 156.705 33.2873C156.705 34.2206 156.458 35.0206 155.965 35.6873C155.471 36.3406 154.791 36.8339 153.925 37.1673C153.071 37.5006 152.118 37.6673 151.065 37.6673C149.905 37.6673 148.745 37.4673 147.585 37.0673C146.438 36.6539 145.445 36.0939 144.605 35.3873L146.025 32.5273C146.731 33.1539 147.565 33.6673 148.525 34.0673C149.498 34.4673 150.358 34.6673 151.105 34.6673C151.651 34.6673 152.078 34.5673 152.385 34.3673C152.705 34.1673 152.865 33.8739 152.865 33.4873C152.865 33.1673 152.745 32.9006 152.505 32.6873C152.278 32.4739 151.985 32.3073 151.625 32.1873C151.278 32.0539 150.785 31.9006 150.145 31.7273C149.185 31.4606 148.391 31.1939 147.765 30.9273C147.138 30.6473 146.598 30.2339 146.145 29.6873C145.705 29.1273 145.485 28.3873 145.485 27.4673C145.485 26.6006 145.711 25.8406 146.165 25.1873C146.631 24.5339 147.285 24.0339 148.125 23.6873C148.978 23.3273 149.965 23.1473 151.085 23.1473C152.098 23.1473 153.098 23.2939 154.085 23.5873C155.071 23.8673 155.938 24.2473 156.685 24.7273L155.305 27.6473ZM167.634 27.6473C166.888 27.2073 166.088 26.8473 165.234 26.5673C164.394 26.2873 163.688 26.1473 163.114 26.1473C162.661 26.1473 162.301 26.2339 162.034 26.4073C161.781 26.5673 161.654 26.8073 161.654 27.1273C161.654 27.4339 161.768 27.6939 161.994 27.9073C162.221 28.1073 162.501 28.2739 162.834 28.4073C163.168 28.5273 163.661 28.6873 164.314 28.8873C165.288 29.1673 166.088 29.4473 166.714 29.7273C167.354 30.0073 167.901 30.4406 168.354 31.0273C168.808 31.6006 169.034 32.3539 169.034 33.2873C169.034 34.2206 168.788 35.0206 168.294 35.6873C167.801 36.3406 167.121 36.8339 166.254 37.1673C165.401 37.5006 164.448 37.6673 163.394 37.6673C162.234 37.6673 161.074 37.4673 159.914 37.0673C158.768 36.6539 157.774 36.0939 156.934 35.3873L158.354 32.5273C159.061 33.1539 159.894 33.6673 160.854 34.0673C161.828 34.4673 162.688 34.6673 163.434 34.6673C163.981 34.6673 164.408 34.5673 164.714 34.3673C165.034 34.1673 165.194 33.8739 165.194 33.4873C165.194 33.1673 165.074 32.9006 164.834 32.6873C164.608 32.4739 164.314 32.3073 163.954 32.1873C163.608 32.0539 163.114 31.9006 162.474 31.7273C161.514 31.4606 160.721 31.1939 160.094 30.9273C159.468 30.6473 158.928 30.2339 158.474 29.6873C158.034 29.1273 157.814 28.3873 157.814 27.4673C157.814 26.6006 158.041 25.8406 158.494 25.1873C158.961 24.5339 159.614 24.0339 160.454 23.6873C161.308 23.3273 162.294 23.1473 163.414 23.1473C164.428 23.1473 165.428 23.2939 166.414 23.5873C167.401 23.8673 168.268 24.2473 169.014 24.7273L167.634 27.6473ZM171.024 35.3273C171.331 35.3273 171.584 35.4339 171.784 35.6473C171.997 35.8606 172.104 36.1339 172.104 36.4673C172.104 36.8006 171.997 37.0806 171.784 37.3073C171.584 37.5206 171.331 37.6273 171.024 37.6273C170.717 37.6273 170.457 37.5206 170.244 37.3073C170.031 37.0806 169.924 36.8006 169.924 36.4673C169.924 36.1339 170.031 35.8606 170.244 35.6473C170.457 35.4339 170.717 35.3273 171.024 35.3273ZM180.627 37.6773C182.973 37.6773 184.767 36.9643 186.055 35.4463L184.169 33.6293C183.226 34.7103 182.076 35.2163 180.719 35.2163C178.166 35.2163 176.326 33.4223 176.326 30.8693C176.326 28.3393 178.166 26.5453 180.719 26.5453C182.076 26.5453 183.226 27.0513 184.169 28.1093L186.055 26.3153C184.79 24.7743 182.996 24.0843 180.627 24.0843C176.487 24.0843 173.405 26.9593 173.405 30.8693C173.405 34.8023 176.487 37.6773 180.627 37.6773ZM193.818 37.6773C198.004 37.6773 201.086 34.7793 201.086 30.8693C201.086 26.9593 198.004 24.0843 193.818 24.0843C189.655 24.0843 186.573 26.9593 186.573 30.8693C186.573 34.7793 189.655 37.6773 193.818 37.6773ZM193.818 35.2163C191.334 35.2163 189.494 33.3993 189.494 30.8693C189.494 28.3623 191.334 26.5453 193.818 26.5453C196.325 26.5453 198.142 28.3623 198.142 30.8693C198.142 33.3993 196.325 35.2163 193.818 35.2163ZM218.197 37.4473L218.174 24.2913H215.69L210.768 32.5253L205.777 24.2913H203.293V37.4473H206.053V29.5583L210.078 35.9753H211.389L215.414 29.3513L215.437 37.4473H218.197Z" fill="#02917D" />
                            <g clipPath="url(#clip0_2400_2)">
                                <path d="M89.8348 29.3872C89.3852 29.8367 89.3852 30.5654 89.8348 31.0147C90.284 31.4643 91.0131 31.4643 91.4623 31.0147C91.9119 30.5651 91.9119 29.8364 91.4623 29.3872C91.0127 28.9379 90.284 28.9379 89.8348 29.3872ZM90.6484 21.2812C85.7219 21.2812 81.7285 25.2747 81.7285 30.2011C81.7285 35.1275 85.7219 39.1209 90.6484 39.1209C95.5748 39.1209 99.5682 35.1275 99.5682 30.2011C99.5682 25.2747 95.5748 21.2812 90.6484 21.2812ZM95.1852 26.6062L92.8125 31.798C92.6977 32.0491 92.4964 32.2505 92.2453 32.3652L87.0538 34.738C86.455 35.0117 85.8378 34.3945 86.1115 33.7956L88.4846 28.6038C88.5993 28.3527 88.8007 28.1514 89.0518 28.0366L94.2433 25.6638C94.8421 25.3905 95.459 26.0073 95.1852 26.6062Z" fill="#02917D" />
                            </g>
                            <defs>
                                <clipPath id="clip0_2400_2">
                                    <rect width="17.8397" height="18.4151" fill="white" transform="translate(81.7285 20.9932)" />
                                </clipPath>
                            </defs>
                        </svg>