<svg width="653" height="507" viewBox="0 0 653 507" fill="none" xmlns="http://www.w3.org/2000/svg">
<path d="M618.14 506.301C618.14 506.49 484.365 506.652 319.394 506.652C154.355 506.652 20.6201 506.49 20.6201 506.301C20.6201 506.111 154.368 505.949 319.394 505.949C484.365 505.949 618.14 506.111 618.14 506.301Z" fill="#263238"/>
<path d="M652.621 427.186H0.620117V427.512H652.621V427.186Z" fill="#E0E0E0"/>
<path d="M493.09 440.994H448.232V441.32H493.09V440.994Z" fill="#E0E0E0"/>
<path d="M145.416 441.15H120.171V441.476H145.416V441.15Z" fill="#E0E0E0"/>
<path d="M327.925 440.395H276.756V440.721H327.925V440.395Z" fill="#E0E0E0"/>
<path d="M275.451 435.752H252.579V436.078H275.451V435.752Z" fill="#E0E0E0"/>
<path d="M554.248 435.91H485.148V436.236H554.248V435.91Z" fill="#E0E0E0"/>
<path d="M309.682 369.027H57.8921C53.7845 369.027 50.4463 365.688 50.4463 361.581V7.63531C50.4463 3.5277 53.7845 0.189453 57.8921 0.189453H309.695C313.803 0.189453 317.141 3.5277 317.141 7.63531V361.581C317.128 365.688 313.79 369.027 309.682 369.027ZM57.8921 0.515454C53.9671 0.515454 50.7723 3.71026 50.7723 7.63531V361.581C50.7723 365.506 53.9671 368.701 57.8921 368.701H309.695C313.62 368.701 316.815 365.506 316.815 361.581V7.63531C316.815 3.71026 313.62 0.515454 309.695 0.515454H57.8921Z" fill="#E0E0E0"/>
<path d="M591.737 369.027H339.934C335.827 369.027 332.488 365.688 332.488 361.581V7.63531C332.488 3.5277 335.827 0.189453 339.934 0.189453H591.737C595.845 0.189453 599.183 3.5277 599.183 7.63531V361.581C599.183 365.688 595.845 369.027 591.737 369.027ZM339.934 0.515454C336.009 0.515454 332.814 3.71026 332.814 7.63531V361.581C332.814 365.506 336.009 368.701 339.934 368.701H591.737C595.662 368.701 598.857 365.506 598.857 361.581V7.63531C598.857 3.71026 595.662 0.515454 591.737 0.515454H339.934Z" fill="#E0E0E0"/>
<path d="M573.482 263.964C557.43 239.54 572.087 213.29 569.648 186.128C567.21 158.965 541.39 153.032 546.28 130.003C551.94 103.311 536.866 77.6738 519.77 77.6738C502.675 77.6738 487.587 103.311 493.26 130.003C498.15 153.032 472.33 158.965 469.892 186.128C467.454 213.29 482.097 239.553 466.058 263.964C450.006 288.388 454.218 320.727 463.268 336.779C465.758 341.2 468.692 345.112 471.887 348.58C497.55 376.369 542.003 376.369 567.666 348.58C570.861 345.112 573.795 341.2 576.286 336.779C585.322 320.727 589.534 288.375 573.482 263.964Z" fill="#E0E0E0"/>
<path d="M527.868 427.186H511.646V290.605C511.646 286.145 515.298 282.494 519.757 282.494C524.217 282.494 527.868 286.145 527.868 290.605V427.186V427.186Z" fill="#F0F0F0"/>
<path d="M417.784 427.185H395.694V290.617C395.694 284.541 400.663 279.572 406.739 279.572C412.816 279.572 417.784 284.541 417.784 290.617V427.185V427.185Z" fill="#E0E0E0"/>
<path d="M406.739 390.347C444.311 390.347 474.769 359.889 474.769 322.317C474.769 284.745 444.311 254.287 406.739 254.287C369.167 254.287 338.709 284.745 338.709 322.317C338.709 359.889 369.167 390.347 406.739 390.347Z" fill="#F0F0F0"/>
<path d="M486.679 301.914C490.249 287.544 481.494 273.001 467.124 269.431C452.754 265.861 438.211 274.616 434.641 288.986C431.071 303.357 439.826 317.9 454.196 321.47C468.566 325.04 483.11 316.285 486.679 301.914Z" fill="#F0F0F0"/>
<path d="M367.395 282.128C368.805 273.477 362.934 265.322 354.284 263.913C345.633 262.503 337.478 268.373 336.068 277.024C334.659 285.675 340.529 293.83 349.18 295.239C357.831 296.649 365.986 290.778 367.395 282.128Z" fill="#F0F0F0"/>
<path d="M368.975 282.493C375.125 282.493 380.111 277.507 380.111 271.357C380.111 265.207 375.125 260.221 368.975 260.221C362.825 260.221 357.839 265.207 357.839 271.357C357.839 277.507 362.825 282.493 368.975 282.493Z" fill="#F0F0F0"/>
<path d="M266.597 345.673C255.265 347.355 245.459 351.463 236.97 356.979C236.892 346.664 235.001 336.858 230.15 328.943C222.77 336.141 216.784 345.451 211.947 355.453C210.134 336.636 205.192 318.393 194.251 306.879C177.86 317.194 169.41 334.38 165.394 352.584C158.861 340.913 149.85 330.155 137.41 322.331C127.382 332.894 124.174 347.499 124.448 362.469C113.051 349.207 100.402 338.84 88.0663 337.627C85.028 358.635 91.4958 378.456 99.711 394.078C110.495 414.563 131.946 427.199 155.092 427.199H208.673C231.507 427.199 252.918 415.02 263.624 394.847C270.405 382.068 273.639 365.611 266.597 345.673Z" fill="#E0E0E0"/>
<path d="M251.328 74.7663C257.952 55.3758 252.697 41.5664 236.514 41.5664C226.369 41.5664 213.786 47.0041 201.528 55.8452C200.146 50.7987 196.247 47.7735 189.974 47.7735C178.93 47.7735 163.712 57.1101 151.78 70.2936C148.885 67.3596 144.713 65.5601 139.34 65.2732C128.778 64.6733 115.972 70.0458 104.849 78.7696C103.884 77.3091 102.228 76.3963 99.9461 76.2529C93.8564 75.9138 85.6151 81.3254 81.5206 88.341C81.2598 88.7843 81.0381 89.2016 80.8164 89.6319H93.4652H103.532H138.479H155.679H169.058H189.661H193.404H244.469H254.536C255.057 83.5292 253.975 78.4175 251.328 74.7663Z" fill="#F0F0F0"/>
<path d="M251.862 192.505C255.096 183.038 252.527 176.283 244.625 176.283C239.67 176.283 233.515 178.943 227.529 183.26C226.851 180.795 224.948 179.322 221.883 179.322C216.485 179.322 209.052 183.886 203.223 190.314C201.815 188.88 199.767 188.006 197.146 187.863C191.982 187.576 185.736 190.197 180.299 194.461C179.829 193.744 179.021 193.3 177.912 193.235C174.939 193.066 170.91 195.713 168.915 199.142C168.784 199.364 168.68 199.56 168.562 199.768H174.743H179.66H196.729H205.127H211.66H221.727H223.552H248.511H253.427C253.688 196.782 253.153 194.291 251.862 192.505Z" fill="#F0F0F0"/>
<path d="M447.593 120.862C446.928 120.771 446.263 120.719 445.585 120.719C446.21 111.252 442.598 105.214 434.866 105.214C429.298 105.214 422.452 108.37 415.475 113.703C417.47 95.3431 411.081 83.3984 396.619 83.3984C384.948 83.3984 370.174 91.1573 355.582 103.832C354.304 96.621 350.001 92.3048 342.777 92.3048C330.089 92.3048 312.055 105.645 297.593 124.475C297.593 124.475 297.593 124.501 297.58 124.475C294.451 120.276 289.769 117.681 283.588 117.263C271.5 116.416 256.504 124.083 243.203 136.576C242.186 134.463 240.348 133.159 237.714 132.99C231.102 132.533 222 139.418 216.706 148.638H232.119H242.564H282.754H301.571H318.327H342.125H387.1H404.626H410.859H435.805H458.194C463.893 134.672 459.381 122.44 447.593 120.862Z" fill="#F0F0F0"/>
<path d="M326.621 486.073C466.257 486.073 579.454 479.465 579.454 471.312C579.454 463.16 466.257 456.551 326.621 456.551C186.985 456.551 73.7881 463.16 73.7881 471.312C73.7881 479.465 186.985 486.073 326.621 486.073Z" fill="#F5F5F5"/>
<path d="M64.334 124.865L361.607 167.65L401.497 207.917L64.334 124.865Z" fill="#00937D"/>
<path opacity="0.6" d="M64.334 124.865L361.607 167.65L401.497 207.917L64.334 124.865Z" fill="white"/>
<path d="M64.334 124.865L361.607 167.65L347.811 225.873L64.334 124.865Z" fill="#00937D"/>
<path opacity="0.2" d="M64.334 124.865L361.607 167.65L347.811 225.873L64.334 124.865Z" fill="black"/>
<path d="M341.708 57.461L358.973 138.348C359.912 142.73 357.082 147.072 352.714 148.011L198.737 180.872C194.356 181.811 190.014 178.994 189.075 174.613L171.81 93.7253C171.327 91.4303 171.862 89.1483 173.114 87.3618C174.261 85.7318 175.996 84.5191 178.082 84.0627L332.059 51.2018C334.145 50.7585 336.231 51.1627 337.94 52.1798C339.791 53.3013 341.213 55.179 341.708 57.461Z" fill="#00937D"/>
<path opacity="0.4" d="M341.708 57.461L358.973 138.348C359.912 142.73 357.082 147.072 352.714 148.011L198.737 180.872C194.356 181.811 190.014 178.994 189.075 174.613L171.81 93.7253C171.327 91.4303 171.862 89.1483 173.114 87.3618C174.261 85.7318 175.996 84.5191 178.082 84.0627L332.059 51.2018C334.145 50.7585 336.231 51.1627 337.94 52.1798C339.791 53.3013 341.213 55.179 341.708 57.461Z" fill="black"/>
<path d="M337.913 52.181L286.471 115.334C276.638 127.396 259.752 130.995 245.851 124.005L173.101 87.3499C174.248 85.7199 175.982 84.5072 178.069 84.0508L332.045 51.19C334.132 50.7596 336.205 51.1639 337.913 52.181Z" fill="#00937D"/>
<path d="M64.334 124.865L309.526 183.128L347.811 225.873L64.334 124.865Z" fill="#00937D"/>
<path opacity="0.6" d="M64.334 124.865L309.526 183.128L347.811 225.873L64.334 124.865Z" fill="white"/>
<path d="M153.763 181.057L153.104 182.182L180.387 198.167L181.046 197.042L153.763 181.057Z" fill="#00937D"/>
<path d="M193.097 204.092L192.438 205.217L202.248 210.965L202.907 209.84L193.097 204.092Z" fill="#00937D"/>
<path d="M64.334 124.865L309.526 183.128L261.864 240.582L64.334 124.865Z" fill="#00937D"/>
<path d="M392.291 261.395C391.978 261.395 391.652 261.33 391.326 261.213L351.385 245.395C350.041 244.86 349.389 243.348 349.924 242.005C350.459 240.662 351.958 240.01 353.314 240.544L393.256 256.362C394.599 256.896 395.251 258.409 394.717 259.752C394.312 260.769 393.334 261.395 392.291 261.395Z" fill="#00937D"/>
<path opacity="0.3" d="M392.291 261.395C391.978 261.395 391.652 261.33 391.326 261.213L351.385 245.395C350.041 244.86 349.389 243.348 349.924 242.005C350.459 240.662 351.958 240.01 353.314 240.544L393.256 256.362C394.599 256.896 395.251 258.409 394.717 259.752C394.312 260.769 393.334 261.395 392.291 261.395Z" fill="black"/>
<path d="M389.931 238.485C389.618 238.485 389.292 238.419 388.966 238.302L367.515 229.813C366.172 229.278 365.52 227.766 366.055 226.423C366.59 225.08 368.089 224.428 369.445 224.962L390.896 233.451C392.239 233.986 392.891 235.498 392.357 236.842C391.952 237.859 390.974 238.485 389.931 238.485Z" fill="#00937D"/>
<path opacity="0.5" d="M389.931 238.485C389.618 238.485 389.292 238.419 388.966 238.302L367.515 229.813C366.172 229.278 365.52 227.766 366.055 226.423C366.59 225.08 368.089 224.428 369.445 224.962L390.896 233.451C392.239 233.986 392.891 235.498 392.357 236.842C391.952 237.859 390.974 238.485 389.931 238.485Z" fill="white"/>
<path d="M345.086 261.004C344.773 261.004 344.447 260.939 344.121 260.821L305.171 245.395C303.828 244.86 303.176 243.348 303.71 242.005C304.245 240.662 305.757 240.01 307.101 240.544L346.051 255.971C347.394 256.505 348.046 258.018 347.512 259.361C347.107 260.378 346.129 261.004 345.086 261.004Z" fill="#00937D"/>
<path opacity="0.3" d="M345.086 261.004C344.773 261.004 344.447 260.939 344.121 260.821L305.171 245.395C303.828 244.86 303.176 243.348 303.71 242.005C304.245 240.662 305.757 240.01 307.101 240.544L346.051 255.971C347.394 256.505 348.046 258.018 347.512 259.361C347.107 260.378 346.129 261.004 345.086 261.004Z" fill="black"/>
<path d="M486.1 143.461C489.555 150.203 492.724 156.957 495.736 163.869C498.723 170.78 501.565 177.782 504.004 185.111L504.89 187.888C505.034 188.384 505.269 189.192 505.399 189.766C505.516 190.366 505.647 190.992 505.725 191.54C506.064 193.808 506.129 195.869 506.168 197.877C506.234 201.893 505.96 205.727 505.621 209.548C504.89 217.163 503.704 224.57 502.074 232.003L494.928 231.207C494.837 223.866 494.771 216.446 494.511 209.209C494.38 205.597 494.172 201.998 493.806 198.594C493.624 196.912 493.35 195.256 493.037 193.874C492.959 193.509 492.868 193.222 492.776 192.922C492.672 192.596 492.633 192.518 492.489 192.139L491.511 189.675C488.786 183.077 485.722 176.426 482.592 169.802L473.125 149.942L486.1 143.461Z" fill="#E4897B"/>
<path d="M495.019 229.002L491.681 235.248L502.347 238.221C502.347 238.221 504.382 233.201 501.956 229.237L495.019 229.002Z" fill="#E4897B"/>
<path d="M487.6 244.246L497.406 245.015L502.348 238.221L491.681 235.248L487.6 244.246Z" fill="#E4897B"/>
<path d="M441.204 98.3929C441.047 99.1492 440.525 99.6839 440.03 99.5795C439.534 99.4752 439.261 98.7841 439.417 98.0278C439.574 97.2715 440.095 96.7368 440.591 96.8411C441.086 96.9455 441.36 97.6366 441.204 98.3929Z" fill="#263238"/>
<path d="M440.603 99.6973C440.603 99.6973 437.995 103.714 435.674 105.435C436.756 106.961 439.155 106.843 439.155 106.843L440.603 99.6973Z" fill="#DE5753"/>
<path d="M444.828 94.7562C444.711 94.7562 444.581 94.7041 444.489 94.6128C443.133 93.1393 441.516 93.387 441.451 93.387C441.216 93.4262 440.969 93.2566 440.929 93.0089C440.89 92.7611 441.06 92.5264 441.295 92.4873C441.386 92.4742 443.446 92.1482 445.154 93.9869C445.324 94.1694 445.311 94.4563 445.128 94.6258C445.05 94.7171 444.946 94.7562 444.828 94.7562Z" fill="#263238"/>
<path d="M462.772 109.047C461.402 116.049 460.02 128.894 464.923 133.575C464.923 133.575 463.006 140.682 449.979 140.682C435.661 140.682 443.133 133.575 443.133 133.575C450.944 131.71 450.749 125.908 449.38 120.47L462.772 109.047Z" fill="#E4897B"/>
<path d="M466.905 137.997C467.935 134.567 469.083 130.629 466.723 129.403C464.128 128.047 449.953 126.665 445.063 129.208C440.173 131.751 441.555 138.714 441.555 138.714L466.905 137.997Z" fill="#263238"/>
<path d="M496.976 463.201C495.998 463.201 495.046 463.045 494.681 462.562C494.524 462.354 494.407 462.015 494.694 461.48C494.85 461.206 495.085 461.024 495.411 460.945C496.819 460.619 499.453 462.432 499.571 462.51C499.649 462.562 499.675 462.654 499.662 462.745C499.649 462.836 499.584 462.901 499.492 462.928C498.984 463.045 497.967 463.201 496.976 463.201ZM495.776 461.376C495.672 461.376 495.58 461.389 495.502 461.402C495.306 461.454 495.176 461.545 495.085 461.702C494.876 462.08 495.007 462.236 495.046 462.289C495.45 462.823 497.419 462.836 498.84 462.588C498.006 462.093 496.65 461.376 495.776 461.376Z" fill="#00937D"/>
<path d="M499.426 462.928C499.387 462.928 499.348 462.915 499.322 462.902C498.331 462.367 496.414 460.268 496.61 459.198C496.649 459.003 496.792 458.664 497.327 458.599C497.666 458.559 498.005 458.651 498.292 458.885C499.4 459.798 499.635 462.563 499.648 462.68C499.648 462.758 499.609 462.85 499.544 462.889C499.518 462.928 499.465 462.928 499.426 462.928ZM497.496 459.055C497.457 459.055 497.431 459.055 497.392 459.055C497.092 459.094 497.066 459.225 497.066 459.29C496.949 459.929 498.161 461.507 499.152 462.25C499.035 461.441 498.735 459.837 498.018 459.251C497.848 459.12 497.679 459.055 497.496 459.055Z" fill="#00937D"/>
<path d="M439.456 463.201C438.23 463.201 437.043 463.031 436.639 462.483C436.496 462.288 436.391 461.962 436.652 461.492C436.809 461.232 437.043 461.049 437.369 460.958C438.96 460.527 442.312 462.431 442.455 462.51C442.533 462.562 442.585 462.653 442.572 462.744C442.559 462.836 442.481 462.914 442.39 462.927C441.777 463.057 440.603 463.201 439.456 463.201ZM437.93 461.336C437.774 461.336 437.617 461.349 437.487 461.388C437.278 461.44 437.135 461.545 437.043 461.701C436.887 461.988 436.939 462.118 437.004 462.197C437.435 462.796 439.86 462.822 441.646 462.575C440.773 462.131 439.052 461.336 437.93 461.336Z" fill="#00937D"/>
<path d="M442.351 462.928C442.325 462.928 442.286 462.928 442.26 462.915C441.099 462.394 438.817 460.32 438.986 459.238C439.026 458.977 439.208 458.664 439.834 458.599C440.304 458.56 440.721 458.677 441.086 458.99C442.299 459.994 442.559 462.576 442.572 462.681C442.586 462.759 442.546 462.837 442.481 462.889C442.442 462.915 442.403 462.928 442.351 462.928ZM440.017 459.055C439.977 459.055 439.925 459.055 439.886 459.055C439.482 459.095 439.456 459.264 439.443 459.316C439.339 459.968 440.89 461.598 442.077 462.302C441.96 461.546 441.608 460.007 440.812 459.342C440.564 459.147 440.303 459.055 440.017 459.055Z" fill="#00937D"/>
<path d="M452.887 462.706H443.303L442.351 440.525H451.935L452.887 462.706Z" fill="#E4897B"/>
<path d="M510.407 462.706H500.823L496.011 440.525H505.582L510.407 462.706Z" fill="#E4897B"/>
<path d="M500.144 461.598H510.902C511.294 461.598 511.633 461.871 511.724 462.25L513.615 470.765C513.81 471.652 513.119 472.486 512.206 472.473C508.451 472.408 506.625 472.186 501.892 472.186C498.984 472.186 492.985 472.486 488.956 472.486C485.018 472.486 484.405 468.509 486.061 468.144C493.442 466.527 496.219 464.297 498.579 462.184C499.01 461.806 499.571 461.598 500.144 461.598Z" fill="#263238"/>
<path d="M443.368 461.598H453.826C454.218 461.598 454.557 461.871 454.648 462.25L456.539 470.765C456.734 471.652 456.069 472.486 455.157 472.473C451.388 472.408 445.924 472.186 441.191 472.186C435.649 472.186 430.85 472.486 424.356 472.486C420.418 472.486 419.336 468.509 420.979 468.144C428.477 466.501 434.592 466.331 441.073 462.341C441.764 461.911 442.547 461.598 443.368 461.598Z" fill="#263238"/>
<path d="M438.739 150.398C430.615 149.759 422.804 148.716 414.863 147.229C410.911 146.473 406.947 145.625 402.996 144.556C399.032 143.5 395.055 142.287 391.051 140.618C390.047 140.201 389.03 139.744 388.026 139.262C386.761 138.636 385.705 137.984 384.779 137.371C382.901 136.132 381.284 134.841 379.681 133.563C376.486 131.007 373.526 128.347 370.592 125.674C364.763 120.275 359.234 114.694 353.9 108.826L358.699 103.467L377.62 117.068C380.737 119.323 383.892 121.514 386.996 123.588C388.535 124.618 390.126 125.583 391.56 126.404C392.29 126.821 392.942 127.121 393.438 127.33C394.207 127.63 395.003 127.93 395.824 128.204C402.448 130.407 409.933 131.829 417.379 133.029C424.825 134.202 432.519 135.18 439.951 135.95L438.739 150.398Z" fill="#E4897B"/>
<path d="M482.084 135.74C491.069 137.8 500.144 164.05 500.144 164.05L481.667 177.312C481.667 177.312 476.503 165.08 471.43 154.387C466.097 143.186 472.904 133.628 482.084 135.74Z" fill="#00937D"/>
<path opacity="0.4" d="M482.084 135.74C491.069 137.8 500.144 164.05 500.144 164.05L481.667 177.312C481.667 177.312 476.503 165.08 471.43 154.387C466.097 143.186 472.904 133.628 482.084 135.74Z" fill="black"/>
<path d="M476.906 150.084L473.242 158.286C477.037 166.475 480.505 174.586 481.431 176.751C481.301 167.062 479.462 155.039 476.906 150.084Z" fill="#00937D"/>
<path opacity="0.6" d="M476.906 150.084L473.242 158.286C477.037 166.475 480.505 174.586 481.431 176.751C481.301 167.062 479.462 155.039 476.906 150.084Z" fill="black"/>
<path d="M428.424 136.236C428.424 136.236 418.226 147.75 427.863 219.04C443.302 219.04 471.586 219.04 479.097 219.04C479.449 211.177 474.507 172.8 482.096 135.74C482.096 135.74 473.307 133.98 464.949 133.576C458.403 133.263 448.923 133.054 443.172 133.576C435.57 134.267 428.424 136.236 428.424 136.236Z" fill="#00937D"/>
<path opacity="0.4" d="M428.424 136.236C428.424 136.236 418.226 147.75 427.863 219.04C443.302 219.04 471.586 219.04 479.097 219.04C479.449 211.177 474.507 172.8 482.096 135.74C482.096 135.74 473.307 133.98 464.949 133.576C458.403 133.263 448.923 133.054 443.172 133.576C435.57 134.267 428.424 136.236 428.424 136.236Z" fill="black"/>
<path d="M424.629 150.084C424.29 152.783 424.029 155.978 423.859 159.747C428.097 158.43 433.366 156.317 438.125 153.044L424.629 150.084Z" fill="#00937D"/>
<path opacity="0.6" d="M424.629 150.084C424.29 152.783 424.029 155.978 423.859 159.747C428.097 158.43 433.366 156.317 438.125 153.044L424.629 150.084Z" fill="black"/>
<path d="M446.55 151.48C439.691 157.556 413.506 156.943 413.506 156.943L412.646 131.633C412.646 131.633 427.485 133.81 439.338 133.563C453.969 133.263 454.074 144.816 446.55 151.48Z" fill="#00937D"/>
<path opacity="0.4" d="M446.55 151.48C439.691 157.556 413.506 156.943 413.506 156.943L412.646 131.633C412.646 131.633 427.485 133.81 439.338 133.563C453.969 133.263 454.074 144.816 446.55 151.48Z" fill="black"/>
<path d="M358.921 103.583L352.349 95.9023L345.333 103.674C345.333 103.674 349.649 110.951 356.534 109.803L358.921 103.583Z" fill="#E4897B"/>
<path d="M343.064 86.9453L340.534 96.9601L345.32 103.676L352.348 95.9038L343.064 86.9453Z" fill="#E4897B"/>
<path d="M442.351 440.525L442.846 451.962H452.431L451.935 440.525H442.351Z" fill="#CE6F64"/>
<path d="M505.595 440.525H496.011L498.488 451.962H508.073L505.595 440.525Z" fill="#CE6F64"/>
<path d="M448.115 88.8745C439.521 84.8973 436.809 67.5671 461.52 71.8573C461.52 71.8573 457.79 75.9909 465.367 78.5989C472.943 81.207 466.605 97.4157 448.115 88.8745Z" fill="#263238"/>
<path d="M466.787 101.928C464.323 111.108 463.358 116.611 457.685 120.432C449.157 126.17 438.543 119.585 438.217 109.857C437.917 101.094 441.998 87.5452 451.843 85.6935C461.558 83.8679 469.252 92.7481 466.787 101.928Z" fill="#E4897B"/>
<path d="M461.193 76.5261C467.048 79.7991 474.976 81.7551 474.181 86.3843C473.203 92.0568 478.98 88.5099 477.637 96.9598C476.763 102.476 466.579 119.193 459.42 118.372C448.649 117.146 450.018 100.702 449.979 92.0568C449.953 86.9711 449.718 70.1104 461.193 76.5261Z" fill="#263238"/>
<path d="M448.689 83.8535C446.081 84.4664 442.625 99.5015 452.731 100.884C464.35 102.462 448.689 83.8535 448.689 83.8535Z" fill="#263238"/>
<path d="M448.949 89.1876C445.754 89.4745 438.543 85.6277 439.404 79.8379C439.404 79.8379 444.007 86.6057 448.949 89.1876Z" fill="#263238"/>
<path d="M453.696 102.085C452.692 104.367 450.801 106.153 448.975 107.118C446.224 108.553 444.672 106.453 445.298 103.702C445.859 101.224 447.971 97.4818 450.801 97.1819C453.579 96.8559 454.83 99.4769 453.696 102.085Z" fill="#E4897B"/>
<path d="M468.04 91.4691C469.97 90.4781 474.377 88.2483 475.59 81.9238C475.577 81.9108 479.88 93.9337 468.04 91.4691Z" fill="#263238"/>
<path d="M478.915 91.3397C477.95 90.779 475.759 89.488 472.669 90.7268C472.682 90.7268 476.698 85.5108 478.915 91.3397Z" fill="#263238"/>
<path d="M446.028 219.027C446.028 219.027 456.904 292.234 462.863 319.67C469.396 349.701 494.016 449.758 494.016 449.758H511.567C511.567 449.758 495.333 352.14 491.603 322.396C487.561 290.122 479.085 219.04 479.085 219.04H446.028V219.027Z" fill="#00937D"/>
<path opacity="0.5" d="M446.028 219.027C446.028 219.027 456.904 292.234 462.863 319.67C469.396 349.701 494.016 449.758 494.016 449.758H511.567C511.567 449.758 495.333 352.14 491.603 322.396C487.561 290.122 479.085 219.04 479.085 219.04H446.028V219.027Z" fill="white"/>
<path d="M491.225 443.289C491.147 443.289 493.038 450.031 493.038 450.031H512.78L512.415 444.019L491.225 443.289Z" fill="#00937D"/>
<path opacity="0.1" d="M491.225 443.289C491.147 443.289 493.038 450.031 493.038 450.031H512.78L512.415 444.019L491.225 443.289Z" fill="black"/>
<path d="M452.9 245.119C465.471 247.584 464.14 294.463 462.628 318.574C459.003 301.531 453.695 268.735 450.07 245.458C450.905 245.041 451.844 244.911 452.9 245.119Z" fill="#00937D"/>
<path opacity="0.4" d="M452.9 245.119C465.471 247.584 464.14 294.463 462.628 318.574C459.003 301.531 453.695 268.735 450.07 245.458C450.905 245.041 451.844 244.911 452.9 245.119Z" fill="white"/>
<path d="M427.851 219.027C427.851 219.027 426.534 290.656 427.577 319.866C428.659 350.249 439.274 449.745 439.274 449.745H455.495C455.495 449.745 456.095 352.023 456.812 322.187C457.595 289.652 461.533 219.027 461.533 219.027H427.851Z" fill="#00937D"/>
<path opacity="0.5" d="M427.851 219.027C427.851 219.027 426.534 290.656 427.577 319.866C428.659 350.249 439.274 449.745 439.274 449.745H455.495C455.495 449.745 456.095 352.023 456.812 322.187C457.595 289.652 461.533 219.027 461.533 219.027H427.851Z" fill="white"/>
<path d="M442.65 438.098C442.572 438.098 442.494 438.033 442.494 437.955C439.638 410.414 432.883 343.793 432.036 319.891C431.162 295.493 431.957 240.751 432.218 224.555C432.218 224.464 432.296 224.398 432.388 224.398C432.479 224.398 432.544 224.477 432.544 224.568C432.283 240.764 431.488 295.493 432.362 319.891C433.209 343.78 439.964 410.401 442.82 437.942C442.833 438.033 442.768 438.111 442.676 438.124C442.663 438.098 442.663 438.098 442.65 438.098Z" fill="#00937D"/>
<path opacity="0.4" d="M442.65 438.098C442.572 438.098 442.494 438.033 442.494 437.955C439.638 410.414 432.883 343.793 432.036 319.891C431.162 295.493 431.957 240.751 432.218 224.555C432.218 224.464 432.296 224.398 432.388 224.398C432.479 224.398 432.544 224.477 432.544 224.568C432.283 240.764 431.488 295.493 432.362 319.891C433.209 343.78 439.964 410.401 442.82 437.942C442.833 438.033 442.768 438.111 442.676 438.124C442.663 438.098 442.663 438.098 442.65 438.098Z" fill="white"/>
<path d="M436.144 443.289C436.066 443.289 437.057 450.031 437.057 450.031H456.799L457.334 444.019L436.144 443.289Z" fill="#00937D"/>
<path opacity="0.1" d="M436.144 443.289C436.066 443.289 437.057 450.031 437.057 450.031H456.799L457.334 444.019L436.144 443.289Z" fill="black"/>
</svg>
