<svg width="146" height="101" viewBox="0 0 146 101" fill="none" xmlns="http://www.w3.org/2000/svg">
<rect x="0.0732422" y="0.967773" width="145.498" height="99.1385" fill="white"/>
<g clip-path="url(#clip0_3839_5069)">
<path d="M96.2408 48.7131C95.8516 49.4844 95.3564 50.1975 94.7697 50.8316H51.0915C50.7634 50.3971 50.0008 49.4199 49.6744 48.7131H96.2408ZM92.9757 53.0654H52.8854C53.4901 53.8003 54.1836 54.4573 54.9499 55.0216H90.7472C91.6191 54.5332 92.3784 53.8667 92.9757 53.0654ZM88.0266 57.0896H77.0324C76.7096 58.8347 76.7096 60.4629 76.7096 61.6583C79.9171 61.4401 84.1612 59.9725 88.0231 57.0896H88.0266ZM100.321 34.4591C95.3141 34.7854 88.1348 38.1604 83.4579 43.6523C82.6167 44.5736 81.869 45.5761 81.2259 46.6451H97.3263C99.5024 42.2928 100.642 37.9964 100.321 34.4591ZM69.0957 61.6583C69.1656 60.1332 69.1072 58.6049 68.9212 57.0896H57.8328C61.7541 59.9725 65.9929 61.4401 69.0957 61.6583ZM72.9576 61.9846C74.3169 60.5192 75.4699 58.8753 76.385 57.0983H69.4744C70.6192 59.1645 71.7081 60.7962 72.9646 61.9846H72.9576ZM64.7434 46.6451C64.1448 45.6138 63.3264 44.633 62.5132 43.6523C57.8328 38.1604 50.5993 34.7854 45.6502 34.4591C45.3239 37.9964 46.4094 42.2928 48.5855 46.6451H64.7434ZM79.9258 46.6451C80.0358 45.3939 80.144 44.202 80.144 42.7832C80.144 35.1693 76.7183 27.2797 72.9629 23.7441C69.1568 27.2797 65.7765 35.1693 65.7765 42.7832C65.7765 44.1968 65.7765 45.4009 65.9929 46.6451H79.9258ZM96.1448 77.3293C98.4309 77.3293 100.333 76.4009 100.333 74.1131C100.333 72.8095 99.4082 71.9387 97.9388 71.5582C96.4153 71.1778 94.4486 71.2319 94.4486 70.2546C94.5585 69.6002 95.1553 69.4379 96.0802 69.4379C97.4973 69.4379 97.5496 70.1988 97.6055 70.6874H99.9422C99.7799 68.8952 98.3088 67.6422 95.9721 67.6422C93.5289 67.6422 92.1084 68.9511 92.1084 70.6368C92.0969 71.1002 92.2125 71.5579 92.4426 71.9603C92.6727 72.3626 93.0085 72.6943 93.4137 72.9194C94.1832 73.2364 94.9893 73.4556 95.8132 73.5721C96.8464 73.6803 97.7747 73.7885 97.8271 74.497C97.8271 74.9874 97.335 75.5859 96.2565 75.5859C94.6859 75.5859 94.3509 74.7134 94.3509 74.1131H91.9077C91.9618 76.0187 93.5376 77.3293 96.1501 77.3293H96.1448ZM83.3515 72.4832C83.3515 73.9002 84.6044 75.1497 86.0738 75.1497C87.4856 75.1497 88.6915 73.9002 88.6915 72.4832C88.6915 71.0155 87.4926 69.7625 86.0738 69.7625C85.3558 69.7742 84.6703 70.0645 84.1623 70.5722C83.6544 71.0798 83.3636 71.7651 83.3515 72.4832ZM85.9691 77.3293C83.3026 77.3293 81.0741 75.1497 81.0741 72.4832C81.0764 71.8444 81.2045 71.2123 81.4512 70.6231C81.6979 70.0339 82.0582 69.4991 82.5117 69.0492C82.9651 68.5993 83.5028 68.2431 84.0939 68.0011C84.6851 67.7591 85.3181 67.636 85.9569 67.6387C86.9282 67.6162 87.8815 67.9028 88.6793 68.4572V67.7487H91.0177V77.1042H88.6793V76.5056C87.8704 77.0369 86.9246 77.3218 85.9569 77.3258L85.9691 77.3293ZM72.6435 72.4832C72.664 73.1808 72.9499 73.8444 73.4428 74.3386C73.9356 74.8327 74.5985 75.1203 75.2961 75.1427C76.7637 75.1427 78.0167 73.8932 78.0167 72.4762C78.005 71.7583 77.7146 71.073 77.2069 70.5653C76.6992 70.0576 76.014 69.7672 75.2961 69.7556C73.8808 69.7556 72.6313 71.0085 72.6313 72.4762L72.6435 72.4832ZM78.0289 64.5412H80.3132V77.1059H78.0167V76.5074C77.1889 77.0383 76.2271 77.3228 75.2437 77.3276C74.4903 77.3156 73.7502 77.1281 73.082 76.7799C72.4138 76.4318 71.836 75.9325 71.3946 75.3219C70.9532 74.7113 70.6603 74.0062 70.5391 73.2625C70.418 72.5188 70.472 71.7572 70.6969 71.0381C70.9217 70.3189 71.3112 69.6622 71.8344 69.12C72.3576 68.5778 73 68.1651 73.7106 67.9147C74.4213 67.6643 75.1805 67.5831 75.928 67.6776C76.6755 67.7721 77.3907 68.0396 78.0167 68.4589V64.5412H78.0289ZM67.1482 66.8814V64.5412H69.4186V66.8814H67.1482ZM69.4308 77.1077H67.136V67.7522H69.4186V77.1077H69.4308ZM58.2255 72.4832C58.2255 73.9002 59.4767 75.1497 61.0019 75.1497C61.703 75.1303 62.3701 74.8432 62.866 74.3472C63.3619 73.8513 63.6491 73.1842 63.6684 72.4832C63.6684 71.0155 62.4154 69.7625 61.0019 69.7625C60.2751 69.7624 59.5773 70.0472 59.0581 70.5559C58.539 71.0646 58.2401 71.7565 58.2255 72.4832ZM60.892 77.3293C58.2255 77.3293 56.0057 75.1497 56.0057 72.4832C56.024 71.5978 56.2795 70.7335 56.7458 69.9806C57.212 69.2277 57.8717 68.6137 58.6562 68.2028C59.4406 67.7918 60.321 67.599 61.2054 67.6444C62.0898 67.6897 62.9459 67.9716 63.6841 68.4607V64.5412H66.0208V77.1059H63.6562V76.5074C62.8239 77.0313 61.8631 77.3151 60.8798 77.3276L60.892 77.3293ZM47.5 72.4832C47.5207 73.1829 47.8083 73.8481 48.3037 74.3426C48.7992 74.8371 49.4651 75.1234 50.1648 75.1427C51.6865 75.1427 52.9413 73.8932 52.9413 72.4762C52.9258 71.7498 52.6265 71.0584 52.1076 70.5499C51.5887 70.0414 50.8913 69.7563 50.1648 69.7556C48.7513 69.7556 47.5 71.0085 47.5 72.4762V72.4832ZM50.1177 77.3293C48.849 77.3052 47.6405 76.7843 46.7518 75.8786C45.8631 74.9729 45.3652 73.7547 45.3652 72.4858C45.3652 71.2169 45.8631 69.9986 46.7518 69.0929C47.6405 68.1872 48.849 67.6663 50.1177 67.6422C51.1221 67.6279 52.1081 67.9128 52.95 68.4607V67.7522H55.2221V77.1077H52.9413V76.5091C52.0919 77.0408 51.111 77.3249 50.109 77.3293H50.1177Z" fill="black"/>
</g>
<defs>
<clipPath id="clip0_3839_5069">
<rect width="55.1051" height="53.5852" fill="white" transform="translate(45.2695 23.7441)"/>
</clipPath>
</defs>
</svg>
