<svg width="147" height="101" viewBox="0 0 147 101" fill="none" xmlns="http://www.w3.org/2000/svg">
<rect x="0.571289" y="0.967773" width="145.498" height="99.1385" fill="white"/>
<g clip-path="url(#clip0_3839_5074)">
<path d="M73.3207 19.8535C67.2521 19.8535 61.3199 21.653 56.2741 25.0245C51.2283 28.396 47.2956 33.188 44.9733 38.7946C42.651 44.4012 42.0434 50.5705 43.2273 56.5224C44.4112 62.4743 47.3334 67.9415 51.6245 72.2326C55.9156 76.5237 61.3828 79.446 67.3347 80.6299C73.2866 81.8138 79.4559 81.2061 85.0625 78.8838C90.6691 76.5615 95.4611 72.6288 98.8326 67.583C102.204 62.5372 104.004 56.605 104.004 50.5365C104.004 42.3988 100.771 34.5945 95.0168 28.8403C89.2626 23.0862 81.4583 19.8535 73.3207 19.8535V19.8535ZM102.005 50.5365C102.005 56.2096 100.322 61.7554 97.1706 66.4725C94.0188 71.1896 89.5389 74.8661 84.2976 77.0371C79.0563 79.2081 73.2888 79.7762 67.7247 78.6694C62.1605 77.5626 57.0495 74.8307 53.0379 70.8192C49.0264 66.8076 46.2945 61.6966 45.1877 56.1325C44.0809 50.5683 44.649 44.8009 46.82 39.5595C48.9911 34.3182 52.6676 29.8384 57.3846 26.6865C62.1017 23.5347 67.6475 21.8524 73.3207 21.8524C77.0878 21.8519 80.8182 22.5935 84.2987 24.0348C87.7792 25.4761 90.9418 27.5889 93.6057 30.2525C96.2697 32.9161 98.3828 36.0784 99.8246 39.5587C101.266 43.0391 102.008 46.7693 102.008 50.5365H102.005Z" fill="#00937D"/>
<path d="M88.1912 37.5193C88.6061 37.9685 89.2069 38.6901 89.5442 39.1267L95.7573 35.1885C95.447 34.7826 94.9545 34.1656 94.5829 33.7309L90.6501 36.3341L90.3813 36.565L90.5815 36.2709L92.3188 32.8018L91.0903 31.5805L87.6229 33.3177L87.3307 33.518L87.5634 33.2474L90.1666 29.3146C89.7084 28.9249 89.2646 28.5677 88.7071 28.1348L84.7617 34.3334C85.2614 34.7195 85.9199 35.2841 86.3384 35.6666L90.0529 33.7453L90.2893 33.5649L90.1089 33.803L88.1912 37.5193Z" fill="#00937D"/>
<path d="M74.0929 29.6515L75.7904 25.8504L75.8987 25.5131L75.868 25.8649L76.0484 30.9468C76.6438 31.0028 77.2589 31.0857 77.8669 31.185L77.5909 23.6586C76.7412 23.5665 75.8969 23.498 75.0526 23.4619L73.3785 27.6112L73.3207 27.9197L73.2612 27.6112L71.5889 23.4619C70.7446 23.498 69.9003 23.5665 69.0524 23.6586L68.7764 31.185C69.3825 31.0857 69.9977 31.0046 70.593 30.9468L70.7734 25.8649L70.7428 25.5131L70.851 25.8504L72.5486 29.6515H74.0929Z" fill="#00937D"/>
<path d="M60.3625 35.6493C61.3421 34.6156 61.8995 33.4213 60.9163 32.2794C60.6465 31.9894 60.2932 31.7905 59.9053 31.7103C59.5174 31.6302 59.1141 31.6727 58.7515 31.832L58.6775 31.8608L58.6938 31.7959C58.785 31.4563 58.7751 31.0975 58.6651 30.7635C58.5552 30.4296 58.3501 30.135 58.075 29.9161C57.6883 29.6129 57.1972 29.4753 56.7093 29.5336C55.7875 29.6274 55.0857 30.2552 53.1464 32.4201C52.5655 33.0695 51.7176 34.0942 51.207 34.7653L56.5091 39.7949C58.2608 37.8322 58.977 37.1087 60.3625 35.6493ZM53.444 34.4189C54.2908 33.3774 55.2005 32.3888 56.1681 31.4585C56.3218 31.2964 56.5116 31.1728 56.722 31.0977C56.8072 31.0784 56.8954 31.0763 56.9814 31.0915C57.0675 31.1068 57.1496 31.139 57.223 31.1864C57.2965 31.2338 57.3597 31.2953 57.409 31.3675C57.4583 31.4396 57.4928 31.5208 57.5103 31.6064C57.5915 31.9673 57.366 32.3064 57.1152 32.5878C56.5506 33.2229 54.4813 35.3895 54.4813 35.3895L53.444 34.4189ZM55.5205 36.3889C55.5205 36.3889 57.5374 34.2566 58.194 33.5746C58.3668 33.3676 58.5729 33.1907 58.8038 33.0515C58.9136 32.9867 59.0392 32.9538 59.1667 32.9564C59.2941 32.9589 59.4183 32.9968 59.5254 33.0659C59.6329 33.1357 59.7164 33.2367 59.7648 33.3554C59.8132 33.4741 59.8241 33.6047 59.796 33.7298C59.6922 34.0405 59.5131 34.3206 59.2747 34.5452C58.9968 34.8447 56.6047 37.4046 56.6011 37.4082L55.5205 36.3889Z" fill="#00937D"/>
<path d="M73.3205 32.3408C70.9307 32.3396 68.5641 32.8095 66.356 33.7235C64.1478 34.6374 62.1415 35.9777 60.4517 37.6675C58.7618 39.3573 57.4216 41.3637 56.5076 43.5718C55.5936 45.7799 55.1238 48.1465 55.125 50.5363V50.5363C55.125 55.362 57.042 59.9901 60.4543 63.4024C63.8666 66.8147 68.4947 68.7317 73.3205 68.7317V68.7317C75.7103 68.7329 78.0768 68.2631 80.285 67.3491C82.4931 66.4351 84.4994 65.0949 86.1892 63.405C87.8791 61.7152 89.2193 59.7089 90.1333 57.5008C91.0473 55.2927 91.5171 52.9261 91.5159 50.5363V50.5363C91.5159 45.7105 89.5989 41.0825 86.1866 37.6701C82.7743 34.2578 78.1462 32.3408 73.3205 32.3408V32.3408ZM73.3205 50.5363V67.7341C68.7609 67.7288 64.3896 65.9152 61.1656 62.6912C57.9415 59.4671 56.1279 55.0958 56.1226 50.5363H73.3205V33.3385C77.88 33.3437 82.2513 35.1573 85.4754 38.3814C88.6994 41.6055 90.513 45.9767 90.5183 50.5363H73.3205Z" fill="#00937D"/>
</g>
<defs>
<clipPath id="clip0_3839_5074">
<rect width="61.3659" height="61.3659" fill="white" transform="translate(42.6377 19.8535)"/>
</clipPath>
</defs>
</svg>
