<svg width="257" height="101" viewBox="0 0 257 101" fill="none" xmlns="http://www.w3.org/2000/svg">
<rect x="0.0703125" y="0.967773" width="256.78" height="99.1385" fill="white"/>
<g clip-path="url(#clip0_3839_5124)">
<path d="M48.4099 56.6171H31.5046C31.2882 56.6171 31.18 56.3766 31.18 56.1322C31.18 55.8878 31.2882 55.6474 31.5046 55.6193L34.1692 55.3188C34.4377 55.2908 34.5979 55.2106 34.626 54.862L34.5979 41.0941C34.626 40.7455 34.5979 40.6654 34.1692 40.5812L31.1039 40.0924C30.9155 40.0924 30.7793 39.8319 30.7793 39.6155C30.7793 39.3992 30.8875 39.2148 31.1039 39.2148H47.4563C47.7808 39.2148 47.8329 39.4312 47.857 39.6155L47.8329 45.7021C47.861 45.8904 47.6726 45.9706 47.5084 45.9706C47.2399 45.9706 47.1838 45.8103 47.1317 45.5699C46.7831 43.8749 45.9296 40.3608 42.8282 40.3608H38.4446C38.1481 40.3608 38.068 40.5211 38.0439 40.7615L38.068 46.5035C38.0586 46.5492 38.0603 46.5964 38.0729 46.6412C38.0856 46.6861 38.1087 46.7273 38.1405 46.7614C38.1722 46.7955 38.2116 46.8215 38.2555 46.8373C38.2993 46.8531 38.3463 46.8582 38.3925 46.8521H39.5946C42.2592 46.8521 42.6359 43.2218 42.6359 42.5767C42.6359 42.3363 42.8242 42.2521 43.0125 42.2521C43.1085 42.2431 43.2042 42.272 43.2791 42.3327C43.354 42.3934 43.4021 42.4809 43.4132 42.5767L43.3852 52.1934C43.4132 52.4098 43.1969 52.5179 43.0085 52.5179C42.8202 52.5179 42.684 52.4098 42.6319 52.1413C42.4716 51.3599 42.3073 48.0261 39.7789 48.0261H38.4166C38.3702 48.0212 38.3234 48.0258 38.2789 48.0396C38.2344 48.0535 38.1932 48.0764 38.1579 48.1068C38.1226 48.1372 38.0939 48.1746 38.0736 48.2165C38.0533 48.2585 38.0418 48.3041 38.0399 48.3507L38.068 54.9942C38.0399 55.2347 38.1481 55.4791 38.4446 55.4791H42.9084C45.8134 55.4791 47.2399 52.7624 47.9131 49.2122C47.9651 48.9437 48.0493 48.7835 48.3138 48.7835C48.474 48.7835 48.6383 48.8636 48.6383 49.0519L48.7185 56.2324C48.7185 56.4808 48.6143 56.6171 48.4099 56.6171Z" fill="#2931E6"/>
<path d="M58.1868 48.7354C58.0083 48.7307 57.8324 48.6908 57.6693 48.6179C57.5062 48.5449 57.3592 48.4405 57.2367 48.3105C57.1141 48.1805 57.0185 48.0276 56.9553 47.8605C56.8922 47.6934 56.8627 47.5155 56.8685 47.3369C56.8685 46.6638 57.2973 46.3953 57.2973 46.1349C57.2973 46.0547 57.2692 45.9986 57.137 45.9986C55.8988 45.9986 54.5004 48.8035 54.5004 52.562V55.0624C54.5004 55.2507 54.5285 55.3869 54.825 55.439L56.8966 55.7636C56.989 55.7879 57.0697 55.8445 57.1241 55.9231C57.1785 56.0018 57.2029 56.0972 57.1931 56.1923C57.1931 56.3806 57.0849 56.593 56.8966 56.593H49.7682C49.5799 56.593 49.4717 56.4327 49.4717 56.2164C49.4717 56 49.5799 55.8157 49.7121 55.7876L51.6755 55.4631C51.9159 55.435 51.972 55.2747 51.972 55.0864V46.9883C51.972 46.6638 51.944 46.4514 51.4872 46.3953L49.7922 46.1549C49.7083 46.1374 49.634 46.0889 49.5843 46.0191C49.5345 45.9493 49.5129 45.8633 49.5238 45.7782C49.5238 45.618 49.6039 45.4296 49.7922 45.4296L54.0957 45.1892H54.1478C54.4163 45.1892 54.4964 45.3254 54.4964 45.618V47.2207H54.5765C55.0894 46.1188 55.8948 45.1211 57.3454 45.1211C58.9481 45.1211 59.7135 46.0908 59.7135 47.0324C59.727 47.2449 59.6981 47.458 59.6283 47.6591C59.5586 47.8603 59.4495 48.0456 59.3074 48.2041C59.1652 48.3627 58.9929 48.4913 58.8005 48.5825C58.6082 48.6737 58.3995 48.7257 58.1868 48.7354Z" fill="#2931E6"/>
<path d="M80.4335 56.6175H74.0223C73.806 56.6175 73.7258 56.4011 73.7258 56.2168C73.716 56.1217 73.7405 56.0262 73.7948 55.9476C73.8492 55.869 73.9299 55.8124 74.0223 55.788L75.6251 55.5717C75.9216 55.5436 75.9497 55.3833 75.9497 55.195V47.7941C75.9497 46.4238 75.0601 45.991 74.3108 45.991C72.7521 45.991 71.5661 48.844 71.5661 51.7731V55.187C71.5661 55.3753 71.5941 55.5116 71.8906 55.5636L73.0927 55.78C73.1852 55.8044 73.2659 55.861 73.3202 55.9396C73.3746 56.0182 73.3991 56.1137 73.3892 56.2088C73.3892 56.3971 73.281 56.6095 73.1208 56.6095H67.0102C66.7938 56.6095 66.7136 56.3931 66.7136 56.2088C66.7038 56.1137 66.7283 56.0182 66.7827 55.9396C66.837 55.861 66.9177 55.8044 67.0102 55.78L68.6129 55.5636C68.9095 55.5356 68.9375 55.3753 68.9375 55.187V47.9745C68.9375 46.6041 68.3445 46.1192 67.5912 46.1192C66.353 46.1192 64.5499 48.9722 64.5499 52.7347V55.207C64.5499 55.3954 64.5779 55.5316 64.8745 55.5837L66.1366 55.8001C66.2269 55.8223 66.3067 55.8752 66.3623 55.9497C66.4178 56.0243 66.4457 56.1159 66.4412 56.2088C66.4412 56.3971 66.333 56.6095 66.1727 56.6095H59.8016C59.7126 56.5984 59.6314 56.5527 59.5759 56.4821C59.5204 56.4116 59.4949 56.322 59.5051 56.2328C59.5051 56.0164 59.5853 55.8321 59.7455 55.8041L61.709 55.4795C61.9494 55.4515 62.0055 55.2912 62.0055 55.1028V46.9887C62.0055 46.6642 61.9774 46.4518 61.5206 46.3957L59.8257 46.1553C59.7417 46.1378 59.6675 46.0894 59.6177 46.0195C59.5679 45.9497 59.5463 45.8637 59.5572 45.7786C59.5572 45.6184 59.6374 45.43 59.8257 45.43L64.1292 45.1896H64.2093C64.4497 45.1896 64.5339 45.3259 64.5339 45.6184V47.6218H64.614C65.6919 45.6584 66.7657 45.0935 68.1642 45.0935C69.6988 45.0935 71.0692 45.9269 71.3938 47.4616H71.502C71.6994 46.747 72.1291 46.1185 72.7233 45.6752C73.3175 45.2319 74.0424 44.999 74.7837 45.0133C76.6669 45.0133 78.5222 46.3036 78.5222 48.2429V48.3511L78.414 55.211V55.2391C78.409 55.2817 78.4128 55.325 78.4253 55.3661C78.4377 55.4071 78.4585 55.4452 78.4863 55.478C78.5141 55.5107 78.5484 55.5373 78.587 55.5562C78.6255 55.575 78.6676 55.5858 78.7105 55.5877L80.4335 55.8281C80.5207 55.8578 80.595 55.9167 80.6439 55.9948C80.6928 56.0729 80.7133 56.1654 80.7019 56.2568C80.7019 56.4532 80.5657 56.6175 80.4335 56.6175Z" fill="#2931E6"/>
<path d="M89.577 51.0195H82.8694C82.653 51.0195 82.5208 51.0996 82.5208 51.3681V51.7688C82.5208 54.7018 83.811 55.8839 85.562 55.8839C87.3131 55.8839 88.6554 54.6818 88.98 52.6783C89.008 52.462 89.2204 52.3818 89.4368 52.3818C89.6531 52.3818 89.8936 52.49 89.8655 52.7064V52.7344C89.7052 55.2107 87.7659 56.7975 85.2375 56.7975C82.2523 56.7975 79.752 54.8341 79.752 51.2559C79.752 47.9221 82.4166 44.8447 85.2936 44.8447C88.1706 44.8447 89.9216 47.5614 89.9216 50.7069C89.9232 50.7512 89.915 50.7952 89.8978 50.8361C89.8806 50.8769 89.8547 50.9134 89.8219 50.9432C89.789 50.9729 89.7501 50.9952 89.7079 51.0083C89.6656 51.0215 89.6209 51.0253 89.577 51.0195ZM87.5054 49.056C87.5054 46.4475 86.4836 45.6141 85.1654 45.6141C83.6307 45.6141 82.5568 46.7721 82.5568 49.621C82.5501 49.6663 82.5536 49.7125 82.5672 49.7562C82.5807 49.7999 82.6039 49.84 82.6351 49.8735C82.6663 49.907 82.7047 49.933 82.7473 49.9497C82.7899 49.9663 82.8358 49.9731 82.8814 49.9696H87.1849C87.4533 49.9696 87.5054 49.8374 87.5054 49.593V49.056Z" fill="#2931E6"/>
<path d="M103.35 56.6178H97.0309C96.8145 56.6178 96.7344 56.4014 96.7344 56.2171C96.7245 56.122 96.749 56.0265 96.8034 55.9479C96.8578 55.8693 96.9384 55.8127 97.0309 55.7883L98.5896 55.572C98.8861 55.5439 98.9142 55.3836 98.9142 55.1953V47.8746C98.9142 46.5042 98.1889 46.0194 97.4356 46.0194C96.1974 46.0194 94.3943 48.9525 94.3943 52.715V55.1873C94.3943 55.3756 94.4224 55.5118 94.7189 55.5639L95.9851 55.7803C96.0775 55.8047 96.1582 55.8613 96.2126 55.9399C96.267 56.0185 96.2914 56.114 96.2816 56.2091C96.2816 56.3974 96.2015 56.6098 95.9851 56.6098H89.6581C89.569 56.5987 89.4879 56.553 89.4324 56.4824C89.3768 56.4119 89.3514 56.3223 89.3616 56.2331C89.3616 56.0167 89.4417 55.8324 89.602 55.8044L91.5654 55.4798C91.8058 55.4517 91.8619 55.2915 91.8619 55.1031V46.989C91.8619 46.6645 91.8339 46.4521 91.3771 46.396L89.6821 46.1556C89.5982 46.1381 89.5239 46.0896 89.4742 46.0198C89.4244 45.95 89.4028 45.864 89.4137 45.7789C89.4137 45.6187 89.4938 45.4303 89.6821 45.4303L93.9856 45.1899H94.0657C94.3623 45.1899 94.3903 45.3782 94.3903 45.6187V47.6221H94.4905C95.4842 45.6868 96.534 45.0938 97.8804 45.0938C99.7115 45.0938 101.619 46.3559 101.619 48.2392V48.3995L101.483 55.2113V55.2394C101.478 55.282 101.481 55.3252 101.494 55.3663C101.506 55.4074 101.527 55.4455 101.555 55.4782C101.583 55.511 101.617 55.5376 101.656 55.5565C101.694 55.5753 101.736 55.5861 101.779 55.588L103.382 55.8284C103.518 55.8564 103.622 56.0448 103.622 56.2571C103.622 56.4695 103.51 56.6178 103.35 56.6178Z" fill="#2931E6"/>
<path d="M112.494 51.0195H105.798C105.582 51.0195 105.45 51.0996 105.45 51.3681V51.7688C105.45 54.7018 106.74 55.8839 108.491 55.8839C110.242 55.8839 111.584 54.6818 111.905 52.6783C111.933 52.462 112.145 52.3818 112.362 52.3818C112.578 52.3818 112.818 52.49 112.79 52.7064V52.7344C112.63 55.2107 110.691 56.7975 108.162 56.7975C105.177 56.7975 102.677 54.8341 102.677 51.2559C102.677 47.9221 105.341 44.8447 108.218 44.8447C111.095 44.8447 112.842 47.5614 112.842 50.7069C112.844 50.7516 112.836 50.796 112.818 50.8372C112.801 50.8783 112.775 50.9151 112.741 50.9449C112.708 50.9747 112.669 50.9969 112.626 51.0098C112.583 51.0226 112.538 51.0259 112.494 51.0195ZM110.422 49.056C110.422 46.4475 109.4 45.6141 108.082 45.6141C106.547 45.6141 105.474 46.7721 105.474 49.621C105.467 49.6663 105.47 49.7125 105.484 49.7562C105.498 49.7999 105.521 49.84 105.552 49.8735C105.583 49.907 105.621 49.933 105.664 49.9497C105.707 49.9663 105.753 49.9731 105.798 49.9696H110.118C110.386 49.9696 110.442 49.8374 110.442 49.593L110.422 49.056Z" fill="#2931E6"/>
<path d="M118.844 62.1832C115.807 62.1832 112.954 60.7327 112.954 59.1179C112.954 58.1763 114.032 57.5151 115.158 56.9942V56.9221C114.614 56.733 114.142 56.3813 113.805 55.9147C113.468 55.448 113.283 54.8891 113.275 54.3136C113.275 53.1115 114 52.0817 115.587 51.7291V51.6489C114.753 51.084 113.984 50.0461 113.984 49.0124C113.984 46.484 116.432 44.7089 118.792 44.7089C119.155 44.7142 119.517 44.7599 119.87 44.8451C120.08 44.9175 120.296 44.9712 120.515 45.0054C120.704 45.0054 120.732 44.8692 120.732 44.765C120.732 43.5268 121.08 42.3969 122.451 42.3969C122.601 42.3809 122.754 42.3957 122.899 42.4404C123.044 42.4851 123.179 42.5587 123.294 42.6568C123.41 42.755 123.505 42.8756 123.572 43.0113C123.64 43.1471 123.68 43.2952 123.689 43.4467C123.697 43.5596 123.682 43.6731 123.643 43.7796C123.605 43.8862 123.544 43.9833 123.466 44.0647C123.387 44.1461 123.292 44.2099 123.187 44.2519C123.081 44.2939 122.968 44.313 122.855 44.3082C122.074 44.3082 122.074 43.5829 121.834 43.5829C121.509 43.5829 121.457 44.3082 121.457 44.7409V44.8772C121.457 45.3059 121.457 45.4422 121.834 45.7387C122.667 46.4118 123.436 47.2733 123.436 48.6958C123.436 51.0639 120.988 52.3542 118.704 52.3542C117.819 52.3542 118.087 52.274 117.226 52.274C116.232 52.274 114.537 52.5705 114.537 53.6444C114.537 54.3697 115.21 54.6381 116.072 54.6381C117.39 54.6381 118.384 54.5019 119.678 54.5019C122.611 54.5019 124.142 55.9805 124.142 58.1883C124.17 60.7568 121.561 62.1832 118.844 62.1832ZM119.301 56.9221C116.316 56.9221 114.781 57.435 114.781 59.1259C114.781 60.7287 116.636 61.3578 118.708 61.3578C120.78 61.3578 123.04 60.5284 123.04 58.8855C123.04 57.423 121.184 56.9221 119.301 56.9221ZM118.816 45.4622C117.614 45.4622 116.368 46.1634 116.368 48.5275C116.368 51.0559 117.39 51.5928 118.68 51.5928C120.078 51.5928 121.084 50.6792 121.084 48.6878C121.104 46.3958 120.187 45.4542 118.816 45.4542V45.4622Z" fill="#2931E6"/>
<path d="M131.43 56.6174H124.438C124.306 56.6174 124.17 56.4571 124.17 56.2408C124.17 56.0244 124.25 55.8401 124.41 55.812L126.374 55.4874C126.614 55.4594 126.67 55.2991 126.67 55.1108V46.9887C126.67 46.6641 126.642 46.4518 126.185 46.3957L124.41 46.1552C124.335 46.1263 124.271 46.0742 124.228 46.0064C124.185 45.9386 124.164 45.8588 124.17 45.7786C124.17 45.6183 124.25 45.43 124.438 45.43L128.798 45.1896H128.85C129.146 45.1896 129.199 45.3258 129.199 45.6183V55.1148C129.199 55.3031 129.251 55.4634 129.495 55.4915L131.458 55.816C131.619 55.8441 131.699 56.0324 131.699 56.2448C131.699 56.4571 131.567 56.6174 131.43 56.6174ZM128.016 41.7436C127.734 41.7436 127.459 41.6599 127.224 41.5032C126.989 41.3464 126.807 41.1236 126.699 40.863C126.591 40.6023 126.562 40.3155 126.617 40.0388C126.672 39.7621 126.808 39.5079 127.008 39.3084C127.207 39.1089 127.461 38.9731 127.738 38.918C128.015 38.863 128.302 38.8912 128.562 38.9992C128.823 39.1072 129.046 39.29 129.203 39.5246C129.359 39.7592 129.443 40.035 129.443 40.3171C129.441 40.6948 129.29 41.0564 129.023 41.3235C128.756 41.5905 128.394 41.7415 128.016 41.7436Z" fill="#2931E6"/>
<path d="M138.102 56.6179H130.921C130.785 56.6179 130.653 56.4576 130.653 56.2412C130.653 56.0249 130.733 55.8405 130.893 55.8125L132.857 55.4879C133.097 55.4599 133.153 55.2996 133.153 55.1113V40.8946C133.153 40.57 133.125 40.3577 132.668 40.3016L130.705 40.0611C130.63 40.0407 130.565 39.9945 130.521 39.9307C130.477 39.8669 130.457 39.7897 130.464 39.7125C130.461 39.6736 130.464 39.6342 130.476 39.5968C130.487 39.5593 130.506 39.5245 130.531 39.4943C130.556 39.4641 130.587 39.4392 130.621 39.4209C130.656 39.4027 130.694 39.3915 130.733 39.388L135.277 39.0273H135.357C135.653 39.0273 135.681 39.1355 135.681 39.428V55.0832C135.681 55.2716 135.734 55.4318 135.978 55.4599L138.13 55.8085C138.266 55.8365 138.37 56.0249 138.37 56.2372C138.37 56.4496 138.238 56.6179 138.102 56.6179Z" fill="#2931E6"/>
<path d="M149.562 56.5214L145.475 56.6296C145.439 56.6319 145.403 56.6266 145.369 56.614C145.335 56.6013 145.305 56.5816 145.28 56.5562C145.254 56.5308 145.234 56.5002 145.222 56.4666C145.209 56.4329 145.204 56.397 145.206 56.3611V54.4378H145.098C144.669 55.5397 143.86 56.842 142.141 56.842C138.935 56.842 137.433 53.7486 137.433 51.3805C137.433 48.235 139.584 44.8171 142.489 44.8171C143.008 44.8222 143.514 44.976 143.948 45.26C144.382 45.5441 144.725 45.9466 144.938 46.4199C144.948 46.441 144.963 46.4594 144.982 46.4733C145.001 46.4873 145.023 46.4964 145.046 46.5C145.098 46.5 145.154 46.4439 145.154 46.3397V41.2308C145.154 40.6939 144.994 40.5296 144.589 40.4294C143.662 40.2602 142.725 40.1518 141.784 40.1049C141.692 40.087 141.608 40.037 141.549 39.9637C141.49 39.8904 141.458 39.7985 141.46 39.7042C141.454 39.6115 141.485 39.5203 141.545 39.45C141.606 39.3796 141.692 39.3357 141.784 39.3275C143.581 39.3379 145.377 39.2549 147.166 39.0791H147.246C147.486 39.0791 147.542 39.1873 147.542 39.3756V55.1109C147.542 55.3514 147.702 55.5116 148.027 55.5677L149.63 55.8082C149.818 55.8362 149.87 55.9404 149.87 56.1568C149.87 56.3731 149.786 56.5214 149.562 56.5214ZM142.513 45.7026C140.847 45.7026 140.109 47.638 140.109 51.108C140.109 54.578 140.943 55.9484 142.369 55.9484C144.373 55.9484 144.954 53.0434 144.954 50.8355C144.934 47.7061 144.232 45.7026 142.513 45.7026Z" fill="#2931E6"/>
<path d="M153.89 56.8062C150.957 56.8062 148.645 54.0374 148.645 50.7958C148.645 47.8627 151.281 44.9336 154.374 44.9336C157.468 44.9336 159.804 47.7385 159.804 50.7277C159.804 54.2498 157.171 56.8062 153.89 56.8062ZM154.13 45.7791C152.732 45.7791 151.361 47.0693 151.361 50.7838C151.361 53.9573 152.411 55.9928 154.21 55.9928C156.39 55.9928 157.063 53.6527 157.063 50.7477C157.063 47.3899 156.23 45.7751 154.134 45.7751L154.13 45.7791Z" fill="#2931E6"/>
<path d="M177.835 56.6172H163.707C163.49 56.6172 163.41 56.509 163.41 56.3768C163.433 56.2329 163.488 56.096 163.57 55.9761L173.768 40.5292C173.815 40.4665 173.843 40.3913 173.848 40.3129C173.848 40.1766 173.688 40.0965 173.391 40.0965H170.458C168.054 40.0965 166.72 42.5728 166.235 45.4498C166.215 45.5324 166.166 45.6051 166.097 45.6544C166.028 45.7037 165.943 45.7264 165.858 45.7182C165.816 45.7232 165.773 45.7194 165.731 45.7069C165.69 45.6945 165.652 45.6737 165.62 45.6459C165.587 45.6181 165.56 45.5838 165.541 45.5452C165.522 45.5067 165.512 45.4646 165.51 45.4217C165.51 44.0233 165.562 41.523 165.562 39.5595C165.562 39.2911 165.67 39.2109 165.963 39.2109H177.931C178.148 39.2109 178.228 39.3191 178.228 39.4514C178.212 39.5564 178.175 39.6572 178.12 39.7479L167.818 55.0825C167.75 55.167 167.713 55.2711 167.71 55.379C167.71 55.5393 167.79 55.6475 168.138 55.6475H172.746C174.71 55.6475 176.673 54.3012 177.587 48.8357C177.605 48.743 177.655 48.6597 177.728 48.6004C177.801 48.541 177.893 48.5094 177.987 48.5111C178.031 48.5088 178.074 48.5156 178.114 48.5311C178.155 48.5466 178.191 48.5704 178.222 48.601C178.253 48.6316 178.277 48.6683 178.292 48.7088C178.308 48.7492 178.314 48.7924 178.312 48.8357V56.0762C178.312 56.4529 178.236 56.6172 177.835 56.6172Z" fill="#2931E6"/>
<path d="M188.938 51.0195H182.243C182.026 51.0195 181.894 51.0996 181.894 51.3681V51.7688C181.894 54.7018 183.184 55.8839 184.931 55.8839C186.678 55.8839 188.025 54.6818 188.349 52.6783C188.373 52.462 188.59 52.3818 188.806 52.3818C189.022 52.3818 189.263 52.49 189.235 52.7064V52.7344C189.074 55.2107 187.139 56.7975 184.607 56.7975C181.621 56.7975 179.121 54.8341 179.121 51.2559C179.121 47.9221 181.782 44.8447 184.663 44.8447C187.544 44.8447 189.287 47.5614 189.287 50.7069C189.287 50.9113 189.155 51.0195 188.938 51.0195ZM186.867 49.056C186.867 46.4475 185.845 45.6141 184.526 45.6141C182.992 45.6141 181.918 46.7721 181.918 49.621C181.911 49.6663 181.915 49.7125 181.928 49.7562C181.942 49.7999 181.965 49.84 181.996 49.8735C182.027 49.907 182.066 49.933 182.108 49.9497C182.151 49.9663 182.197 49.9731 182.243 49.9696H186.546C186.814 49.9696 186.871 49.8374 186.871 49.593L186.867 49.056Z" fill="#2931E6"/>
<path d="M195.285 62.1832C192.243 62.1832 189.395 60.7327 189.395 59.1179C189.395 58.1763 190.468 57.5151 191.598 56.9942V56.9221C191.055 56.733 190.582 56.3813 190.246 55.9147C189.909 55.448 189.723 54.8891 189.715 54.3136C189.715 53.1115 190.44 52.0817 192.027 51.7291V51.6489C191.194 51.084 190.424 50.0461 190.424 49.0124C190.424 46.484 192.873 44.7089 195.233 44.7089C195.596 44.7143 195.957 44.76 196.311 44.8451C196.52 44.9176 196.736 44.9712 196.956 45.0054C197.144 45.0054 197.172 44.8692 197.172 44.765C197.172 43.5268 197.521 42.3969 198.891 42.3969C199.042 42.3809 199.195 42.3957 199.34 42.4404C199.485 42.4851 199.619 42.5587 199.735 42.6568C199.851 42.755 199.945 42.8756 200.013 43.0113C200.081 43.1471 200.12 43.2952 200.129 43.4467C200.138 43.5596 200.122 43.6731 200.084 43.7796C200.045 43.8862 199.985 43.9833 199.906 44.0647C199.827 44.1461 199.732 44.2099 199.627 44.2519C199.522 44.2939 199.409 44.313 199.296 44.3082C198.494 44.3082 198.494 43.5829 198.274 43.5829C197.953 43.5829 197.897 44.3082 197.897 44.7409V44.8772C197.897 45.3059 197.897 45.4422 198.274 45.7387C199.107 46.4118 199.877 47.2733 199.877 48.6958C199.877 51.0639 197.429 52.3542 195.145 52.3542C194.255 52.3542 194.523 52.274 193.666 52.274C192.672 52.274 190.977 52.5705 190.977 53.6444C190.977 54.3697 191.65 54.6381 192.508 54.6381C193.826 54.6381 194.82 54.5019 196.114 54.5019C199.047 54.5019 200.578 55.9805 200.578 58.1883C200.61 60.7568 198.001 62.1832 195.285 62.1832ZM195.742 56.9221C192.756 56.9221 191.222 57.435 191.222 59.1259C191.222 60.7287 193.077 61.3578 195.149 61.3578C197.22 61.3578 199.472 60.5284 199.472 58.8775C199.472 57.423 197.625 56.9221 195.742 56.9221ZM195.257 45.4622C194.055 45.4622 192.808 46.1634 192.808 48.5275C192.808 51.0559 193.83 51.5928 195.12 51.5928C196.519 51.5928 197.525 50.6792 197.525 48.6878C197.525 46.3958 196.631 45.4542 195.257 45.4542V45.4622Z" fill="#2931E6"/>
<path d="M214.462 56.6178H208.143C207.927 56.6178 207.847 56.4014 207.847 56.2171C207.837 56.122 207.861 56.0265 207.916 55.9479C207.97 55.8693 208.051 55.8127 208.143 55.7883L209.702 55.572C209.998 55.5439 210.022 55.3836 210.022 55.1953V47.8746C210.022 46.5042 209.297 46.0194 208.544 46.0194C207.306 46.0194 205.507 48.9525 205.507 52.715V55.1873C205.507 55.3756 205.535 55.5118 205.827 55.5639L207.093 55.7803C207.186 55.8047 207.266 55.8613 207.321 55.9399C207.375 56.0185 207.4 56.114 207.39 56.2091C207.39 56.3974 207.31 56.6098 207.093 56.6098H200.774C200.685 56.5987 200.604 56.553 200.549 56.4824C200.493 56.4119 200.468 56.3223 200.478 56.2331C200.478 56.0167 200.558 55.8324 200.718 55.8044L202.682 55.4798C202.922 55.4517 202.978 55.2915 202.978 55.1031V46.989C202.978 46.6645 202.95 46.4521 202.493 46.396L200.798 46.1556C200.714 46.1381 200.64 46.0896 200.59 46.0198C200.541 45.95 200.519 45.864 200.53 45.7789C200.53 45.6187 200.61 45.4303 200.798 45.4303L205.102 45.1899H205.182C205.478 45.1899 205.507 45.3782 205.507 45.6187V47.6221H205.615C206.612 45.6868 207.658 45.0938 209.005 45.0938C210.832 45.0938 212.743 46.3559 212.743 48.2392V48.3995L212.607 55.2113V55.2394C212.602 55.282 212.606 55.3252 212.618 55.3663C212.631 55.4074 212.651 55.4455 212.679 55.4782C212.707 55.511 212.741 55.5376 212.78 55.5565C212.818 55.5753 212.86 55.5861 212.903 55.588L214.506 55.8284C214.642 55.8564 214.747 56.0448 214.747 56.2571C214.747 56.4695 214.626 56.6178 214.462 56.6178Z" fill="#2931E6"/>
<path d="M223.69 56.7255C223.289 56.7559 222.887 56.677 222.527 56.4971C222.167 56.3171 221.863 56.0429 221.646 55.7037C221.378 55.303 221.35 54.9504 221.19 54.9504C221.029 54.9504 220.869 55.327 220.388 55.7317C219.595 56.436 218.563 56.8102 217.503 56.7776C215.9 56.7776 214.382 55.888 214.382 53.9727C214.392 53.3329 214.591 52.7104 214.955 52.184C215.319 51.6576 215.83 51.251 216.425 51.0155C217.627 50.5027 218.253 50.4786 219.707 50.3143C220.46 50.2342 221.214 49.7774 221.214 48.8358V47.7659C221.214 46.1631 220.38 45.7624 219.411 45.7624C218.723 45.7748 218.052 45.9803 217.475 46.3555C217.179 46.5718 217.099 46.7561 217.099 46.8924C217.099 47.0286 217.207 47.1088 217.395 47.2931C217.523 47.4143 217.624 47.5604 217.693 47.7223C217.762 47.8843 217.797 48.0587 217.796 48.2347C217.81 48.4251 217.784 48.6164 217.72 48.7963C217.656 48.9761 217.555 49.1407 217.424 49.2794C217.292 49.4182 217.134 49.528 216.958 49.602C216.782 49.676 216.592 49.7126 216.401 49.7093C216.201 49.7129 216.003 49.6752 215.818 49.5986C215.633 49.5221 215.466 49.4082 215.328 49.2642C215.189 49.1201 215.081 48.9491 215.012 48.7616C214.942 48.5741 214.912 48.3743 214.923 48.1746C214.923 46.7481 216.401 44.8408 219.791 44.8408C222.456 44.8408 223.774 46.1311 223.774 47.826V47.8781L223.666 53.3917V54.3053C223.666 55.1067 223.854 55.6235 224.447 55.6235C225.04 55.6235 225.201 55.1107 225.201 54.0208V52.2978C225.201 52.0013 225.389 51.8971 225.657 51.8971C225.926 51.8971 226.142 52.0053 226.142 52.2737V54.157C226.138 55.9722 225.517 56.7255 223.69 56.7255ZM221.162 51.0236C221.162 50.8633 221.11 50.7831 221.001 50.7831C220.893 50.7831 220.893 50.8112 220.841 50.8112C220.178 51.0344 219.493 51.1875 218.798 51.268C217.668 51.5084 217.022 52.8026 217.022 53.8244C217.022 54.71 217.479 55.4913 218.473 55.4913C219.843 55.4913 221.162 53.7964 221.162 52.4781V51.0236Z" fill="#2931E6"/>
</g>
<defs>
<clipPath id="clip0_3839_5124">
<rect width="195.363" height="23.2925" fill="white" transform="translate(30.7793 38.8906)"/>
</clipPath>
</defs>
</svg>
