 <svg width="147" height="101" viewBox="0 0 147 101" fill="none" xmlns="http://www.w3.org/2000/svg">
                        <rect x="0.575195" y="0.967773" width="145.498" height="99.1385" fill="white" />
                        <g clip-path="url(#clip0_3839_5044)">
                            <path d="M39.9072 34.0885L40.7552 33.532C47.9656 28.6632 59.5702 25.5049 72.6612 25.5049C85.5883 25.5049 97.0483 28.5813 104.28 33.3513L105.591 34.1222C106.632 34.7815 107.787 35.2392 108.997 35.4713C111.178 35.9266 115.389 37.3479 115.389 37.3479C115.536 37.4034 116.295 37.8587 116.295 37.8587C116.575 38.0446 116.84 38.2533 117.087 38.4826C117.316 38.6946 117.508 38.9438 117.653 39.2198C117.716 39.4215 117.733 39.6348 117.701 39.8438C117.654 39.9703 117.648 40.1083 117.682 40.2388C117.8 40.6412 117.323 40.9038 117.316 41.1447C117.316 41.3013 117.434 41.4651 117.456 41.5783C117.468 41.6031 117.485 41.6258 117.504 41.6458C117.772 41.8662 118.014 42.1159 118.227 42.3902C118.272 42.5901 118.106 42.8503 118.171 43.1273C118.171 43.1779 118.325 43.2622 118.342 43.296C118.395 43.4068 118.342 43.4791 118.4 43.5802C118.583 43.7945 118.793 43.9848 119.024 44.1464C119.4 44.5805 119.732 45.051 120.014 45.5509C120.014 45.5509 120.13 45.84 120.139 45.8424C120.16 46.0305 120.16 46.2204 120.139 46.4085C120.103 46.5651 120.002 46.953 119.913 46.9746C119.824 46.9963 119.764 47.1144 119.691 47.1433C119.619 47.1722 119.549 47.3047 119.52 47.3143V47.4035C119.547 47.6879 119.547 47.9743 119.52 48.2587C119.508 48.3454 119.501 48.4297 119.487 48.4996C119.464 48.6116 119.431 48.7213 119.388 48.8272C119.346 48.9102 119.299 48.9907 119.248 49.0681C119.072 49.3259 118.891 49.7716 118.569 49.8607C118.463 49.8896 118.328 49.839 118.229 49.8607C118.21 49.8607 117.882 49.8029 117.766 49.9378C117.15 50.6605 117.244 50.7304 116.899 50.5642C116.762 50.4991 117.292 49.8415 116.996 49.2512C116.887 48.9777 116.709 48.737 116.48 48.5526C116.222 48.3864 115.379 48.4105 115.063 48.4972C114.914 48.5381 114.839 48.7598 114.724 48.8369C114.608 48.914 114.541 48.8369 114.44 48.8923C113.958 49.1645 114.22 49.456 114.268 49.9113C114.268 49.9764 114.218 50.1691 114.211 50.1378C114.177 50.1974 114.139 50.2546 114.097 50.3088C113.999 50.7039 114.338 50.6413 114.437 50.8195C114.48 50.8918 114.415 51.0171 114.437 51.1038H114.473C114.473 51.1303 114.493 51.152 114.5 51.1737H114.526C114.581 51.0625 114.664 50.9677 114.767 50.899C114.796 50.8798 114.943 50.9231 114.972 50.899C114.972 50.9328 115.056 51.0556 115.047 51.0894C114.967 51.3785 115.018 51.4363 114.909 51.4724C114.907 51.4851 114.907 51.4982 114.909 51.511C114.909 51.511 115.186 51.7952 115.256 51.7519C115.389 51.6507 115.719 51.4435 115.719 51.4435C115.883 51.2893 116.14 50.8605 116.249 50.8485C116.357 50.8364 116.521 51.0002 116.562 51.0894C116.635 51.328 116.654 51.5795 116.62 51.8265C116.603 51.8964 116.41 52.0675 116.393 52.1662C116.362 52.383 116.239 52.6962 116.449 52.7902C116.455 52.7928 116.461 52.7968 116.466 52.8017C116.471 52.8067 116.475 52.8126 116.478 52.8191C116.54 52.9636 116.075 53.4792 116.109 53.5274C116.005 53.6093 115.926 53.6647 115.827 53.7538C115.827 53.7369 115.312 54.2091 115.035 54.4332C114.63 54.7632 114.02 54.2862 113.958 54.2621C113.695 54.1585 113.657 53.6454 113.505 53.4117C113.369 53.1776 113.197 52.9669 112.994 52.7878C112.777 52.6818 111.457 52.6577 111.125 52.73C111.076 52.73 110.722 52.8697 110.614 52.901C110.575 52.901 110.212 53.0407 110.103 53.072C110.065 53.072 109.193 53.5394 109.084 53.5828C109.041 53.5996 106.297 55.7293 106.297 55.7293C99.296 61.2557 86.7688 64.9103 72.6612 64.9103C58.1536 64.9103 45.4674 61.0293 38.5654 55.2426C38.5654 55.2426 37.8932 54.703 37.8137 54.6548C37.7342 54.6066 36.443 53.5876 36.3972 53.5876C36.2888 53.5442 35.4167 53.0889 35.3781 53.0769C35.2697 53.0479 34.8963 52.9179 34.8674 52.9058C34.759 52.8769 34.4049 52.7444 34.3567 52.7348C34.0242 52.6625 32.7065 52.6842 32.4872 52.7926C32.2846 52.9718 32.1121 53.1824 31.9765 53.4165C31.8247 53.6574 31.7862 54.1634 31.5236 54.2669C31.461 54.291 30.8539 54.7656 30.4467 54.438C30.1697 54.2139 29.6662 53.7418 29.6542 53.7586C29.5554 53.6695 29.4759 53.6141 29.3699 53.5322C29.4012 53.484 28.9387 52.9685 29.0013 52.8239C29.004 52.8174 29.0079 52.8115 29.0129 52.8066C29.0178 52.8016 29.0237 52.7977 29.0302 52.795C29.2398 52.701 29.1193 52.3879 29.088 52.171C29.0712 52.0626 28.8784 51.9012 28.8616 51.8314C28.8263 51.5845 28.8452 51.333 28.917 51.0942C28.9603 50.9954 29.1242 50.8316 29.2302 50.8533C29.3362 50.875 29.5963 51.2941 29.7602 51.4483C29.7602 51.4483 30.0902 51.6555 30.2227 51.7567C30.2902 51.8097 30.56 51.5302 30.5696 51.5158C30.5747 51.5034 30.5747 51.4896 30.5696 51.4772C30.4612 51.4411 30.5118 51.3833 30.4323 51.0942C30.4323 51.0605 30.5142 50.9376 30.507 50.9039C30.5335 50.9231 30.6828 50.8798 30.7117 50.9039C30.8148 50.9727 30.8978 51.0674 30.9527 51.1785H30.9792C30.9834 51.1537 30.9924 51.13 31.0057 51.1086H31.0611C31.0827 51.0243 31.0177 50.899 31.0611 50.8244C31.1574 50.6485 31.4995 50.7087 31.4007 50.3136C31.3591 50.2593 31.3212 50.2022 31.2875 50.1426C31.2522 50.0723 31.2332 49.9948 31.2321 49.9161C31.2827 49.4584 31.5501 49.1693 31.0611 48.8971C30.9599 48.8417 30.878 48.8971 30.7768 48.8417C30.6756 48.7863 30.5865 48.543 30.4371 48.502C30.1215 48.4153 29.2808 48.3912 29.0206 48.5574C28.7604 48.7236 28.6568 49.0585 28.5195 49.2512C28.1292 49.7885 28.7604 50.4991 28.6158 50.5642C28.2713 50.728 28.3749 50.6605 27.7486 49.9378C27.6329 49.8029 27.3053 49.8607 27.286 49.8607C27.1752 49.839 27.0451 49.8896 26.9463 49.8607C26.6235 49.7716 26.4428 49.3259 26.267 49.0681C26.2236 49.0031 26.1634 48.8826 26.1273 48.8272C26.0844 48.7213 26.0513 48.6116 26.0285 48.4996C26.014 48.4346 26.0068 48.3502 25.9948 48.2587C25.9678 47.9743 25.9678 47.6879 25.9948 47.4035V47.324C25.9659 47.324 25.8623 47.1674 25.8237 47.1529C25.7852 47.1385 25.6912 47.0084 25.6021 46.9843C25.5129 46.9602 25.4118 46.5651 25.3756 46.4085C25.3553 46.2204 25.3553 46.0305 25.3756 45.8424L25.5009 45.5509C25.7888 45.0495 26.1262 44.5782 26.5079 44.144C26.7389 43.9823 26.9486 43.7921 27.1318 43.5778C27.1873 43.4791 27.1318 43.4044 27.1873 43.2936C27.2041 43.2574 27.3438 43.1755 27.3583 43.1249C27.4209 42.8479 27.2547 42.5877 27.3005 42.3878C27.513 42.1135 27.7554 41.8639 28.0232 41.6433C28.0426 41.6234 28.0588 41.6007 28.0714 41.5759C28.0955 41.4627 28.2183 41.2988 28.2111 41.1423C28.2111 40.9013 27.7293 40.6363 27.8449 40.2364C27.8786 40.1057 27.871 39.9677 27.8233 39.8413C27.7919 39.6324 27.8084 39.4191 27.8714 39.2174C28.0172 38.9415 28.2086 38.6922 28.4376 38.4802C28.6843 38.2509 28.9494 38.0423 29.2302 37.8563C29.2302 37.8563 29.989 37.4009 30.136 37.3455C30.136 37.3455 34.3446 35.9242 36.5273 35.4689C37.739 35.2319 38.8948 34.7676 39.9337 34.1005L39.9072 34.0885ZM31.6898 38.114C32.2222 38.2465 33.0076 38.3188 33.4726 38.114C34.0396 37.8693 34.5751 37.5571 35.0674 37.1841C35.1348 37.1841 35.9298 36.9842 35.9973 36.9842C36.3948 36.7192 37.0597 36.4204 36.9272 36.0205C35.9322 35.888 33.752 36.9119 33.6846 36.9842C33.5521 36.9842 33.0871 37.1841 32.8872 37.1841C32.3572 37.2516 31.4923 37.2516 31.4923 37.9069C31.5052 37.9552 31.5301 37.9994 31.5646 38.0356C31.5991 38.0718 31.6422 38.0988 31.6898 38.114ZM29.9143 37.8466C29.7602 37.8635 28.8399 38.2104 28.5942 38.9259C28.5701 38.9958 28.4303 38.9596 28.3677 39.0969C28.3017 39.5007 28.3365 39.9144 28.4689 40.3015C28.5043 40.3674 28.5591 40.4208 28.6259 40.4544C28.6927 40.4881 28.7683 40.5003 28.8423 40.4894C29.0037 40.4629 29.2639 39.9859 29.5891 40.116C29.6662 40.1473 29.7144 40.3569 29.7144 40.3569C29.7427 40.3741 29.7752 40.3832 29.8083 40.3832C29.8415 40.3832 29.874 40.3741 29.9023 40.3569C29.9722 40.3111 29.8035 39.5378 29.9023 39.2367C29.977 38.9958 30.4829 38.8368 30.5865 38.6127C30.6594 38.4511 30.7206 38.2844 30.7696 38.114C30.8269 38.0006 30.9092 37.9017 31.0105 37.8249C31.0972 37.7527 31.1912 37.5696 31.1406 37.5527C31.09 37.5359 31.0418 37.4371 31.0153 37.4274C30.5335 37.2588 30.2926 37.6949 30.2227 37.7575C30.1287 37.8118 30.0229 37.8424 29.9143 37.8466ZM32.4969 41.7156C31.7742 41.9445 32.256 42.8021 32.6752 42.7828C33.0943 42.7636 33.5521 41.3663 32.4969 41.7156ZM28.3003 43.6429C28.4183 43.6718 28.5412 43.5682 28.5821 43.402C28.6062 43.3386 28.6049 43.2684 28.5784 43.2059C28.5519 43.1435 28.5023 43.0938 28.44 43.0671C28.3219 43.0382 28.1991 43.1418 28.1581 43.308C28.1347 43.3711 28.1364 43.4407 28.1629 43.5026C28.1893 43.5645 28.2385 43.6138 28.3003 43.6405V43.6429ZM32.3957 38.803C32.2608 38.8343 31.7091 39.1427 31.9476 39.2632C32.7161 39.1307 33.2774 39.109 33.634 39.2126C33.8267 39.2704 34.0652 39.6028 34.2483 39.6944C34.588 39.8365 34.7951 38.9018 34.4531 38.7308C33.7689 38.4609 32.5113 38.7669 32.3933 38.8006L32.3957 38.803ZM31.7187 39.5788C31.4345 39.6583 31.2369 40.0798 31.3429 40.181C31.4489 40.2822 31.6152 40.0172 31.7958 40.0317C31.9765 40.0461 32.109 40.4508 32.1717 40.4846C32.3596 40.5858 32.639 40.446 32.7739 40.5593C32.9522 40.7086 32.9763 41.1928 33.2268 41.2386C33.4774 41.2844 33.8171 40.6797 33.8291 40.4846C33.8412 40.2894 33.5617 39.9787 33.3762 39.8823C33.1907 39.7859 32.0825 39.4679 31.7163 39.5763L31.7187 39.5788ZM27.2643 49.3187C27.4545 49.211 27.6365 49.0894 27.8088 48.9549C27.8088 48.3647 28.0858 48.4273 28.2063 48.4442C28.3268 48.4611 28.3027 48.3334 28.4328 48.2177C28.5756 48.0762 28.7268 47.9435 28.8857 47.8202C29.0853 47.7478 29.3004 47.7287 29.5096 47.7648C29.6277 47.8106 30.1601 47.9359 30.3335 47.9816C30.507 48.0274 30.7334 48.2635 30.8442 48.3213C30.9551 48.3791 31.0611 48.6417 31.1839 48.7188C31.2538 48.7622 31.355 48.8489 31.4682 48.8321C31.726 48.7935 31.4441 48.5574 31.526 48.4924C31.3839 48.3575 30.6491 47.5408 30.5624 47.5287C30.4757 47.5167 30.3094 47.6347 30.2227 47.5866C30.136 47.5384 30.2107 47.324 30.1793 47.2469C30.03 46.9602 29.9384 47.0734 29.6686 46.9072C29.5898 46.8764 29.514 46.8385 29.4422 46.794C29.2783 46.6783 29.1458 46.4495 29.2157 46.3965C29.2856 46.3435 29.2157 46.2905 29.3289 46.2832C29.4086 46.2744 29.4888 46.294 29.5554 46.3386C29.606 46.3676 29.618 46.476 29.6686 46.5097C29.8228 46.6085 29.9842 46.6856 30.1215 46.794C30.4014 47.0323 30.7049 47.2414 31.0273 47.4179C31.0273 47.4372 31.0972 47.4685 31.0972 47.4854C31.5164 47.5625 31.4802 47.2445 31.2538 47.0782C31.0931 46.9806 30.9228 46.8999 30.7455 46.8373C30.7577 46.7438 30.7577 46.649 30.7455 46.5555C30.7455 46.529 30.6491 46.5001 30.6322 46.4422C30.2709 46.4254 30.042 46.4422 29.8397 46.2712C29.7553 46.2037 29.7096 45.9676 29.6132 45.9315C29.4638 45.8713 29.2615 45.9676 29.1025 45.9315L29.0447 45.8183C28.9483 45.7556 28.8688 45.8183 28.7604 45.7605C28.652 45.7027 28.6158 45.5316 28.5339 45.4786C28.3436 45.3485 28.1244 45.3437 27.9678 45.1943C27.921 45.1524 27.886 45.0991 27.8662 45.0395C27.8463 44.9799 27.8423 44.9162 27.8546 44.8547C27.8815 44.8058 27.9246 44.7678 27.9764 44.7471C28.0283 44.7265 28.0857 44.7244 28.1388 44.7414C28.2473 44.7992 28.2882 44.9823 28.3653 45.0257C28.4424 45.0691 28.5339 45.0257 28.5918 45.0811C28.6496 45.1365 28.7243 45.3871 28.8182 45.4208H28.9314C28.9676 45.4039 29.076 45.257 29.1025 45.2522C29.4181 45.1558 29.8035 45.3413 30.1215 45.2522C30.3624 45.1799 30.2878 44.9631 30.4058 44.7992C30.5841 44.5415 31.3694 44.3945 31.4827 44.4017C31.5959 44.409 31.7236 44.6764 31.7669 44.686C31.8681 44.7053 31.8898 44.7631 31.938 44.6282C31.9862 44.4933 31.4971 43.6429 31.6537 43.6092C31.8103 43.5754 31.8103 43.8742 31.9934 43.8934C32.4993 43.9416 32.6222 43.2117 32.5041 43.043C32.3861 42.8744 31.514 43.1972 31.4128 42.6022C31.3887 42.4648 31.5019 42.4287 31.5429 42.3612C31.5838 42.2938 31.5429 42.0794 31.5983 41.9662C31.6537 41.8529 31.9018 41.8361 31.938 41.7397C31.9575 41.6949 31.9675 41.6465 31.9675 41.5976C31.9675 41.5487 31.9575 41.5003 31.938 41.4554C31.9128 41.4382 31.883 41.429 31.8525 41.429C31.8219 41.429 31.7921 41.4382 31.7669 41.4554C31.7187 41.4819 31.7669 41.6626 31.6537 41.6819C31.6086 41.6965 31.5597 41.6927 31.5173 41.6716C31.475 41.6504 31.4426 41.6134 31.4272 41.5687C31.4383 41.3773 31.46 41.1867 31.4923 40.9977C31.4923 40.923 31.4923 40.7857 31.4272 40.7207C31.3622 40.6556 31.2996 40.7375 31.2562 40.7761C31.2128 40.8146 31.2056 40.9808 31.143 41.0025C30.6852 41.1447 30.6612 40.817 30.5768 40.7761C30.5518 40.7586 30.5219 40.7492 30.4913 40.7492C30.4607 40.7492 30.4309 40.7586 30.4058 40.7761C30.3672 40.8026 30.148 41.1302 30.0083 41.1736C29.9772 41.1803 29.9449 41.1785 29.9148 41.1683C29.8847 41.1581 29.8579 41.14 29.8373 41.1158C29.7698 41.0555 29.7023 40.8532 29.6108 40.7761C29.5828 40.7455 29.5463 40.7238 29.506 40.714C29.4657 40.7041 29.4233 40.7064 29.3843 40.7207C29.3145 40.7448 28.9266 41.2916 28.6472 41.5133C28.5388 41.5976 28.2738 41.5518 28.1099 41.706C27.5751 42.2191 27.6281 42.766 27.857 42.9828C27.8763 42.9322 28.0112 42.9587 28.028 42.9274C28.0714 42.8382 27.9943 42.7371 28.028 42.6431C28.0345 42.6156 28.0485 42.5904 28.0685 42.5704C28.0885 42.5503 28.1137 42.5363 28.1413 42.5299C28.1971 42.5135 28.2565 42.5135 28.3123 42.5299C28.4084 42.5834 28.4961 42.6508 28.5725 42.7298C28.6303 42.778 28.6062 42.8455 28.652 42.8696C28.6978 42.8937 28.8712 42.7949 28.9917 42.8696C29.1121 42.9442 29.2037 43.1635 29.3313 43.2237C29.5723 43.3177 29.8132 43.2671 30.0107 43.3947C30.1047 43.4526 30.0998 43.6043 30.1818 43.6766C29.8402 43.6889 29.5162 43.8311 29.2759 44.0741C29.2518 44.0982 29.1916 44.2331 29.1627 44.2452C28.7604 44.3752 27.9268 44.1416 27.8594 43.9609C27.7919 43.7802 27.8835 43.402 27.8594 43.3369C27.852 43.3219 27.8416 43.3085 27.829 43.2975C27.8163 43.2865 27.8015 43.2782 27.7856 43.273C27.7696 43.2679 27.7528 43.266 27.7361 43.2674C27.7194 43.2689 27.7032 43.2737 27.6883 43.2815C27.6353 43.3152 27.604 43.4285 27.5751 43.4526C27.3762 43.5734 27.1981 43.7256 27.0475 43.9031C26.9584 44.0404 26.9921 44.144 26.8765 44.2427C26.7608 44.3415 26.7151 44.4114 26.65 44.4138L26.5657 44.4668C26.3489 44.5198 25.8117 45.2883 25.696 45.7099L25.6768 45.7894C25.6758 45.8412 25.6848 45.8927 25.7033 45.9412C25.7727 46.0664 25.8632 46.1789 25.9707 46.2736C26.0237 46.2905 26.0911 46.2543 26.1562 46.1676C26.2212 46.0809 26.12 45.9267 26.1562 45.8279C26.2646 45.5051 26.6043 45.6424 26.862 45.5364C27.0042 45.4762 27.1029 44.6812 27.2306 44.6378C27.2916 44.6239 27.3556 44.6342 27.4091 44.6666C27.4626 44.6989 27.5014 44.7508 27.5173 44.8113C27.5149 45.0124 27.4556 45.2086 27.3463 45.3774C27.2499 45.522 26.9969 45.6304 26.8933 45.7749C26.8066 45.8785 26.8066 46.0327 26.7103 46.1194C26.6139 46.2062 26.532 46.1556 26.4838 46.2326C26.4489 46.2922 26.4304 46.36 26.4304 46.429C26.4304 46.498 26.4489 46.5658 26.4838 46.6253C26.5657 46.6904 27.0475 46.7458 27.1246 46.8421C27.1415 46.8662 27.2619 47.0036 27.2041 47.0831C27.1463 47.1626 26.5392 47.1144 26.4332 47.1553C26.3872 47.1718 26.3453 47.1982 26.3107 47.2328C26.2762 47.2674 26.2497 47.3092 26.2333 47.3553C26.2089 47.5042 26.1968 47.6549 26.1971 47.8058C26.2016 48.1063 26.2637 48.4032 26.3802 48.6803C26.399 48.7072 26.4159 48.7353 26.4308 48.7646C26.5657 49.0103 26.5657 49.2946 26.8428 49.4126C26.9151 49.4354 26.9921 49.4387 27.0662 49.4223C27.1402 49.4058 27.2085 49.37 27.2643 49.3187ZM30.5022 46.0279C30.5988 46.0173 30.6961 46.0411 30.7768 46.0953C30.837 46.1315 30.8515 46.2591 30.9141 46.3001C31.0996 46.4206 31.2345 46.8132 31.3959 46.9457C31.7308 47.2107 32.0488 46.7048 32.4415 47.0445C32.6824 47.2437 32.8446 47.5221 32.8992 47.8299C33.4075 47.9238 33.1401 47.1071 32.8582 46.912C32.733 46.8253 32.3258 46.7554 32.2415 46.6374C32.1572 46.5193 32.2752 46.3965 32.2415 46.2953C32.2078 46.1941 32.0922 46.17 32.0006 46.1435C31.9091 46.117 31.3839 46.1435 31.143 45.9532C31.0394 45.8713 30.9864 45.587 30.8683 45.5412C30.6852 45.469 30.3118 45.2787 30.2516 45.5412C30.1914 45.8038 30.5022 46.0279 30.5022 46.0279ZM32.8293 49.5837C32.8125 49.6463 33.3882 51.27 33.3786 51.4363C33.369 51.6025 33.1546 51.6603 33.1377 51.8121C33.1208 51.9639 33.3786 52.2144 33.4822 52.2072C33.5858 52.2 33.6942 51.6748 33.7231 51.6627C34.1399 51.5447 34.5518 51.9036 34.6747 51.723C34.8915 51.3881 33.7857 50.0101 33.634 50.0101C33.4822 50.0101 33.2557 49.8077 33.1931 49.7451C33.1305 49.6825 33.1305 49.5572 33.0678 49.5042C33.0249 49.4855 32.9766 49.4833 32.9322 49.4979C32.8878 49.5126 32.8503 49.5431 32.8269 49.5837H32.8293ZM31.7645 49.085C31.5838 49.2247 32.0705 51.1135 31.8561 51.9133C31.8416 51.959 31.5862 52.1542 31.5814 52.1879C31.5236 52.4095 31.8946 52.2096 31.9452 52.1879C32.1187 52.0964 32.5788 52.0289 32.7667 51.7326C33.0654 51.2508 32.5908 49.8752 32.4921 49.7258C32.3933 49.5765 32.2126 49.6222 32.1283 49.4512C32.044 49.2801 32.0873 49.1115 32.0367 49.0874C31.9862 49.0633 31.9428 48.9453 31.7645 49.085ZM29.4325 53.3611C29.5096 53.3611 29.6734 52.9468 29.83 52.9082C29.9866 52.8697 30.3456 53.0455 30.6226 52.9082C30.6997 52.8697 30.7021 52.7203 30.7479 52.6673C30.7937 52.6143 30.9069 52.6673 30.9623 52.5734C31.0562 52.3927 30.837 51.7832 30.7214 51.7398C30.6726 51.7206 30.6186 51.7196 30.5691 51.7368C30.5196 51.754 30.4779 51.7884 30.4516 51.8338C30.4299 51.9012 30.5961 52.4023 30.5696 52.4601C30.541 52.4975 30.5046 52.5282 30.4631 52.5502C30.4215 52.5723 30.3757 52.5851 30.3287 52.5878C30.2372 52.5878 29.9505 52.6215 29.8806 52.4601C29.8108 52.2987 29.9794 52.0458 29.9384 51.894C29.8975 51.7422 29.6132 51.894 29.4855 51.682C29.4584 51.6275 29.4374 51.5701 29.4229 51.511C29.3578 51.4411 29.3868 51.27 29.2181 51.3303C29.0495 51.3905 29.1507 51.7567 29.2037 51.9494C29.2229 52.0289 29.4133 52.1132 29.4301 52.1759C29.5024 52.4529 29.2543 52.677 29.2591 52.913C29.2639 53.1491 29.353 53.3611 29.4325 53.3611ZM31.2707 51.2291C30.8394 51.5326 31.2707 51.9518 31.2707 51.9518C31.9524 51.9398 31.7019 50.9255 31.2707 51.2291ZM28.0112 40.222C28.0425 40.2726 27.9823 40.3352 28.0112 40.393C28.0369 40.4288 28.071 40.4578 28.1104 40.4776C28.1499 40.4973 28.1935 40.5071 28.2376 40.5063C28.3171 40.5063 28.3316 40.4605 28.3508 40.393C28.3334 40.2391 28.3003 40.0873 28.2521 39.9401C28.2521 39.8799 28.2521 39.8004 28.1967 39.7691C28.1413 39.7378 28.0473 39.7113 28.0256 39.7691C28.0039 39.8269 28.0136 39.8943 27.9702 39.9401L28.0112 40.222ZM29.9384 40.5617C29.8565 40.5882 29.7313 40.8773 29.9938 40.7881C30.0733 40.7616 30.1986 40.4701 29.936 40.5641L29.9384 40.5617ZM28.9194 39.2583C29.1603 39.4414 29.4638 38.9138 29.5433 38.7476C29.5939 38.6368 29.5433 38.5597 29.5988 38.4634C29.5988 38.4489 30.0541 38.0466 29.6566 38.1237C29.3265 38.1887 28.8278 39.1909 28.917 39.2608L28.9194 39.2583ZM72.7431 64.9103C94.62 64.9103 112.356 56.0858 112.356 45.2016C112.356 34.3173 94.62 25.5049 72.7431 25.5049C50.8662 25.5049 33.1305 34.3294 33.1305 45.2136C33.1305 56.0979 50.8734 64.9103 72.7431 64.9103ZM113.991 37.9141C113.991 37.2492 113.129 37.2492 112.597 37.1914C112.397 37.1914 111.932 36.9914 111.799 36.9914C111.732 36.9239 109.554 35.9025 108.557 36.0278C108.424 36.4253 109.089 36.724 109.486 36.9914C109.554 36.9914 110.349 37.1914 110.416 37.1914C110.909 37.5643 111.444 37.8765 112.011 38.1213C112.476 38.3212 113.261 38.2489 113.794 38.1213C113.842 38.106 113.885 38.0791 113.919 38.0429C113.954 38.0067 113.978 37.9624 113.991 37.9141ZM115.266 37.7599C115.196 37.6876 114.955 37.2612 114.473 37.4299C114.449 37.4299 114.418 37.5383 114.348 37.5551C114.278 37.572 114.391 37.7551 114.478 37.8274C114.579 37.9041 114.662 38.003 114.719 38.1164C114.768 38.2868 114.829 38.4535 114.902 38.6151C115.008 38.8392 115.514 39.0054 115.586 39.2391C115.685 39.5402 115.516 40.3135 115.586 40.3593C115.615 40.3765 115.647 40.3856 115.68 40.3856C115.713 40.3856 115.746 40.3765 115.774 40.3593C115.774 40.3593 115.82 40.1401 115.899 40.1184C116.225 39.9907 116.485 40.4653 116.646 40.4918C116.72 40.5027 116.796 40.4905 116.863 40.4568C116.929 40.4232 116.984 40.3698 117.02 40.3039C117.152 39.9169 117.187 39.5031 117.121 39.0993C117.058 38.9596 116.918 38.9982 116.894 38.9283C116.653 38.2056 115.728 37.8659 115.574 37.849C115.467 37.8441 115.363 37.8135 115.271 37.7599H115.266ZM111.045 38.7235C110.703 38.8898 110.91 39.8245 111.25 39.6872C111.433 39.5956 111.671 39.2632 111.867 39.2053C112.221 39.1018 112.78 39.1234 113.553 39.2559C113.794 39.1379 113.24 38.8295 113.105 38.7958C112.97 38.7621 111.727 38.4609 111.05 38.7308L111.045 38.7235ZM112.12 39.8703C111.936 39.9666 111.655 40.2774 111.667 40.4725C111.679 40.6677 112.021 41.2723 112.269 41.2266C112.517 41.1808 112.544 40.6966 112.722 40.5472C112.857 40.434 113.136 40.5737 113.324 40.4725C113.387 40.4388 113.519 40.0341 113.7 40.0196C113.881 40.0052 114.025 40.2413 114.153 40.169C114.281 40.0967 114.061 39.6462 113.775 39.5667C113.416 39.4679 112.329 39.7643 112.124 39.8775L112.12 39.8703ZM112.811 42.7756C113.237 42.7973 113.7 41.9373 112.989 41.7084C111.946 41.3663 112.389 42.7612 112.818 42.7828L112.811 42.7756ZM115.22 45.5316C115.16 45.269 114.786 45.4593 114.603 45.5316C114.485 45.5774 114.432 45.8616 114.329 45.9436C114.088 46.1387 113.555 46.105 113.469 46.1339C113.382 46.1628 113.266 46.1965 113.228 46.2857C113.189 46.3748 113.312 46.5097 113.228 46.6277C113.143 46.7458 112.746 46.8156 112.611 46.9024C112.336 47.0903 112.062 47.9142 112.57 47.8202C112.625 47.5124 112.787 47.2341 113.028 47.0349C113.42 46.7072 113.751 47.2035 114.073 46.9361C114.237 46.806 114.372 46.4109 114.555 46.2905C114.618 46.2495 114.632 46.1218 114.692 46.0857C114.773 46.0315 114.87 46.0076 114.967 46.0182C114.967 46.0182 115.297 45.8014 115.235 45.5364L115.22 45.5316ZM113.461 49.085C113.411 49.1115 113.461 49.2801 113.37 49.4488C113.278 49.6174 113.105 49.574 113.006 49.7234C112.907 49.8728 112.433 51.258 112.731 51.7302C112.919 52.0265 113.38 52.094 113.553 52.1855C113.604 52.2072 113.975 52.4071 113.917 52.1855C113.917 52.1662 113.657 51.9566 113.642 51.9109C113.428 51.1135 113.914 49.2223 113.734 49.0826C113.553 48.9429 113.51 49.0561 113.461 49.085ZM112.435 49.5066C112.373 49.5572 112.373 49.6825 112.31 49.7475C112.247 49.8125 112.021 50.0125 111.869 50.0125C111.717 50.0125 110.611 51.3905 110.828 51.7254C110.949 51.9133 111.363 51.5471 111.792 51.6651C111.828 51.6651 111.944 52.2024 112.033 52.2096C112.122 52.2168 112.401 51.9687 112.377 51.8145C112.353 51.6603 112.136 51.6001 112.136 51.4387C112.136 51.2773 112.7 49.6487 112.686 49.5861C112.662 49.5432 112.623 49.511 112.576 49.4961C112.53 49.4813 112.479 49.4851 112.435 49.5066ZM117.342 43.3056C117.333 43.2379 117.299 43.1761 117.247 43.1317C117.195 43.0873 117.129 43.0635 117.061 43.0647C116.998 43.0914 116.949 43.1411 116.922 43.2035C116.896 43.266 116.894 43.3362 116.918 43.3996C116.928 43.4672 116.962 43.5291 117.014 43.5735C117.066 43.6179 117.132 43.6417 117.2 43.6405C117.263 43.6138 117.312 43.5641 117.339 43.5016C117.365 43.4392 117.367 43.369 117.342 43.3056ZM118.663 49.4006C118.935 49.2826 118.937 49.0007 119.075 48.7453C119.09 48.7161 119.106 48.6879 119.125 48.661C119.242 48.3839 119.304 48.087 119.308 47.7865C119.308 47.6404 119.296 47.4946 119.272 47.3505C119.256 47.3043 119.229 47.2624 119.195 47.2278C119.16 47.1932 119.118 47.1668 119.072 47.1505C118.964 47.1096 118.349 47.1505 118.301 47.0782C118.253 47.006 118.366 46.8711 118.381 46.8373C118.453 46.7337 118.954 46.6783 119.022 46.5964C119.057 46.5369 119.075 46.4691 119.075 46.4001C119.075 46.3311 119.057 46.2633 119.022 46.2037C118.973 46.1266 118.867 46.1483 118.795 46.0905C118.723 46.0327 118.706 45.8496 118.627 45.7508C118.523 45.6087 118.27 45.5099 118.174 45.3533C118.064 45.1846 118.005 44.9883 118.003 44.7872C118.019 44.7282 118.057 44.6777 118.11 44.6459C118.162 44.6141 118.224 44.6035 118.284 44.6162C118.414 44.6571 118.513 45.4545 118.653 45.5147C118.911 45.6207 119.25 45.4834 119.359 45.8062C119.395 45.9098 119.294 46.0471 119.359 46.1459C119.424 46.2447 119.491 46.2688 119.544 46.2519C119.652 46.1572 119.742 46.0448 119.812 45.9195C119.831 45.8712 119.841 45.8197 119.841 45.7677L119.821 45.6882C119.706 45.2666 119.169 44.5005 118.952 44.4451L118.851 44.3921C118.785 44.3921 118.704 44.2933 118.624 44.2211C118.545 44.1488 118.545 44.0187 118.453 43.8814C118.308 43.7044 118.135 43.5515 117.942 43.4285C117.913 43.4044 117.882 43.2912 117.829 43.2574C117.814 43.2496 117.798 43.2448 117.781 43.2433C117.765 43.2419 117.748 43.2438 117.732 43.249C117.716 43.2541 117.701 43.2624 117.688 43.2734C117.676 43.2844 117.665 43.2978 117.658 43.3128C117.675 43.5205 117.675 43.7292 117.658 43.9368C117.6 44.091 116.757 44.3487 116.355 44.2211C116.326 44.2211 116.266 44.0741 116.242 44.05C116.001 43.807 115.677 43.6648 115.336 43.6525C115.415 43.5802 115.413 43.4285 115.507 43.3707C115.704 43.2454 115.957 43.2936 116.186 43.1996C116.319 43.1418 116.405 42.9346 116.526 42.8599C116.646 42.7852 116.82 42.8864 116.865 42.8599C116.911 42.8334 116.887 42.7684 116.945 42.7202C117.021 42.6411 117.109 42.5737 117.205 42.5202C117.261 42.5039 117.32 42.5039 117.376 42.5202C117.441 42.5202 117.482 42.607 117.489 42.6335C117.523 42.7274 117.446 42.8262 117.489 42.9177C117.506 42.9491 117.639 42.9177 117.658 42.9732C117.899 42.7443 117.94 42.1998 117.4 41.6939C117.236 41.5398 116.971 41.5855 116.865 41.5012C116.588 41.2772 116.198 40.7327 116.128 40.7086C116.089 40.6944 116.047 40.6921 116.007 40.7019C115.966 40.7118 115.93 40.7334 115.902 40.764C115.81 40.8411 115.743 41.0435 115.675 41.1037C115.655 41.1277 115.628 41.1457 115.598 41.1559C115.568 41.166 115.535 41.168 115.504 41.1615C115.367 41.1182 115.145 40.7905 115.109 40.764C115.084 40.747 115.055 40.738 115.025 40.738C114.995 40.738 114.965 40.747 114.941 40.764C114.859 40.805 114.83 41.135 114.374 40.9905C114.312 40.9688 114.305 40.8002 114.261 40.764C114.218 40.7279 114.167 40.6412 114.09 40.7086C114.013 40.7761 114.03 40.911 114.028 40.9857C114.059 41.1747 114.08 41.3653 114.09 41.5566C114.066 41.6458 113.984 41.6891 113.864 41.6698C113.743 41.6506 113.799 41.4699 113.751 41.4434C113.725 41.4262 113.696 41.417 113.665 41.417C113.634 41.417 113.605 41.4262 113.579 41.4434C113.561 41.4884 113.551 41.5367 113.551 41.5855C113.551 41.6343 113.561 41.6826 113.579 41.7277C113.613 41.8264 113.876 41.865 113.919 41.9541C113.963 42.0433 113.936 42.2866 113.975 42.3492C114.013 42.4118 114.129 42.4504 114.105 42.5901C114.001 43.1852 113.141 42.8647 113.013 43.031C112.886 43.1972 113.013 43.9296 113.524 43.8814C113.707 43.8645 113.705 43.5634 113.864 43.5971C114.023 43.6308 113.534 44.4837 113.579 44.6162C113.625 44.7487 113.649 44.6932 113.751 44.674C113.791 44.674 113.912 44.3993 114.035 44.3897C114.158 44.3801 114.931 44.527 115.112 44.7872C115.227 44.951 115.145 45.1678 115.394 45.2401C115.712 45.3292 116.097 45.1437 116.413 45.2401C116.439 45.2401 116.545 45.3943 116.584 45.4087H116.697C116.791 45.375 116.846 45.1341 116.923 45.0691C117 45.004 117.087 45.0498 117.15 45.0137C117.212 44.9775 117.268 44.7872 117.376 44.7294C117.429 44.713 117.486 44.7154 117.537 44.736C117.589 44.7566 117.631 44.7942 117.658 44.8426C117.671 44.9042 117.667 44.968 117.647 45.0276C117.627 45.0872 117.592 45.1405 117.545 45.1823C117.388 45.3317 117.169 45.3365 116.979 45.4666C116.897 45.522 116.841 45.7075 116.752 45.7484C116.663 45.7894 116.567 45.7484 116.468 45.8062L116.413 45.9195C116.256 45.9556 116.054 45.8592 115.902 45.9195C115.805 45.9556 115.76 46.1917 115.675 46.2591C115.471 46.4206 115.244 46.4133 114.883 46.4302C114.866 46.488 114.779 46.5169 114.77 46.5434C114.757 46.637 114.757 46.7317 114.77 46.8253C114.592 46.8831 114.421 46.9589 114.259 47.0517C114.032 47.2083 113.994 47.5336 114.415 47.4589C114.415 47.442 114.485 47.4107 114.485 47.3914C114.808 47.215 115.111 47.0059 115.391 46.7675C115.528 46.6591 115.69 46.5844 115.844 46.4832C115.895 46.4495 115.907 46.3435 115.957 46.3121C116.024 46.2675 116.104 46.2479 116.184 46.2567C116.287 46.2567 116.227 46.3194 116.297 46.37C116.367 46.4206 116.234 46.6518 116.07 46.7675C116.02 46.8036 115.856 46.8711 115.844 46.8807C115.586 47.0469 115.485 46.9337 115.333 47.2204C115.29 47.3047 115.362 47.5095 115.278 47.5601C115.194 47.6106 115.054 47.4854 114.938 47.5022C114.823 47.5191 114.117 48.331 113.975 48.4659C114.054 48.5309 113.775 48.767 114.032 48.8056C114.146 48.8224 114.244 48.7357 114.317 48.6923C114.44 48.6152 114.533 48.3599 114.656 48.2948C114.779 48.2298 114.994 48.0009 115.167 47.9551C115.341 47.9094 115.873 47.7841 115.991 47.7383C116.199 47.7026 116.414 47.7217 116.613 47.7937C116.771 47.9169 116.923 48.0497 117.065 48.1912C117.196 48.3069 117.174 48.4321 117.292 48.4177C117.41 48.4032 117.689 48.3382 117.689 48.9284C117.862 49.0629 118.044 49.1845 118.234 49.2922C118.289 49.3473 118.358 49.3865 118.433 49.4056C118.509 49.4246 118.588 49.4229 118.663 49.4006ZM116.237 52.9082C116.237 52.6673 115.996 52.4505 116.066 52.171C116.083 52.1084 116.273 52.0241 116.292 51.9446C116.343 51.7519 116.446 51.3809 116.278 51.3255C116.109 51.27 116.136 51.4363 116.073 51.5061C116.058 51.5653 116.037 51.6226 116.01 51.6772C115.883 51.882 115.601 51.735 115.557 51.8892C115.514 52.0434 115.692 52.2795 115.615 52.4553C115.538 52.6312 115.259 52.595 115.167 52.583C115.12 52.5804 115.074 52.5677 115.033 52.5456C114.991 52.5236 114.955 52.4928 114.926 52.4553C114.9 52.3951 115.066 51.8964 115.044 51.829C115.018 51.7836 114.976 51.7492 114.927 51.732C114.877 51.7148 114.823 51.7158 114.774 51.735C114.654 51.7784 114.437 52.3903 114.533 52.5685C114.589 52.6745 114.705 52.6071 114.748 52.6625C114.791 52.7179 114.794 52.8697 114.873 52.9034C115.15 53.0407 115.504 52.8649 115.666 52.9034C115.827 52.942 115.984 53.3563 116.063 53.3563C116.143 53.3563 116.232 53.1443 116.237 52.9082ZM117.54 39.9401C117.497 39.8968 117.504 39.8269 117.485 39.7691C117.465 39.7113 117.359 39.7378 117.314 39.7691C117.268 39.8004 117.268 39.8775 117.256 39.9401C117.203 40.0869 117.165 40.2386 117.143 40.393C117.162 40.4605 117.176 40.4966 117.256 40.5063C117.3 40.5071 117.343 40.4973 117.383 40.4776C117.422 40.4578 117.456 40.4288 117.482 40.393C117.511 40.3352 117.451 40.2726 117.482 40.222L117.54 39.9401ZM115.502 40.7905C115.765 40.8797 115.639 40.5906 115.56 40.5641C115.297 40.4701 115.422 40.7616 115.502 40.7881V40.7905ZM115.842 38.1405C115.444 38.0634 115.892 38.4658 115.899 38.4802C115.957 38.5766 115.899 38.6513 115.955 38.7645C116.032 38.9283 116.345 39.4559 116.579 39.2752C116.668 39.1909 116.16 38.1887 115.842 38.1285V38.1405ZM114.232 51.9398C114.232 51.9398 114.664 51.5326 114.232 51.217C113.801 50.9015 113.546 51.9398 114.232 51.9398Z" fill="#FF4B55" />
                            <path d="M64.1693 61.8497C48.1851 60.0381 36.3083 53.2758 36.3083 45.2126C36.3083 35.7617 52.6202 28.1081 72.7433 28.1081C92.8664 28.1081 109.173 35.7593 109.173 45.2126C109.173 53.2252 97.4484 59.9538 81.6183 61.816L81.7508 63.0615C98.2796 61.0981 110.544 53.8515 110.544 45.2126C110.549 35.0631 93.6228 26.8457 72.7433 26.8457C51.8637 26.8457 34.9375 35.0631 34.9375 45.2126C34.9375 53.8853 47.3298 61.1703 63.9863 63.0904L64.1693 61.8497Z" fill="#FF4B55" />
                            <path d="M63.9863 27.3271C47.3298 29.2544 34.9375 36.5323 34.9375 45.2146C34.9375 55.3617 51.8637 63.5887 72.7433 63.5887C93.6228 63.5887 110.549 55.3617 110.549 45.2146C110.549 36.5756 98.2844 29.3315 81.7557 27.3657L81.6232 28.6112C97.4533 30.4734 109.173 37.2044 109.173 45.2146C109.173 54.6679 92.8615 62.3191 72.7385 62.3191C52.6154 62.3191 36.3035 54.6558 36.3035 45.2146C36.3035 37.149 48.1802 30.3891 64.1645 28.5775L63.9863 27.3271Z" fill="#FF4B55" />
                            <path d="M72.7434 60.9032C91.888 60.9032 107.408 53.8784 107.408 45.2128C107.408 36.5473 91.888 29.5225 72.7434 29.5225C53.5988 29.5225 38.0791 36.5473 38.0791 45.2128C38.0791 53.8784 53.5988 60.9032 72.7434 60.9032Z" stroke="#FF4B55" stroke-width="0.86" />
                            <path d="M72.7434 64.9214C94.6209 64.9214 112.356 56.0975 112.356 45.2126C112.356 34.3278 94.6209 25.5039 72.7434 25.5039C50.866 25.5039 33.1309 34.3278 33.1309 45.2126C33.1309 56.0975 50.866 64.9214 72.7434 64.9214Z" stroke="#FF4B55" stroke-width="0.86" />
                            <path d="M55.1251 39.7437C56.291 39.7437 57.4065 39.7437 58.2569 39.8328H58.24C58.4932 39.9005 58.7284 40.0231 58.929 40.1918L59.2277 40.4592L59.2542 40.0569C59.3195 39.5985 59.4535 39.1527 59.6517 38.7343L59.8348 38.4355H59.4855H49.1867H48.9698L48.9891 38.65C48.9695 39.125 48.8819 39.5947 48.7289 40.0448L48.5049 40.7001L49.0397 40.2592C49.2357 40.0868 49.4691 39.9623 49.7215 39.8955C50.8417 39.7774 51.9679 39.726 53.0942 39.7413V50.7436C53.0859 50.8722 53.0509 50.9977 52.9916 51.1121C52.9323 51.2266 52.85 51.3275 52.7497 51.4085L52.2293 51.806L52.8822 51.7602C53.1544 51.7409 53.8458 51.7048 54.1132 51.7048C54.3397 51.7048 54.901 51.7361 55.3178 51.7602L55.8357 51.7939L55.4503 51.4181C55.2704 51.2406 55.1543 51.0085 55.1202 50.758V39.7437H55.1251Z" fill="#FF4B55" />
                            <path d="M65.5306 51.9479C67.6627 51.9479 69.5586 51.2252 70.874 49.9099C72.1893 48.5945 72.8446 46.8551 72.8446 44.8026C72.8446 42.9235 72.252 41.3769 71.086 40.2109C69.7875 38.91 67.7759 38.168 65.5692 38.168C61.3846 38.168 58.46 41.0131 58.46 45.0869C58.46 47.0744 59.108 48.7728 60.3366 50.0014C61.611 51.2734 63.401 51.9479 65.5306 51.9479ZM61.8182 40.9288C62.2692 40.3758 62.8387 39.9314 63.4847 39.6282C64.1306 39.325 64.8364 39.171 65.5499 39.1774C66.1789 39.1579 66.8053 39.265 67.3921 39.4922C67.9789 39.7194 68.5141 40.0621 68.966 40.5C70.0525 41.5865 70.6258 43.2487 70.6258 45.3181C70.6258 48.7342 68.6986 50.9409 65.7209 50.9409C65.0883 50.9535 64.4603 50.8311 63.8787 50.5819C63.2972 50.3326 62.7754 49.9623 62.3482 49.4955C61.237 48.2528 60.6417 46.633 60.6835 44.9664C60.6835 43.4222 60.8763 42.1526 61.8182 40.9288Z" fill="#FF4B55" />
                            <path d="M73.7844 51.6592H77.8798C79.6987 51.6592 81.9752 51.6592 83.6616 50.18C85.2901 48.7346 86.0707 46.87 86.0707 44.4777C86.0707 42.4565 85.348 40.7316 84.0085 39.6138C82.5631 38.4092 80.8936 38.4092 79.1301 38.4333H73.3483L73.6302 38.7586C73.7916 38.9465 74.0518 39.3247 74.0518 39.5343V50.5029C74.0037 50.817 73.8589 51.1084 73.6374 51.3364L73.3242 51.6592H73.7844ZM76.0923 39.5728C76.4223 39.5728 76.562 39.5728 76.88 39.5512C77.3618 39.5295 77.8027 39.5126 78.2508 39.5126C80.419 39.5126 81.8211 39.9101 82.6787 40.7677C83.4882 41.5772 83.8664 42.8468 83.8664 44.7596C83.8664 47.3662 82.9967 49.1249 81.2838 49.9897C79.9492 50.6715 77.9545 50.5462 76.3524 50.4474L76.0947 50.4306V39.5728H76.0923Z" fill="#FF4B55" />
                            <path d="M86.7687 40.701C86.6314 40.2433 86.1255 40.1975 85.8749 39.9542C85.5304 39.6218 85.6099 38.7762 86.2941 38.4654C86.7518 38.2582 87.4987 38.4437 87.6938 38.8918C87.8453 39.2777 87.853 39.7052 87.7155 40.0964C87.5998 40.424 87.0554 41.8526 86.8819 42.0838C86.811 42.1632 86.7239 42.2264 86.6266 42.2693C86.6266 42.2693 86.9012 41.1828 86.7687 40.701Z" fill="#FF4B55" />
                            <path d="M88.7663 48.9562C88.7049 49.5123 88.5887 50.061 88.4194 50.5944L88.3809 50.7052L88.458 50.7919C89.1807 51.5797 90.7875 51.9483 91.6476 51.9483C92.3044 51.967 92.9585 51.856 93.5724 51.6216C94.1863 51.3872 94.7479 51.0341 95.2251 50.5823C95.6296 50.1695 95.9469 49.6795 96.158 49.1414C96.3691 48.6033 96.4696 48.0283 96.4537 47.4505C96.4537 45.239 94.7384 44.5596 93.2255 43.9573C91.7994 43.3912 90.5755 42.9021 90.5755 41.3676C90.5704 41.1113 90.6168 40.8567 90.712 40.6187C90.8071 40.3807 90.9492 40.1643 91.1296 39.9823C91.3441 39.7799 91.5965 39.6218 91.8722 39.5172C92.148 39.4126 92.4417 39.3635 92.7365 39.3728C93.2077 39.3617 93.6699 39.5029 94.0545 39.7755C94.439 40.0481 94.7254 40.4374 94.8709 40.8857L94.9191 41.011H95.4009L95.4419 40.8689L95.5093 40.628C95.6134 40.1905 95.7519 39.7619 95.9237 39.3463L95.9839 39.2162L95.8755 39.1199C95.0926 38.4164 93.9145 38.1562 93.0738 38.1562C90.4238 38.1562 88.7374 39.6523 88.7374 41.9674C88.7374 44.3331 90.4695 45.0197 91.9993 45.6244C93.3869 46.1737 94.5867 46.6483 94.5867 48.1829C94.5867 49.6139 93.5315 50.7365 92.1776 50.7365C90.9465 50.7365 90.1178 50.1969 89.318 48.8719L89.2602 48.7779H88.7904L88.7663 48.9562Z" fill="#FF4B55" />
                            <path d="M51.2156 72.216C51.2156 71.1416 51.2156 70.944 51.2011 70.72C51.1867 70.4959 51.1264 70.3658 50.8831 70.3177C50.7876 70.3017 50.6908 70.2945 50.594 70.296C50.5121 70.296 50.4688 70.2815 50.4688 70.2333C50.4688 70.1852 50.5217 70.1707 50.6326 70.1707C51.0252 70.1707 51.4926 70.1924 51.6998 70.1924H53.5476C53.6542 70.1834 53.7604 70.1689 53.8656 70.149C53.904 70.136 53.9435 70.1263 53.9836 70.1201C54.0197 70.1201 54.027 70.149 54.027 70.1828C53.9986 70.3349 53.9785 70.4885 53.9667 70.6429C53.9617 70.7984 53.9488 70.9536 53.9282 71.1078C53.9285 71.1178 53.9268 71.1278 53.9232 71.1372C53.9196 71.1465 53.9142 71.155 53.9072 71.1622C53.9002 71.1694 53.8919 71.1751 53.8827 71.179C53.8734 71.1829 53.8635 71.1849 53.8535 71.1849C53.8005 71.1849 53.7861 71.1488 53.7861 71.0862C53.7868 70.9999 53.7721 70.9143 53.7427 70.8332C53.6921 70.7055 53.6174 70.6212 53.2464 70.5802C53.1212 70.5658 52.343 70.5513 52.1937 70.5513C52.1575 70.5513 52.1407 70.573 52.1407 70.6212V72.4063C52.1407 72.4569 52.1407 72.4834 52.1937 72.4834C52.3575 72.4834 53.2103 72.4834 53.3789 72.469C53.5067 72.4779 53.6333 72.4402 53.7355 72.363C53.7861 72.3076 53.8174 72.2714 53.8535 72.2714C53.8896 72.2714 53.9041 72.2859 53.9041 72.3268C53.8752 72.4975 53.8551 72.6696 53.8439 72.8424C53.8294 72.9845 53.815 73.2664 53.815 73.3242C53.815 73.382 53.815 73.4591 53.7475 73.4591C53.6801 73.4591 53.6801 73.4302 53.6801 73.3965C53.6765 73.3116 53.6668 73.227 53.6511 73.1435C53.615 73.0014 53.5114 72.9026 53.2368 72.8689C53.0971 72.8544 52.3623 72.8472 52.184 72.8472C52.1479 72.8472 52.1407 72.8761 52.1407 72.9195V74.5721C52.1551 75.0539 52.2732 75.1647 53.0296 75.1647C53.2649 75.1784 53.5006 75.1498 53.7258 75.0804C53.9186 74.9961 54.0077 74.8395 54.0583 74.5576C54.0727 74.4806 54.0872 74.4516 54.1402 74.4516C54.1932 74.4516 54.2004 74.5071 54.2004 74.5793C54.1879 74.8423 54.1557 75.1041 54.1041 75.3623C54.0535 75.5454 53.986 75.5454 53.7041 75.5454C52.5839 75.5454 52.0877 75.5044 51.6492 75.5044C51.4782 75.5044 51.0108 75.5261 50.7145 75.5261C50.6181 75.5261 50.5651 75.5044 50.5651 75.4538C50.5651 75.4032 50.594 75.3984 50.6832 75.3984C50.7731 75.3981 50.8627 75.3884 50.9506 75.3695C51.0999 75.3406 51.1361 75.1864 51.165 74.9816C51.2011 74.6853 51.2011 74.1264 51.2011 73.4784L51.2156 72.216Z" fill="#FF4B55" stroke="#FF4B55" stroke-width="0.5" />
                            <path d="M58.2694 73.6756C58.2798 73.4174 58.2207 73.1612 58.0984 72.9336C58.0454 72.8204 57.0529 71.2665 56.7927 70.9003C56.6599 70.695 56.486 70.5195 56.2819 70.3848C56.1858 70.333 56.08 70.3018 55.9712 70.2932C55.9109 70.2932 55.8604 70.2788 55.8604 70.2306C55.8604 70.1824 55.9134 70.168 56.0001 70.168C56.1326 70.168 56.6891 70.1896 56.9348 70.1896C57.0914 70.1896 57.3949 70.168 57.7274 70.168C57.8021 70.168 57.8382 70.1896 57.8382 70.2306C57.8382 70.2716 57.7876 70.2812 57.6744 70.3077C57.6451 70.3138 57.6187 70.3298 57.5999 70.3531C57.581 70.3764 57.5707 70.4054 57.5708 70.4354C57.5837 70.5209 57.614 70.6029 57.6599 70.6763C57.7635 70.8883 58.8018 72.5891 58.9199 72.7866C58.9946 72.618 59.9293 71.0641 60.0329 70.8449C60.0937 70.7319 60.1291 70.6069 60.1365 70.4787C60.1379 70.4349 60.1224 70.3923 60.0933 70.3596C60.0641 70.3268 60.0235 70.3066 59.9799 70.3029C59.9124 70.2884 59.8474 70.274 59.8474 70.233C59.8474 70.1921 59.8835 70.1704 59.9727 70.1704C60.2136 70.1704 60.4545 70.1921 60.6689 70.1921C60.8327 70.1921 61.3218 70.1704 61.4615 70.1704C61.5434 70.1704 61.594 70.1848 61.594 70.2282C61.594 70.2716 61.5338 70.2981 61.4518 70.2981C61.3388 70.3037 61.2281 70.3324 61.1266 70.3824C60.9666 70.4631 60.8292 70.5823 60.7267 70.7293C60.2103 71.4489 59.7373 72.1986 59.3102 72.9745C59.2209 73.1986 59.183 73.4398 59.1993 73.6804V74.2586C59.1993 74.3718 59.1993 74.6681 59.221 74.9644C59.2355 75.1692 59.3029 75.3234 59.5246 75.3523C59.6476 75.3688 59.7715 75.3785 59.8956 75.3812C59.9775 75.3812 60.0136 75.4029 60.0136 75.4366C60.0136 75.4704 59.9534 75.5089 59.857 75.5089C59.3897 75.5089 58.9223 75.4872 58.7223 75.4872C58.5224 75.4872 58.0695 75.5089 57.7948 75.5089C57.6913 75.5089 57.631 75.4944 57.631 75.4366C57.631 75.3788 57.6672 75.3812 57.7491 75.3812C57.8366 75.3805 57.9238 75.3709 58.0093 75.3523C58.1562 75.3234 58.2237 75.1692 58.2502 74.9644C58.2718 74.6681 58.2718 74.3718 58.2718 74.2586L58.2694 73.6756Z" fill="#FF4B55" stroke="#FF4B55" stroke-width="0.5" />
                            <path d="M63.7546 72.216C63.7546 71.1416 63.7546 70.944 63.7402 70.72C63.7257 70.4959 63.6655 70.3658 63.4222 70.3177C63.3267 70.3017 63.2299 70.2945 63.1331 70.296C63.0512 70.296 63.0078 70.2815 63.0078 70.2333C63.0078 70.1852 63.0608 70.1707 63.1716 70.1707C63.5643 70.1707 64.0317 70.1924 64.2389 70.1924H66.0914C66.1981 70.1833 66.3042 70.1689 66.4094 70.149C66.4479 70.136 66.4874 70.1263 66.5275 70.1201C66.5636 70.1201 66.5709 70.149 66.5709 70.1828C66.5427 70.335 66.5226 70.4886 66.5106 70.6429C66.5106 70.7128 66.4889 71.0235 66.4745 71.1078C66.4748 71.1178 66.4731 71.1278 66.4695 71.1372C66.4659 71.1465 66.4605 71.155 66.4535 71.1622C66.4465 71.1694 66.4382 71.1751 66.429 71.179C66.4197 71.1829 66.4098 71.1849 66.3998 71.1849C66.3468 71.1849 66.3324 71.1488 66.3324 71.0862C66.3331 70.9999 66.3184 70.9143 66.289 70.8332C66.2384 70.7055 66.1637 70.6212 65.7927 70.5802C65.6674 70.5658 64.8893 70.5513 64.7399 70.5513C64.7038 70.5513 64.6869 70.573 64.6869 70.6212V72.4063C64.6869 72.4569 64.6869 72.4834 64.7399 72.4834C64.9038 72.4834 65.7566 72.4834 65.9252 72.469C66.053 72.4779 66.1796 72.4402 66.2818 72.363C66.3348 72.3076 66.3637 72.2714 66.3998 72.2714C66.4359 72.2714 66.4528 72.2859 66.4528 72.3268C66.4238 72.4975 66.4037 72.6696 66.3926 72.8424C66.3781 72.9845 66.3637 73.2664 66.3637 73.3242C66.3637 73.382 66.3637 73.4591 66.2962 73.4591C66.2288 73.4591 66.2288 73.4302 66.2288 73.3965C66.2253 73.3116 66.2156 73.227 66.1999 73.1435C66.1637 73.0014 66.0601 72.9026 65.7855 72.8689C65.6458 72.8544 64.911 72.8472 64.7327 72.8472C64.6966 72.8472 64.6894 72.8761 64.6894 72.9195V74.5721C64.7038 75.0539 64.8219 75.1647 65.5783 75.1647C65.8136 75.1784 66.0493 75.1498 66.2745 75.0804C66.4673 74.9961 66.5564 74.8395 66.607 74.5576C66.6214 74.4806 66.6359 74.4516 66.6889 74.4516C66.7419 74.4516 66.7491 74.5071 66.7491 74.5793C66.7367 74.8424 66.7045 75.1041 66.6528 75.3623C66.6022 75.5454 66.5347 75.5454 66.2529 75.5454C65.1326 75.5454 64.6364 75.5044 64.1979 75.5044C64.0269 75.5044 63.5595 75.5261 63.2632 75.5261C63.1668 75.5261 63.1138 75.5044 63.1138 75.4538C63.1138 75.4032 63.1427 75.3984 63.2319 75.3984C63.3218 75.3981 63.4114 75.3885 63.4993 75.3695C63.6486 75.3406 63.6848 75.1864 63.7137 74.9816C63.7498 74.6853 63.7498 74.1264 63.7498 73.4784L63.7546 72.216Z" fill="#FF4B55" stroke="#FF4B55" stroke-width="0.5" />
                            <path d="M68.7242 70.8589C68.6825 70.669 68.5872 70.4951 68.4495 70.3578C68.3567 70.315 68.2554 70.2936 68.1532 70.2952C68.0785 70.2952 68.0352 70.2952 68.0352 70.2326C68.0352 70.1699 68.0954 70.1699 68.199 70.1699C68.5844 70.1699 68.9916 70.1916 69.059 70.1916C69.1265 70.1916 69.4517 70.1699 69.8829 70.1699C69.9865 70.1699 70.0395 70.1916 70.0395 70.2326C70.0395 70.2735 69.9793 70.2952 69.907 70.2952C69.8438 70.2904 69.7803 70.3003 69.7215 70.3241C69.6541 70.353 69.6396 70.4012 69.6396 70.4807C69.6777 70.7013 69.7325 70.9188 69.8034 71.1311C69.9287 71.5985 70.6177 73.7378 70.7526 74.1329H70.7743L72.2197 70.4542C72.3016 70.2567 72.345 70.2012 72.4052 70.2012C72.4655 70.2012 72.5233 70.3072 72.6196 70.5337L74.1615 74.0847H74.1831C74.3156 73.6029 74.9059 71.7479 75.1709 70.9216C75.2154 70.7894 75.2405 70.6514 75.2455 70.512C75.2455 70.3988 75.1781 70.3 74.889 70.3C74.8143 70.3 74.7637 70.2783 74.7637 70.2374C74.7637 70.1964 74.824 70.1747 74.9348 70.1747C75.3275 70.1747 75.6382 70.1964 75.7057 70.1964C75.7731 70.1964 76.0767 70.1747 76.32 70.1747C76.4019 70.1747 76.4525 70.1892 76.4525 70.2326C76.4525 70.2759 76.4164 70.3024 76.3489 70.3024C76.261 70.3004 76.1733 70.3118 76.0887 70.3361C75.9105 70.4012 75.8285 70.6831 75.6744 71.0854C75.3323 71.9743 74.5541 74.2172 74.1904 75.2796C74.1085 75.5205 74.0723 75.612 73.976 75.612C73.8796 75.612 73.8579 75.5277 73.7351 75.2651L72.1932 71.7262H72.1788C72.0391 72.0876 71.0513 74.5858 70.7333 75.2362C70.5912 75.5253 70.5551 75.6096 70.4659 75.6096C70.3768 75.6096 70.3551 75.5325 70.2949 75.3495L68.7242 70.8589Z" fill="#FF4B55" stroke="#FF4B55" stroke-width="0.5" />
                            <path d="M78.2185 72.216C78.2185 71.1416 78.2185 70.944 78.204 70.72C78.1896 70.4959 78.1294 70.3658 77.886 70.3177C77.7905 70.3018 77.6938 70.2945 77.597 70.296C77.515 70.296 77.4717 70.2815 77.4717 70.2333C77.4717 70.1852 77.5247 70.1707 77.6355 70.1707C78.0282 70.1707 78.4955 70.1924 78.7027 70.1924H80.5553C80.662 70.1834 80.7681 70.1689 80.8733 70.149C80.9118 70.1361 80.9513 70.1264 80.9914 70.1201C81.0275 70.1201 81.0371 70.149 81.0371 70.1828C81.0091 70.335 80.989 70.4886 80.9769 70.6429C80.9769 70.7128 80.9552 71.0235 80.9408 71.1078C80.9411 71.1178 80.9394 71.1278 80.9358 71.1372C80.9322 71.1465 80.9267 71.155 80.9198 71.1622C80.9128 71.1694 80.9044 71.1751 80.8952 71.179C80.886 71.1829 80.8761 71.1849 80.8661 71.1849C80.8131 71.1849 80.7986 71.1488 80.7986 71.0862C80.7994 70.9999 80.7847 70.9143 80.7553 70.8332C80.7023 70.7055 80.6276 70.6212 80.259 70.5802C80.1337 70.5658 79.3532 70.5513 79.2062 70.5513C79.1701 70.5513 79.1556 70.573 79.1556 70.6212V72.4063C79.1556 72.4569 79.1556 72.4834 79.2062 72.4834C79.37 72.4834 80.2229 72.4834 80.3915 72.469C80.5192 72.4779 80.6459 72.4402 80.748 72.363C80.7986 72.3076 80.8299 72.2714 80.8661 72.2714C80.9022 72.2714 80.9191 72.2859 80.9191 72.3268C80.89 72.4975 80.8699 72.6696 80.8589 72.8424C80.8444 72.9845 80.8299 73.2664 80.8299 73.3242C80.8299 73.382 80.8299 73.4591 80.7625 73.4591C80.695 73.4591 80.695 73.4302 80.695 73.3965C80.6911 73.3116 80.6815 73.2271 80.6661 73.1435C80.6276 73.0014 80.524 72.9026 80.2494 72.8689C80.1072 72.8544 79.3749 72.8472 79.1966 72.8472C79.1604 72.8472 79.1532 72.8761 79.1532 72.9195V74.5721C79.1677 75.0539 79.2857 75.1647 80.0422 75.1647C80.2774 75.1784 80.5132 75.1498 80.7384 75.0804C80.9311 74.9961 81.0203 74.8395 81.0733 74.5576C81.0877 74.4806 81.1022 74.4516 81.1552 74.4516C81.2082 74.4516 81.2154 74.5071 81.2154 74.5793C81.2026 74.8423 81.1704 75.104 81.119 75.3623C81.066 75.5454 81.001 75.5454 80.7191 75.5454C79.5989 75.5454 79.1026 75.5044 78.6642 75.5044C78.4931 75.5044 78.0282 75.5261 77.7295 75.5261C77.6331 75.5261 77.5801 75.5044 77.5801 75.4538C77.5801 75.4032 77.609 75.3984 77.6981 75.3984C77.788 75.3982 77.8777 75.3885 77.9655 75.3695C78.1149 75.3406 78.151 75.1864 78.1824 74.9816C78.2185 74.6853 78.2185 74.1264 78.2185 73.4784V72.216Z" fill="#FF4B55" stroke="#FF4B55" stroke-width="0.5" />
                            <path d="M84.4655 73.6634C84.4294 73.6634 84.415 73.6779 84.4005 73.7212L84.0006 74.7306C83.9391 74.8669 83.9016 75.0128 83.8898 75.1619C83.8898 75.2896 83.9572 75.3811 84.1861 75.3811H84.2969C84.3861 75.3811 84.4077 75.3956 84.4077 75.4365C84.4077 75.4775 84.362 75.5088 84.2825 75.5088C84.0416 75.5088 83.726 75.4871 83.4971 75.4871C83.4152 75.4871 83.0153 75.5088 82.6226 75.5088C82.5262 75.5088 82.4805 75.4943 82.4805 75.4365C82.4805 75.3787 82.5118 75.3811 82.5696 75.3811C82.6502 75.3831 82.7308 75.3783 82.8105 75.3666C83.1502 75.3233 83.2923 75.0848 83.4417 74.7306L85.3039 70.2955C85.393 70.0908 85.4364 70.0137 85.5111 70.0137C85.5858 70.0137 85.6219 70.0763 85.6966 70.2401C85.8749 70.628 87.0601 73.5092 87.5347 74.5765C87.8166 75.2125 88.031 75.2992 88.1876 75.3474C88.2901 75.3664 88.3941 75.3761 88.4983 75.3763C88.5586 75.3763 88.5947 75.3763 88.5947 75.4317C88.5947 75.4871 88.5273 75.504 88.2526 75.504C87.978 75.504 87.4456 75.504 86.8505 75.4895C86.718 75.4895 86.6289 75.4895 86.6289 75.4317C86.6289 75.3739 86.6578 75.3763 86.7325 75.3691C86.7485 75.3642 86.7633 75.3559 86.7757 75.3447C86.7881 75.3335 86.7979 75.3197 86.8044 75.3043C86.8108 75.2889 86.8138 75.2722 86.813 75.2555C86.8122 75.2388 86.8078 75.2224 86.8 75.2076L86.2073 73.7092C86.202 73.694 86.1918 73.681 86.1783 73.6723C86.1647 73.6635 86.1487 73.6596 86.1326 73.661L84.4655 73.6634ZM85.9785 73.3093C86.0146 73.3093 86.0218 73.2876 86.0146 73.2659L85.3473 71.5218C85.3473 71.4928 85.3328 71.4591 85.3111 71.4591C85.2895 71.4591 85.275 71.4953 85.2678 71.5218L84.586 73.2587C84.586 73.2876 84.586 73.3093 84.6149 73.3093H85.9785Z" fill="#FF4B55" stroke="#FF4B55" stroke-width="0.5" />
                            <path d="M90.366 72.2161C90.366 71.1416 90.366 70.9441 90.3515 70.72C90.337 70.496 90.2768 70.3659 90.0335 70.3177C89.938 70.3017 89.8412 70.2945 89.7444 70.296C89.6625 70.296 89.6191 70.2816 89.6191 70.2334C89.6191 70.1852 89.6697 70.1707 89.783 70.1707C90.1756 70.1707 90.643 70.1924 90.7996 70.1924C91.0405 70.1924 91.6139 70.1707 91.8451 70.1707C92.3194 70.1384 92.7929 70.2438 93.2087 70.4743C93.3623 70.5842 93.4879 70.7287 93.5753 70.8961C93.6628 71.0635 93.7097 71.2491 93.7122 71.4379C93.7122 71.9607 93.4713 72.4401 92.7341 73.0207C93.3942 73.8109 93.9049 74.4396 94.3434 74.8781C94.5602 75.1253 94.8522 75.2945 95.1745 75.3599C95.2428 75.3729 95.3121 75.3802 95.3817 75.3816C95.4419 75.3816 95.4708 75.4033 95.4708 75.437C95.4708 75.4707 95.4178 75.5093 95.3287 75.5093H94.6228C94.3514 75.5338 94.0782 75.4873 93.8302 75.3744C93.5122 75.213 93.2304 74.8805 92.8136 74.336C92.5173 73.9482 92.1752 73.4688 92.0909 73.3724C92.0742 73.3543 92.0536 73.3403 92.0306 73.3315C92.0076 73.3227 91.9829 73.3194 91.9584 73.3218L91.3127 73.3074C91.2766 73.3074 91.2525 73.3218 91.2525 73.3628V73.4615C91.2525 74.1168 91.2525 74.6661 91.2886 74.972C91.3103 75.1768 91.3561 75.331 91.5777 75.3599C91.6984 75.3756 91.8198 75.3853 91.9415 75.3888C92.0017 75.3888 92.0306 75.4105 92.0306 75.4442C92.0306 75.4779 91.9776 75.5165 91.8813 75.5165C91.45 75.5165 90.9032 75.4948 90.79 75.4948C90.6767 75.4948 90.1829 75.5165 89.8841 75.5165C89.7878 75.5165 89.7372 75.4948 89.7372 75.4442C89.7372 75.3936 89.7661 75.3888 89.8552 75.3888C89.9451 75.3886 90.0348 75.3789 90.1226 75.3599C90.272 75.331 90.3081 75.1768 90.337 74.972C90.3732 74.6757 90.3732 74.1168 90.3732 73.4688L90.366 72.2161ZM91.2405 72.775C91.2405 72.8521 91.2549 72.881 91.3079 72.9026C91.4917 72.9519 91.6814 72.9755 91.8716 72.9725C92.0555 72.9973 92.2421 72.9545 92.3968 72.8521C92.6185 72.6979 92.8353 72.3702 92.8353 71.7921C92.8353 70.7899 92.139 70.4984 91.7006 70.4984C91.569 70.4926 91.4372 70.5024 91.3079 70.5273C91.2549 70.5417 91.2405 70.5707 91.2405 70.6261V72.775Z" fill="#FF4B55" stroke="#FF4B55" stroke-width="0.5" />
                        </g>
                        <defs>
                            <clipPath id="clip0_3839_5044">
                                <rect width="94.7951" height="50.2728" fill="white" transform="translate(25.3613 25.4004)" />
                            </clipPath>
                        </defs>
                    </svg>