 <svg
            width="432"
            height="489"
            viewBox="0 0 432 489"
            fill="none"
            xmlns="http://www.w3.org/2000/svg"
          >
            <path
              d="M381.427 487.412C413.72 448.821 415.946 385.841 383.653 324.937C351.36 264.035 444.32 185.437 354.298 108.275C302.442 63.8284 161.335 47.7587 54.9892 168.894C-34.9373 271.326 -0.897797 439.665 62.3573 487.412C267.241 487.412 381.427 487.412 381.427 487.412Z"
              fill="#DBF0FF"
              fill-opacity="0.5"
            />
            <path
              d="M240.097 407.981C266.496 426.03 292.743 430.611 314.004 420.88C341.287 408.392 357.813 374.008 359.347 326.547L357.73 326.698C356.219 373.499 340.083 407.33 313.46 419.516C292.77 428.986 267.09 424.435 241.15 406.699L240.097 407.981Z"
              fill="white"
            />
            <path
              d="M76.9582 102.362C79.5579 131.006 86.964 161.208 98.5792 190.35C112.943 226.387 132.567 258.129 155.331 282.143L156.595 281.042C133.941 257.143 114.406 225.541 100.102 189.653C87.1749 157.221 79.486 123.471 77.8564 92.0664L76.2421 92.3367C76.4134 95.6534 76.6521 98.9953 76.9582 102.362Z"
              fill="white"
            />
            <path
              d="M147.088 61.6542L148.657 61.8261C155.654 34.3299 169.217 15.2809 187.88 6.73792C211.605 -4.12168 240.943 3.17074 270.488 27.2721C300.183 51.4966 326.472 89.7607 344.509 135.018L346.032 134.321C327.915 88.8662 301.492 50.4172 271.63 26.0581C241.618 1.57584 211.682 -5.77005 187.336 5.37388C168.138 14.1616 154.221 33.6231 147.088 61.6542Z"
              fill="white"
            />
            <path
              d="M60.0087 301.038C91.9825 351.906 130.773 388.251 169.237 403.378L170.015 401.952C131.818 386.929 93.2539 350.77 61.4262 300.135L60.0087 301.038Z"
              fill="white"
            />
            <path
              d="M240.874 443.643C267.273 461.693 293.52 466.273 314.78 456.542C342.063 444.054 358.59 409.671 360.123 362.209L358.507 362.361C356.995 409.161 340.859 442.992 314.236 455.178C293.546 464.648 267.866 460.097 241.926 442.361L240.874 443.643Z"
              fill="white"
            />
            <path
              d="M77.7346 138.024C80.3342 166.668 87.7404 196.87 99.3556 226.012C113.719 262.049 133.344 293.791 156.108 317.805L157.371 316.704C134.717 292.805 115.182 261.203 100.878 225.315C87.9512 192.883 80.2624 159.133 78.6328 127.729L77.0185 127.999C77.1898 131.316 77.4285 134.657 77.7346 138.024Z"
              fill="white"
            />
            <path
              d="M80.5821 99.2948L82.1516 99.4667C89.1486 71.9706 102.711 52.9215 121.374 44.3785C145.099 33.5189 174.437 40.8114 203.982 64.9128C233.677 89.1372 259.966 127.401 278.004 172.658L279.526 171.961C261.409 126.507 234.986 88.0578 205.124 63.6987C175.113 39.2165 145.177 31.8706 120.831 43.0145C101.632 51.8023 87.7148 71.2637 80.5821 99.2948Z"
              fill="white"
            />
            <path
              d="M62.1033 349.233C94.0771 400.101 132.868 436.447 171.331 451.574L172.109 450.147C133.912 435.125 95.3486 398.965 63.5208 348.33L62.1033 349.233Z"
              fill="white"
            />
            <path
              d="M345.405 178.641C349.509 187.287 353.413 196.243 357.007 205.262C377.694 257.163 388.177 310.168 387.32 358.549L388.937 358.377C389.794 309.816 379.281 256.628 358.53 204.566C354.925 195.521 351.01 186.539 346.895 177.869L345.405 178.641Z"
              fill="white"
            />
            <path
              d="M36.1113 153.615C34.324 150.929 35.3819 147.083 38.474 145.026C41.5662 142.969 45.5216 143.479 47.3089 146.165C49.0961 148.852 48.0383 152.697 44.9461 154.754C41.854 156.811 37.8985 156.301 36.1113 153.615Z"
              fill="#E5ECFE"
            />
            <path
              d="M241.887 182.506C238.144 176.771 232.034 172.264 225.229 171.884C218.424 171.503 210.412 171.884 200.402 188.946C165.249 248.862 134.496 224.463 174.449 283.858C214.402 343.254 219.083 228.218 220.251 227.842L220.992 226.504L221.906 227.318C232.363 228.361 248.284 266.489 248.284 201.863C247.306 195.083 245.629 188.24 241.887 182.506Z"
              fill="#2F2E41"
            />
            <path
              d="M213.497 264.416L214.733 275.881L214.006 290.916L247.307 286.959L250.437 264.416L246.45 264.455L213.497 264.416Z"
              fill="#FFBE9D"
            />
            <path
              d="M228.907 205.742L220.376 205.742C220.376 205.742 221.932 216.652 220.376 220.061C218.909 223.273 215.837 226.485 215.837 226.485L238.671 226.904C238.671 226.904 238.188 226.003 234.584 221.999C230.98 217.995 228.907 205.742 228.907 205.742Z"
              fill="#FFBE9D"
            />
            <path
              d="M219.693 206.708C222.038 212.213 228.21 214.016 230.964 214.302C230.718 213.682 230.202 211.534 229.887 210.531C225.512 206.963 217.348 201.203 219.693 206.708Z"
              fill="#F47458"
            />
            <path
              d="M289.987 162.122C290.362 162.921 290.557 163.793 290.559 164.676C290.56 165.559 290.368 166.432 289.996 167.233C289.624 168.034 289.08 168.743 288.404 169.311C287.728 169.879 286.936 170.292 286.083 170.521L260.319 219.133L249.92 211.107L278.515 165.847C278.225 164.388 278.481 162.875 279.233 161.592C279.986 160.31 281.182 159.348 282.596 158.889C284.01 158.43 285.544 158.505 286.906 159.101C288.268 159.697 289.364 160.772 289.987 162.122H289.987Z"
              fill="#FFBE9D"
            />
            <path
              d="M247.725 235.559C247.725 235.559 250.112 237.677 253.507 231.83C256.225 227.149 269.781 206.19 271.7 198.925C272.753 198.954 273.786 198.633 274.636 198.011C275.486 197.389 276.105 196.502 276.396 195.489L261.835 189.838C258.67 191.421 259.548 193.614 260.351 194.749L254.928 202.883L236.89 223.126L245.972 234.059L247.725 235.559Z"
              fill="#50BFA5"
            />
            <path
              d="M216.352 274.998C225.265 274.631 242.332 270.392 249.811 267.289C241.019 262.16 222.235 265.152 213.943 267.289C213.332 269.425 213.055 272.311 216.352 274.998Z"
              fill="#F47458"
            />
            <path
              d="M229.473 211.525C220.837 208.997 218.98 210.42 216.501 198.058C216.501 190.421 219.885 181.861 227.522 181.861C235.159 181.861 241.35 188.052 241.35 195.689C242.494 209.122 239.566 214.479 229.473 211.525Z"
              fill="#FFBE9D"
            />
            <path
              d="M242.493 226.736L234.58 221.988C234.58 221.988 231.406 223.607 227.54 223.469C223.674 223.331 220.223 219.879 220.223 219.879L207.049 226.746L204.906 249.288L213.78 271.856L250.971 267.109L252.384 259.148C252.384 259.148 262.671 245.331 251.593 237.418L242.493 226.736Z"
              fill="#96D9C9"
            />
            <path
              d="M232.692 174.688C229.696 173.848 226.529 173.828 223.522 174.631C220.516 175.434 217.78 177.03 215.602 179.252C213.423 181.474 211.881 184.24 211.138 187.262C210.394 190.283 210.476 193.449 211.375 196.429C219.797 197.101 228.122 196.314 234.684 190.356L235.268 185.245L237.663 189.522C240.078 188.842 242.496 188.159 244.919 187.471C244.178 184.456 242.659 181.689 240.513 179.446C238.367 177.203 235.67 175.562 232.692 174.688Z"
              fill="#2F2E41"
            />
            <path
              d="M1.5896 486.905H430.542C430.75 486.905 430.95 486.822 431.097 486.675C431.244 486.527 431.327 486.328 431.327 486.119C431.327 485.911 431.244 485.711 431.097 485.564C430.95 485.417 430.75 485.334 430.542 485.334H1.5896C1.38129 485.334 1.18146 485.417 1.03415 485.564C0.886871 485.711 0.804108 485.911 0.804108 486.119C0.804108 486.328 0.886871 486.527 1.03415 486.675C1.18146 486.822 1.38129 486.905 1.5896 486.905Z"
              fill="#CCCCCC"
            />
            <path
              d="M109.792 50.6217C117.242 43.419 127.192 39.4437 137.169 36.9005C148.463 34.0216 160.142 32.3257 171.68 30.6987C183.705 29.0031 195.777 27.6952 207.897 26.7751C220.001 25.8599 232.127 25.3359 244.274 25.2033C255.099 25.0844 265.995 25.0807 276.767 26.2586C286.912 27.368 297.033 29.5942 306.18 34.1646C314.322 38.1453 321.162 44.286 325.924 51.889C330.301 58.9659 332.904 67.4493 331.999 75.768C331.574 79.8643 330.274 83.8268 328.182 87.3968C325.731 91.3419 322.606 94.8447 318.946 97.7524C311.388 104.012 302.352 108.587 295.851 116.026C294.134 117.975 292.634 120.098 291.377 122.359C290.433 124.074 289.371 125.55 287.615 126.55C286.048 127.428 284.251 127.83 282.451 127.707C280.65 127.584 278.927 126.941 277.499 125.859C275.474 124.3 274.019 121.896 272.452 119.918L266.987 113.021C266.592 112.402 266.135 111.824 265.621 111.296C265.253 110.998 265.86 111.261 265.74 111.186C265.674 111.145 265.557 111.168 265.485 111.139C265.121 111.037 264.748 110.969 264.371 110.936C260.38 110.216 256.381 109.543 252.374 108.917C237.577 106.575 222.684 104.643 207.729 103.602C200.021 102.999 192.284 102.818 184.556 103.06C174.562 103.461 164.706 105.408 154.748 106.247C144.028 107.151 132.767 107.026 122.665 102.972C114.58 99.727 107.072 94.2674 102.695 86.7267C100.618 83.1603 99.3868 79.1804 99.0941 75.0832C98.5598 65.7896 103.167 57.0259 109.792 50.6217Z"
              fill="#CDE0FB"
            />
            <path
              d="M250.22 29.7109C252.202 29.7109 254.181 29.7214 256.16 29.7424C275.16 29.9441 294.796 31.4802 309.697 41.2737C322.923 49.9666 332.192 69.3299 324.348 83.2165C320.745 89.5929 314.219 94.2344 307.309 99.1479C304.601 101.074 301.8 103.066 299.116 105.211C293.252 109.897 287.73 116.185 284.554 123.256L270.602 105.301L267.966 104.797C265.43 104.311 205.491 92.9457 173.569 96.6356C170.634 96.975 167.666 97.3656 164.796 97.7431C151.828 99.4494 139.58 101.06 127.821 98.6817C115.545 96.1976 102.065 86.7165 101.263 74.0381C100.713 65.3582 106.36 55.8363 115.648 49.7797C125.04 43.656 136.753 41.1277 147.945 39.0627C181.682 32.8463 215.916 29.7161 250.22 29.7109Z"
              fill="white"
            />
            <path
              d="M141.945 57.3378H276.682C277.459 57.3378 278.205 57.0289 278.755 56.4791C279.304 55.9294 279.613 55.1837 279.613 54.4062C279.613 53.6287 279.304 52.883 278.755 52.3333C278.205 51.7835 277.459 51.4746 276.682 51.4746H141.945C141.167 51.4746 140.421 51.7835 139.872 52.3333C139.322 52.883 139.013 53.6287 139.013 54.4062C139.013 55.1837 139.322 55.9294 139.872 56.4791C140.421 57.0289 141.167 57.3378 141.945 57.3378Z"
              fill="#AFCDFB"
            />
            <path
              d="M141.945 75.3319H276.682C277.459 75.3319 278.205 75.0231 278.755 74.4733C279.304 73.9235 279.613 73.1778 279.613 72.4003C279.613 71.6228 279.304 70.8772 278.755 70.3274C278.205 69.7776 277.459 69.4688 276.682 69.4688H141.945C141.167 69.4688 140.421 69.7776 139.872 70.3274C139.322 70.8772 139.013 71.6228 139.013 72.4003C139.013 73.1778 139.322 73.9235 139.872 74.4733C140.421 75.0231 141.167 75.3319 141.945 75.3319Z"
              fill="#AFCDFB"
            />
            <path
              d="M260.98 93.3261H276.682C277.459 93.3261 278.205 93.0172 278.755 92.4674C279.304 91.9176 279.613 91.172 279.613 90.3945C279.613 89.617 279.304 88.8713 278.755 88.3215C278.205 87.7717 277.459 87.4629 276.682 87.4629H260.98C260.203 87.4629 259.457 87.7717 258.907 88.3215C258.357 88.8713 258.048 89.617 258.048 90.3945C258.048 91.172 258.357 91.9176 258.907 92.4674C259.457 93.0172 260.203 93.3261 260.98 93.3261Z"
              fill="#AFCDFB"
            />
            <path
              d="M285.324 163.643C278.442 163.643 272.864 158.064 272.864 151.183C272.864 144.301 278.442 138.723 285.324 138.723C292.206 138.723 297.784 144.301 297.784 151.183C297.784 158.064 292.206 163.643 285.324 163.643Z"
              fill="#AFCDFB"
            />
            <path
              d="M321.577 304.406C319.79 301.72 320.848 297.874 323.94 295.817C327.032 293.76 330.987 294.27 332.775 296.956C334.562 299.643 333.504 303.488 330.412 305.545C327.32 307.602 323.364 307.092 321.577 304.406Z"
              fill="white"
            />
            <path
              d="M54.2304 303.558C52.4432 300.872 53.5011 297.027 56.5932 294.97C59.6853 292.912 63.6408 293.422 65.428 296.109C67.2152 298.795 66.1574 302.64 63.0653 304.698C59.9732 306.755 56.0176 306.245 54.2304 303.558Z"
              fill="white"
            />
            <path
              d="M155.153 206.594C153.366 203.907 154.424 200.062 157.516 198.005C160.608 195.948 164.564 196.458 166.351 199.144C168.138 201.83 167.08 205.676 163.988 207.733C160.896 209.79 156.941 209.28 155.153 206.594Z"
              fill="white"
            />
            <path
              d="M196.224 472.577H203.505L206.97 444.494H196.224V472.577Z"
              fill="#FFBE9D"
            />
            <path
              d="M192.381 485.192H197.603L198.535 480.263L200.922 485.192H214.77C215.433 485.192 216.08 484.98 216.615 484.587C217.149 484.193 217.544 483.639 217.742 483.006C217.939 482.372 217.929 481.692 217.713 481.064C217.496 480.437 217.085 479.895 216.539 479.518L205.48 471.88V466.896L193.848 467.591L192.381 485.192Z"
              fill="#DEAF5B"
            />
            <path
              d="M237.122 472.577H244.403L247.867 444.494H237.122V472.577Z"
              fill="#FFBE9D"
            />
            <path
              d="M233.279 485.192H238.5L239.432 480.263L241.819 485.192H255.667C256.331 485.192 256.977 484.98 257.512 484.587C258.047 484.193 258.442 483.639 258.639 483.006C258.837 482.372 258.827 481.692 258.61 481.064C258.394 480.437 257.982 479.895 257.436 479.518L246.377 471.88V466.896L234.745 467.591L233.279 485.192Z"
              fill="#DEAF5B"
            />
            <path
              d="M193.083 448.36H193.162L194.562 402.699C193.656 400.951 193.196 399.006 193.223 397.038C193.251 395.069 193.764 393.138 194.719 391.416L194.919 391.053L194.399 388.643C193.732 385.548 194.038 382.321 195.276 379.407L196.583 336.813C191.916 306.568 214.157 286.844 214.157 286.844H247.473L254.626 311.419C259.354 357.487 258.496 402.38 250.993 445.873L251.197 445.977C251.934 446.231 252.25 447.252 251.903 448.256C251.556 449.261 250.678 449.869 249.942 449.615L232.347 449.003C231.61 448.748 231.294 447.728 231.641 446.723C231.988 445.719 232.866 445.111 233.602 445.365L234.799 445.97L232.247 401.908L232.53 393.86L231.947 384.73L229.25 343.661L219.042 394.164L208.614 448.869C208.902 449.129 209.104 449.471 209.193 449.848C209.283 450.226 209.255 450.621 209.115 450.983C208.975 451.345 208.729 451.656 208.408 451.875C208.088 452.093 207.709 452.21 207.321 452.209H193.083C192.572 452.209 192.083 452.006 191.722 451.645C191.361 451.284 191.159 450.795 191.159 450.285C191.159 449.774 191.361 449.285 191.722 448.924C192.083 448.563 192.572 448.36 193.083 448.36H193.083Z"
              fill="#355389"
            />
            <path
              d="M208.621 320.687C207.869 320.224 207.227 319.602 206.742 318.864C206.257 318.126 205.939 317.291 205.811 316.417C205.684 315.544 205.749 314.653 206.003 313.807C206.257 312.961 206.693 312.181 207.281 311.522L202.178 256.742L215.276 257.754L216.173 311.283C217.215 312.344 217.831 313.75 217.905 315.235C217.978 316.72 217.505 318.18 216.574 319.34C215.643 320.499 214.319 321.276 212.853 321.525C211.388 321.773 209.882 321.475 208.621 320.687V320.687Z"
              fill="#FFBE9D"
            />
            <path
              d="M205.274 289.863L215.646 282.369V281.266L204.69 283.908L205.274 289.863Z"
              fill="#F47458"
            />
            <path
              d="M207.173 226.622C204.729 227.241 202.015 230.01 202.381 236.761C202.673 242.166 201.36 272.754 203.738 279.882C202.841 280.435 202.154 281.27 201.784 282.256C201.414 283.242 201.382 284.323 201.695 285.329L216.971 282.074C218.75 279.015 218.381 275.874 217.088 275.365L217.164 265.589C217.164 265.589 218.961 246.643 217.164 236.761C215.367 226.879 213.648 227.616 212.713 226.995C211.778 226.374 210.481 225.784 207.173 226.622Z"
              fill="#50BFA5"
            />
            <path
              d="M239.101 202.539L231.102 204.019C231.102 204.019 233.144 206.641 235.718 206.242C239.101 205.717 239.101 202.539 239.101 202.539Z"
              fill="white"
            />
            <path
              d="M163.32 484.301C171.765 477.165 176.895 465.892 175.549 454.918C174.204 443.944 165.872 433.855 155.064 431.525C144.256 429.194 131.936 435.645 128.654 446.203C126.847 425.848 124.765 404.641 113.943 387.307C104.144 371.611 87.1723 360.38 68.7785 358.371C50.3848 356.362 31.0185 363.951 19.547 378.469C8.07549 392.987 5.26672 414.093 13.3011 430.76C19.2197 443.039 30.1239 452.177 41.5488 459.611C78.4667 483.431 122.745 493.118 166.237 486.889L163.32 484.301Z"
              fill="#82B378"
            />
            <path
              opacity="0.5"
              d="M37.7361 364.371C52.9133 376.733 66.8367 390.559 79.305 405.649C98.8179 429.184 114.608 455.571 126.125 483.89C126.968 485.956 123.613 486.855 122.78 484.812C103.936 438.787 73.853 398.221 35.283 366.825C33.551 365.414 36.0184 362.973 37.7361 364.371Z"
              fill="#DEF2D9"
            />
            <path
              d="M315.223 485.139C308.88 479.78 305.028 471.315 306.038 463.073C307.049 454.832 313.306 447.255 321.423 445.505C329.539 443.755 338.792 448.6 341.257 456.528C342.614 441.242 344.177 425.315 352.304 412.298C359.663 400.51 372.409 392.076 386.223 390.567C400.036 389.059 414.58 394.757 423.195 405.66C431.81 416.563 433.92 432.414 427.886 444.931C423.441 454.152 415.252 461.015 406.672 466.598C379.299 484.41 345.342 491.838 313.032 487.083"
              fill="#A8D29F"
            />
            <path
              opacity="0.5"
              d="M409.535 395.072C398.137 404.356 387.681 414.739 378.317 426.071C368.952 437.392 360.707 449.594 353.698 462.507C349.78 469.751 346.261 477.203 343.156 484.83C342.522 486.381 345.042 487.057 345.668 485.522C351.168 472.076 357.973 459.201 365.985 447.081C373.958 435.006 383.084 423.733 393.234 413.42C398.974 407.59 405.032 402.079 411.377 396.914C412.678 395.855 410.825 394.021 409.535 395.072Z"
              fill="#DEF2D9"
            />
          </svg>